<svg width="1920" height="960" viewBox="0 0 1920 960" fill="none" xmlns="http://www.w3.org/2000/svg">
<g clip-path="url(#clip0_4262_11958)">
<rect width="1920" height="960" fill="#FAFDFE"/>
<rect opacity="0.02" width="1920" height="996" fill="url(#paint0_linear_4262_11958)"/>
<g clip-path="url(#clip1_4262_11958)">
<path d="M1897.5 144.309L1886.14 139.987C1885.89 136.811 1885.4 133.659 1884.66 130.56L1894.15 122.983C1896 121.534 1897.24 119.455 1897.65 117.144C1898.06 114.832 1897.61 112.451 1896.37 110.456L1888.92 98.2599C1887.71 96.2388 1885.79 94.7352 1883.54 94.0374C1881.3 93.3397 1878.87 93.4968 1876.73 94.4788L1865.67 99.4724C1863.24 97.3985 1860.66 95.5195 1857.95 93.8529L1859.28 81.7852C1859.56 79.4515 1858.97 77.0975 1857.63 75.1681C1856.29 73.2388 1854.28 71.8677 1852 71.3142L1838.03 67.9413C1833.31 66.8014 1828.47 69.3759 1826.78 73.9185L1822.45 85.2851C1819.28 85.5254 1816.12 86.0199 1813.02 86.7638L1805.45 77.2725C1804 75.4277 1801.92 74.1817 1799.61 73.7724C1797.3 73.3631 1794.92 73.8192 1792.92 75.0535L1780.73 82.4998C1778.71 83.7091 1777.2 85.6229 1776.5 87.8739C1775.8 90.1249 1775.96 92.5545 1776.95 94.6962L1781.94 105.763C1779.86 108.181 1777.98 110.76 1776.32 113.477L1764.25 112.141C1759.42 111.569 1754.92 114.701 1753.78 119.422L1750.41 133.394C1749.27 138.116 1751.84 142.956 1756.39 144.646L1767.75 148.968C1768 152.177 1768.5 155.334 1769.23 158.395L1759.74 165.972C1757.89 167.421 1756.64 169.5 1756.24 171.812C1755.83 174.123 1756.28 176.505 1757.52 178.5L1764.97 190.695C1766.19 192.714 1768.1 194.214 1770.35 194.911C1772.6 195.607 1775.02 195.45 1777.16 194.47L1788.23 189.478C1790.62 191.533 1793.2 193.417 1795.95 195.096L1794.61 207.158C1794.04 212.002 1797.17 216.501 1801.89 217.641L1815.86 221.014C1820.58 222.154 1825.42 219.579 1827.11 215.037L1831.44 203.67C1834.61 203.425 1837.76 202.93 1840.86 202.19L1848.44 211.683C1851.51 215.525 1856.91 216.468 1860.97 213.902L1873.16 206.449C1875.18 205.24 1876.69 203.327 1877.39 201.077C1878.08 198.828 1877.93 196.4 1876.94 194.259L1871.95 183.192C1874.01 180.804 1875.89 178.222 1877.57 175.478L1889.63 176.813C1891.96 177.089 1894.32 176.5 1896.25 175.159C1898.18 173.817 1899.55 171.815 1900.1 169.531L1903.47 155.559C1904.03 153.278 1903.72 150.874 1902.62 148.801C1901.52 146.728 1899.7 145.13 1897.5 144.309ZM1819.42 175.665C1802.22 171.514 1791.61 154.146 1795.76 136.949C1799.91 119.752 1817.28 109.139 1834.47 113.29C1851.67 117.442 1862.28 134.81 1858.13 152.006C1853.98 169.203 1836.61 179.816 1819.42 175.665Z" fill="#023BE2" fill-opacity="0.04"/>
</g>
<g clip-path="url(#clip2_4262_11958)">
<path d="M29.2022 892.746L38.6408 892.544C39.7425 894.759 41.0171 896.883 42.4525 898.897L37.8289 907.115C36.9218 908.696 36.6296 910.556 37.0085 912.338C37.3873 914.121 38.4105 915.701 39.882 916.777L48.798 923.381C50.2571 924.483 52.0717 925.008 53.8938 924.855C55.7159 924.702 57.4173 923.881 58.6718 922.551L65.1763 915.735C67.5227 916.522 69.9277 917.122 72.3688 917.53L74.9235 926.603C75.4048 928.362 76.514 929.885 78.0415 930.882C79.5691 931.88 81.4092 932.283 83.2139 932.016L94.2509 930.373C97.9809 929.817 100.713 926.555 100.607 922.793L100.405 913.355C102.622 912.256 104.748 910.981 106.762 909.542L114.975 914.167C116.557 915.072 118.416 915.362 120.198 914.984C121.98 914.605 123.56 913.583 124.637 912.114L131.242 903.202C132.346 901.743 132.871 899.927 132.718 898.104C132.564 896.281 131.743 894.578 130.411 893.324L123.594 886.814C124.383 884.47 124.983 882.067 125.39 879.627L134.463 877.072C138.107 876.076 140.432 872.512 139.877 868.782L138.233 857.745C137.678 854.015 134.415 851.282 130.654 851.389L121.215 851.591C120.101 849.354 118.823 847.228 117.403 845.238L122.027 837.02C122.934 835.439 123.226 833.58 122.847 831.797C122.469 830.014 121.445 828.434 119.974 827.359L111.058 820.754C109.597 819.655 107.783 819.132 105.962 819.286C104.14 819.441 102.44 820.26 101.185 821.589L94.6754 828.406C92.3578 827.623 89.9512 827.019 87.4879 826.611L84.9338 817.542C83.9364 813.888 80.3719 811.564 76.642 812.119L65.605 813.762C61.875 814.318 59.1425 817.58 59.2494 821.342L59.4511 830.78C57.2368 831.882 55.1127 833.157 53.0986 834.592L44.8805 829.969C41.5547 828.097 37.3871 828.994 35.219 832.022L28.6142 840.938C27.5121 842.397 26.9874 844.211 27.1407 846.033C27.294 847.856 28.1145 849.557 29.4448 850.811L36.2615 857.321C35.4784 859.638 34.8748 862.045 34.466 864.508L25.3979 867.062C23.6381 867.544 22.1155 868.653 21.118 870.18C20.1205 871.708 19.7171 873.548 19.9842 875.353L21.6277 886.39C21.895 888.192 22.8133 889.834 24.2089 891.005C25.6046 892.176 27.3809 892.796 29.2022 892.746ZM76.2594 847.431C89.8438 845.409 102.541 854.815 104.564 868.399C106.587 881.983 97.1809 894.681 83.5965 896.704C70.0121 898.727 57.3145 889.321 55.2917 875.736C53.2689 862.152 62.675 849.454 76.2594 847.431Z" fill="#023BE2" fill-opacity="0.04"/>
</g>
<g clip-path="url(#clip3_4262_11958)">
<path d="M1831.13 294.078L1824.63 291.609C1824.49 289.794 1824.21 287.992 1823.78 286.222L1829.21 281.892C1830.26 281.064 1830.98 279.876 1831.21 278.555C1831.44 277.234 1831.18 275.874 1830.48 274.734L1826.22 267.765C1825.53 266.61 1824.43 265.75 1823.15 265.352C1821.86 264.953 1820.48 265.043 1819.25 265.604L1812.93 268.457C1811.55 267.272 1810.07 266.199 1808.52 265.246L1809.28 258.35C1809.44 257.017 1809.11 255.672 1808.34 254.569C1807.57 253.467 1806.43 252.683 1805.12 252.367L1797.14 250.44C1794.44 249.788 1791.68 251.259 1790.71 253.855L1788.24 260.35C1786.42 260.488 1784.62 260.77 1782.85 261.195L1778.52 255.772C1777.69 254.718 1776.51 254.006 1775.19 253.772C1773.87 253.538 1772.5 253.798 1771.36 254.504L1764.4 258.759C1763.24 259.45 1762.38 260.543 1761.98 261.83C1761.58 263.116 1761.67 264.504 1762.23 265.728L1765.09 272.052C1763.9 273.434 1762.83 274.908 1761.88 276.46L1754.98 275.697C1752.22 275.37 1749.65 277.159 1749 279.858L1747.07 287.841C1746.42 290.54 1747.89 293.305 1750.49 294.271L1756.98 296.741C1757.12 298.574 1757.41 300.378 1757.83 302.128L1752.4 306.457C1751.35 307.285 1750.63 308.473 1750.4 309.794C1750.17 311.115 1750.43 312.476 1751.13 313.616L1755.39 320.585C1756.09 321.738 1757.18 322.596 1758.46 322.994C1759.75 323.392 1761.14 323.302 1762.36 322.742L1768.68 319.889C1770.05 321.064 1771.52 322.14 1773.09 323.1L1772.33 329.992C1772 332.76 1773.79 335.331 1776.49 335.982L1784.47 337.91C1787.17 338.561 1789.94 337.09 1790.9 334.494L1793.37 327.999C1795.19 327.859 1796.99 327.576 1798.76 327.153L1803.09 332.578C1804.84 334.773 1807.93 335.312 1810.25 333.846L1817.22 329.587C1818.37 328.896 1819.23 327.803 1819.63 326.517C1820.03 325.232 1819.94 323.845 1819.38 322.621L1816.52 316.297C1817.7 314.932 1818.77 313.457 1819.73 311.889L1826.63 312.652C1827.96 312.81 1829.3 312.473 1830.41 311.707C1831.51 310.94 1832.29 309.796 1832.61 308.491L1834.54 300.507C1834.85 299.204 1834.68 297.83 1834.05 296.645C1833.42 295.461 1832.38 294.547 1831.13 294.078ZM1786.5 311.996C1776.68 309.624 1770.61 299.699 1772.98 289.873C1775.36 280.046 1785.28 273.981 1795.11 276.353C1804.93 278.726 1811 288.65 1808.63 298.477C1806.25 308.304 1796.33 314.368 1786.5 311.996Z" fill="#023BE2" fill-opacity="0.04"/>
</g>
<g clip-path="url(#clip4_4262_11958)">
<path d="M62.0944 765.634L67.4878 765.519C68.1174 766.784 68.8457 767.998 69.6659 769.149L67.0239 773.845C66.5055 774.748 66.3386 775.811 66.5551 776.83C66.7715 777.849 67.3562 778.752 68.1971 779.366L73.2919 783.14C74.1257 783.77 75.1626 784.07 76.2038 783.982C77.245 783.895 78.2172 783.426 78.9341 782.666L82.651 778.771C83.9918 779.22 85.366 779.563 86.7609 779.796L88.2208 784.981C88.4958 785.987 89.1296 786.857 90.0025 787.427C90.8754 787.997 91.9269 788.227 92.9582 788.074L99.265 787.135C101.396 786.818 102.958 784.954 102.897 782.804L102.782 777.411C104.049 776.783 105.264 776.054 106.414 775.232L111.108 777.875C112.011 778.392 113.074 778.558 114.092 778.342C115.11 778.125 116.013 777.541 116.628 776.701L120.403 771.609C121.034 770.775 121.334 769.738 121.246 768.696C121.158 767.654 120.689 766.681 119.928 765.964L116.033 762.245C116.483 760.905 116.826 759.532 117.059 758.138L122.243 756.678C124.326 756.109 125.654 754.072 125.337 751.94L124.398 745.633C124.08 743.502 122.216 741.941 120.067 742.002L114.673 742.117C114.037 740.839 113.306 739.624 112.495 738.487L115.137 733.791C115.655 732.888 115.822 731.825 115.606 730.806C115.389 729.788 114.805 728.884 113.964 728.27L108.869 724.496C108.034 723.868 106.998 723.569 105.957 723.657C104.916 723.745 103.944 724.214 103.227 724.973L99.5076 728.869C98.1833 728.421 96.808 728.076 95.4004 727.843L93.941 722.661C93.371 720.573 91.3342 719.244 89.2028 719.562L82.8959 720.501C80.7645 720.818 79.2031 722.683 79.2641 724.832L79.3794 730.225C78.1141 730.855 76.9003 731.583 75.7494 732.404L71.0534 729.761C69.1529 728.692 66.7714 729.205 65.5325 730.935L61.7583 736.03C61.1286 736.863 60.8288 737.9 60.9163 738.941C61.0039 739.983 61.4728 740.955 62.233 741.672L66.1282 745.391C65.6808 746.716 65.3358 748.091 65.1022 749.499L59.9204 750.958C58.9148 751.233 58.0448 751.867 57.4748 752.74C56.9048 753.613 56.6743 754.664 56.8269 755.695L57.766 762.002C57.9188 763.032 58.4435 763.97 59.241 764.64C60.0386 765.309 61.0536 765.663 62.0944 765.634ZM88.9842 739.74C96.7467 738.584 104.002 743.959 105.158 751.722C106.314 759.484 100.939 766.74 93.1768 767.896C85.4143 769.052 78.1585 763.677 77.0026 755.914C75.8467 748.152 81.2217 740.896 88.9842 739.74Z" fill="#023BE2" fill-opacity="0.04"/>
</g>
<g clip-path="url(#clip5_4262_11958)">
<path d="M1730.11 89.1365L1719.18 84.9833C1718.95 81.9307 1718.47 78.9014 1717.76 75.9235L1726.88 68.6418C1728.66 67.2495 1729.86 65.2512 1730.25 63.0297C1730.64 60.8082 1730.2 58.5196 1729.01 56.6022L1721.85 44.8818C1720.69 42.9394 1718.85 41.4944 1716.69 40.8238C1714.53 40.1533 1712.19 40.3043 1710.14 41.248L1699.51 46.047C1697.18 44.0539 1694.7 42.2481 1692.09 40.6464L1693.37 29.049C1693.64 26.8062 1693.07 24.5439 1691.78 22.6897C1690.49 20.8355 1688.57 19.5179 1686.37 18.9859L1672.95 15.7444C1668.41 14.6489 1663.76 17.1231 1662.13 21.4887L1657.98 32.4125C1654.92 32.6434 1651.89 33.1187 1648.91 33.8336L1641.64 24.712C1640.24 22.9391 1638.25 21.7417 1636.03 21.3484C1633.8 20.955 1631.52 21.3933 1629.6 22.5796L1617.88 29.7357C1615.94 30.8979 1614.49 32.7371 1613.82 34.9004C1613.15 37.0638 1613.3 39.3986 1614.24 41.4569L1619.04 52.0927C1617.05 54.4163 1615.24 56.8952 1613.64 59.5057L1602.05 58.2222C1597.4 57.6721 1593.08 60.682 1591.98 65.2199L1588.74 78.6475C1587.65 83.1853 1590.12 87.8363 1594.49 89.4611L1605.41 93.6143C1605.65 96.698 1606.13 99.7318 1606.83 102.674L1597.71 109.956C1595.93 111.348 1594.73 113.346 1594.34 115.568C1593.95 117.789 1594.39 120.078 1595.58 121.995L1602.74 133.716C1603.9 135.655 1605.74 137.098 1607.9 137.767C1610.07 138.436 1612.4 138.285 1614.45 137.344L1625.09 132.546C1627.39 134.521 1629.87 136.332 1632.5 137.945L1631.22 149.537C1630.67 154.193 1633.68 158.516 1638.22 159.612L1651.64 162.853C1656.18 163.949 1660.83 161.474 1662.46 157.109L1666.61 146.185C1669.66 145.95 1672.69 145.474 1675.67 144.763L1682.95 153.886C1685.9 157.578 1691.1 158.485 1694.99 156.018L1706.71 148.856C1708.65 147.694 1710.1 145.855 1710.77 143.693C1711.44 141.531 1711.29 139.198 1710.35 137.141L1705.55 126.505C1707.52 124.209 1709.33 121.728 1710.95 119.092L1722.54 120.374C1724.78 120.639 1727.04 120.074 1728.9 118.784C1730.75 117.495 1732.07 115.571 1732.6 113.376L1735.84 99.9487C1736.37 97.7565 1736.08 95.446 1735.03 93.4538C1733.97 91.4616 1732.22 89.9257 1730.11 89.1365ZM1655.06 119.271C1638.53 115.282 1628.33 98.5901 1632.32 82.0633C1636.31 65.5366 1653 55.3368 1669.53 59.3264C1686.06 63.3161 1696.26 80.0075 1692.27 96.5343C1688.28 113.061 1671.59 123.261 1655.06 119.271Z" fill="#023BE2" fill-opacity="0.04"/>
</g>
<g clip-path="url(#clip6_4262_11958)">
<path d="M174.069 867.333L182.061 867.162C182.993 869.037 184.073 870.835 185.288 872.541L181.373 879.499C180.605 880.838 180.358 882.412 180.678 883.922C180.999 885.431 181.866 886.769 183.112 887.68L190.661 893.272C191.896 894.206 193.433 894.65 194.976 894.52C196.519 894.39 197.959 893.696 199.021 892.569L204.529 886.798C206.516 887.464 208.552 887.972 210.619 888.318L212.782 896C213.19 897.49 214.129 898.779 215.422 899.624C216.716 900.468 218.274 900.81 219.802 900.584L229.147 899.192C232.305 898.722 234.619 895.959 234.529 892.774L234.358 884.783C236.236 883.852 238.036 882.772 239.741 881.554L246.695 885.47C248.034 886.236 249.608 886.483 251.117 886.162C252.626 885.841 253.964 884.976 254.876 883.732L260.469 876.186C261.403 874.95 261.848 873.413 261.718 871.869C261.588 870.326 260.893 868.884 259.765 867.822L253.993 862.31C254.661 860.325 255.169 858.29 255.513 856.224L263.196 854.061C266.282 853.218 268.25 850.199 267.78 847.041L266.388 837.696C265.918 834.538 263.155 832.224 259.97 832.314L251.979 832.485C251.036 830.591 249.953 828.791 248.751 827.106L252.666 820.148C253.434 818.809 253.681 817.235 253.361 815.725C253.04 814.216 252.174 812.878 250.928 811.967L243.378 806.375C242.142 805.444 240.605 805.002 239.063 805.132C237.521 805.263 236.081 805.957 235.018 807.082L229.507 812.854C227.544 812.191 225.507 811.68 223.421 811.334L221.258 803.656C220.414 800.562 217.395 798.593 214.237 799.063L204.892 800.455C201.734 800.925 199.42 803.688 199.51 806.873L199.681 814.865C197.806 815.797 196.008 816.877 194.302 818.092L187.344 814.177C184.528 812.592 180.999 813.352 179.163 815.916L173.571 823.465C172.638 824.7 172.193 826.237 172.323 827.78C172.453 829.323 173.148 830.763 174.274 831.825L180.046 837.337C179.383 839.299 178.872 841.337 178.526 843.423L170.847 845.586C169.357 845.993 168.068 846.932 167.223 848.226C166.379 849.519 166.037 851.077 166.263 852.605L167.655 861.951C167.881 863.477 168.659 864.867 169.841 865.859C171.022 866.85 172.526 867.375 174.069 867.333ZM213.913 828.963C225.416 827.251 236.167 835.215 237.88 846.717C239.593 858.22 231.628 868.971 220.126 870.684C208.624 872.397 197.872 864.432 196.159 852.93C194.447 841.428 202.411 830.676 213.913 828.963Z" fill="#023BE2" fill-opacity="0.04"/>
</g>
</g>
<defs>
<linearGradient id="paint0_linear_4262_11958" x1="33.2075" y1="505.905" x2="1919.69" y2="530.265" gradientUnits="userSpaceOnUse">
<stop stop-color="#023BE2"/>
<stop offset="1" stop-color="#00A1C5"/>
</linearGradient>
<clipPath id="clip0_4262_11958">
<rect width="1920" height="960" fill="white"/>
</clipPath>
<clipPath id="clip1_4262_11958">
<rect width="154" height="154" fill="white" transform="translate(1770.16 51.5586) rotate(13.5718)"/>
</clipPath>
<clipPath id="clip2_4262_11958">
<rect width="119.558" height="119.558" fill="white" transform="translate(147.859 922.39) rotate(171.53)"/>
</clipPath>
<clipPath id="clip3_4262_11958">
<rect width="88" height="88" fill="white" transform="translate(1758.36 241.078) rotate(13.5718)"/>
</clipPath>
<clipPath id="clip4_4262_11958">
<rect width="68.3187" height="68.3187" fill="white" transform="translate(129.898 782.574) rotate(171.53)"/>
</clipPath>
<clipPath id="clip5_4262_11958">
<rect width="148" height="148" fill="white" transform="translate(1607.73) rotate(13.5718)"/>
</clipPath>
<clipPath id="clip6_4262_11958">
<rect width="101.233" height="101.233" fill="white" transform="translate(274.539 892.433) rotate(171.53)"/>
</clipPath>
</defs>
</svg>
