<svg width="34" height="34" viewBox="0 0 34 34" fill="none" xmlns="http://www.w3.org/2000/svg">
<path d="M17.5312 4.25H14.3438C14.2029 4.25 14.0677 4.19403 13.9681 4.0944C13.8685 3.99477 13.8125 3.85965 13.8125 3.71875C13.8125 3.57785 13.8685 3.44273 13.9681 3.3431C14.0677 3.24347 14.2029 3.1875 14.3438 3.1875H17.5312C17.6721 3.1875 17.8073 3.24347 17.9069 3.3431C18.0065 3.44273 18.0625 3.57785 18.0625 3.71875C18.0625 3.85965 18.0065 3.99477 17.9069 4.0944C17.8073 4.19403 17.6721 4.25 17.5312 4.25ZM21.7812 32.9375H10.0938C9.38953 32.9367 8.71439 32.6565 8.21643 32.1586C7.71847 31.6606 7.43834 30.9855 7.4375 30.2812V22.8438C7.4375 22.7029 7.49347 22.5677 7.5931 22.4681C7.69273 22.3685 7.82785 22.3125 7.96875 22.3125C8.10965 22.3125 8.24477 22.3685 8.3444 22.4681C8.44403 22.5677 8.5 22.7029 8.5 22.8438V30.2812C8.5 31.1599 9.21506 31.875 10.0938 31.875H21.7812C22.6599 31.875 23.375 31.1599 23.375 30.2812V12.2188C23.375 12.0779 23.431 11.9427 23.5306 11.8431C23.6302 11.7435 23.7654 11.6875 23.9062 11.6875C24.0471 11.6875 24.1823 11.7435 24.2819 11.8431C24.3815 11.9427 24.4375 12.0779 24.4375 12.2188V30.2812C24.4375 31.7454 23.2464 32.9375 21.7812 32.9375Z" fill="#023BE2"/>
<path d="M23.905 5.3125C23.7641 5.3125 23.629 5.25653 23.5294 5.1569C23.4297 5.05727 23.3738 4.92215 23.3738 4.78125V3.71875C23.3738 2.84006 22.6587 2.125 21.78 2.125H10.0925C9.21383 2.125 8.49877 2.84006 8.49877 3.71875V4.78125C8.49877 4.92215 8.4428 5.05727 8.34317 5.1569C8.24354 5.25653 8.10842 5.3125 7.96752 5.3125C7.82662 5.3125 7.6915 5.25653 7.59187 5.1569C7.49224 5.05727 7.43627 4.92215 7.43627 4.78125V3.71875C7.43627 2.25462 8.62733 1.0625 10.0925 1.0625H21.78C23.2452 1.0625 24.4363 2.25462 24.4363 3.71875V4.78125C24.4363 4.92215 24.3803 5.05727 24.2807 5.1569C24.181 5.25653 24.0459 5.3125 23.905 5.3125ZM15.405 26.5625H11.155C11.0141 26.5625 10.879 26.5065 10.7794 26.4069C10.6797 26.3073 10.6238 26.1721 10.6238 26.0312C10.6238 25.8904 10.6797 25.7552 10.7794 25.6556C10.879 25.556 11.0141 25.5 11.155 25.5H15.405C15.5459 25.5 15.681 25.556 15.7807 25.6556C15.8803 25.7552 15.9363 25.8904 15.9363 26.0312C15.9363 26.1721 15.8803 26.3073 15.7807 26.4069C15.681 26.5065 15.5459 26.5625 15.405 26.5625ZM18.5925 28.6875H11.155C11.0141 28.6875 10.879 28.6315 10.7794 28.5319C10.6797 28.4323 10.6238 28.2971 10.6238 28.1562C10.6238 28.0154 10.6797 27.8802 10.7794 27.7806C10.879 27.681 11.0141 27.625 11.155 27.625H18.5925C18.7334 27.625 18.8685 27.681 18.9682 27.7806C19.0678 27.8802 19.1238 28.0154 19.1238 28.1562C19.1238 28.2971 19.0678 28.4323 18.9682 28.5319C18.8685 28.6315 18.7334 28.6875 18.5925 28.6875ZM20.7175 24.4375H11.155C11.0141 24.4375 10.879 24.3815 10.7794 24.2819C10.6797 24.1823 10.6238 24.0471 10.6238 23.9062C10.6238 23.7654 10.6797 23.6302 10.7794 23.5306C10.879 23.431 11.0141 23.375 11.155 23.375H20.7175C20.8584 23.375 20.9935 23.431 21.0932 23.5306C21.1928 23.6302 21.2488 23.7654 21.2488 23.9062C21.2488 24.0471 21.1928 24.1823 21.0932 24.2819C20.9935 24.3815 20.8584 24.4375 20.7175 24.4375ZM9.56127 14.875C8.09608 14.875 6.90502 13.6829 6.90502 12.2188C6.90502 10.7546 8.09608 9.5625 9.56127 9.5625C11.0265 9.5625 12.2175 10.7546 12.2175 12.2188C12.2175 13.6829 11.0265 14.875 9.56127 14.875ZM9.56127 10.625C8.68258 10.625 7.96752 11.3401 7.96752 12.2188C7.96752 13.0974 8.68258 13.8125 9.56127 13.8125C10.44 13.8125 11.155 13.0974 11.155 12.2188C11.155 11.3401 10.44 10.625 9.56127 10.625ZM9.56127 21.25C7.69364 21.2481 5.8955 20.5416 4.52608 19.2716C4.45632 19.2071 4.40513 19.1251 4.37785 19.0341C4.35056 18.9431 4.34818 18.8464 4.37096 18.7542C4.56778 17.9494 5.02941 17.2341 5.68168 16.7233C6.33396 16.2125 7.13902 15.9357 7.96752 15.9375H11.155C11.9834 15.936 12.7883 16.2127 13.4407 16.7232C14.0931 17.2338 14.5551 17.9486 14.7526 18.7531C14.7754 18.8454 14.773 18.942 14.7458 19.033C14.7185 19.124 14.6673 19.2061 14.5975 19.2706C13.228 20.5411 11.4294 21.248 9.56127 21.25ZM5.49508 18.7074C7.79221 20.621 11.3303 20.621 13.6275 18.7074C13.4384 18.2048 13.1003 17.7719 12.6585 17.4668C12.2166 17.1616 11.692 16.9988 11.155 17H7.96752C7.43052 16.9988 6.90596 17.1616 6.46408 17.4668C6.02221 17.7719 5.68412 18.2048 5.49508 18.7074Z" fill="#023BE2"/>
<path d="M9.5625 21.25C5.46231 21.25 2.125 17.9137 2.125 13.8125C2.125 9.71125 5.46231 6.375 9.5625 6.375C13.6627 6.375 17 9.71125 17 13.8125C17 17.9137 13.6627 21.25 9.5625 21.25ZM9.5625 7.4375C6.04669 7.4375 3.1875 10.2967 3.1875 13.8125C3.1875 17.3283 6.04669 20.1875 9.5625 20.1875C13.0783 20.1875 15.9375 17.3283 15.9375 13.8125C15.9375 10.2967 13.0783 7.4375 9.5625 7.4375ZM4.78125 24.3844C4.488 24.3844 4.25 24.1995 4.25 23.9062V23.8C4.25 23.6591 4.30597 23.524 4.4056 23.4243C4.50523 23.3247 4.64035 23.2687 4.78125 23.2687C4.92215 23.2687 5.05727 23.3247 5.1569 23.4243C5.25653 23.524 5.3125 23.6591 5.3125 23.8C5.3125 24.0933 5.0745 24.3844 4.78125 24.3844ZM4.78125 26.5094C4.488 26.5094 4.25 26.3245 4.25 26.0312V25.925C4.25 25.7841 4.30597 25.649 4.4056 25.5493C4.50523 25.4497 4.64035 25.3937 4.78125 25.3937C4.92215 25.3937 5.05727 25.4497 5.1569 25.5493C5.25653 25.649 5.3125 25.7841 5.3125 25.925C5.3125 26.2183 5.0745 26.5094 4.78125 26.5094ZM4.78125 28.6344C4.488 28.6344 4.25 28.4495 4.25 28.1562V28.05C4.25 27.9091 4.30597 27.774 4.4056 27.6743C4.50523 27.5747 4.64035 27.5187 4.78125 27.5187C4.92215 27.5187 5.05727 27.5747 5.1569 27.6743C5.25653 27.774 5.3125 27.9091 5.3125 28.05C5.3125 28.3433 5.0745 28.6344 4.78125 28.6344ZM25.8613 28.6875H24.9688C24.8279 28.6875 24.6927 28.6315 24.5931 28.5319C24.4935 28.4323 24.4375 28.2971 24.4375 28.1562C24.4375 28.0154 24.4935 27.8802 24.5931 27.7806C24.6927 27.681 24.8279 27.625 24.9688 27.625H25.4331L25.6934 26.4191C25.7143 26.3214 25.7624 26.2317 25.8322 26.1603C25.9019 26.0888 25.9905 26.0386 26.0876 26.0153C26.6002 25.8896 27.0902 25.6849 27.54 25.4086C27.6248 25.3569 27.7224 25.3299 27.8218 25.3309C27.9211 25.3318 28.0182 25.3606 28.1021 25.4139L29.1539 26.0865L29.8053 25.4299L29.1327 24.3865C29.0787 24.3026 29.0494 24.2052 29.0481 24.1055C29.0468 24.0057 29.0735 23.9076 29.1253 23.8223C29.4017 23.3727 29.606 22.8827 29.7309 22.3699C29.7542 22.2731 29.8043 22.1847 29.8752 22.1149C29.9462 22.045 30.0353 21.9964 30.1325 21.9746L31.3427 21.7058V20.7953L30.1325 20.5264C30.0353 20.5046 29.9462 20.456 29.8752 20.3862C29.8043 20.3163 29.7542 20.228 29.7309 20.1312C29.6056 19.6186 29.4012 19.1286 29.1253 18.6788C29.0731 18.5938 29.046 18.4959 29.0471 18.3963C29.0482 18.2966 29.0775 18.1993 29.1316 18.1156L29.8053 17.0627L29.155 16.4124L28.1021 17.0861C28.0183 17.1397 27.9212 17.1686 27.8218 17.1695C27.7224 17.1705 27.6247 17.1434 27.54 17.0914C27.0901 16.8154 26.6001 16.6108 26.0876 16.4847C25.9905 16.4614 25.9019 16.4112 25.8322 16.3397C25.7624 16.2683 25.7143 16.1786 25.6934 16.0809L25.4331 14.875H24.9688C24.8279 14.875 24.6927 14.819 24.5931 14.7194C24.4935 14.6198 24.4375 14.4846 24.4375 14.3438C24.4375 14.2029 24.4935 14.0677 24.5931 13.9681C24.6927 13.8685 24.8279 13.8125 24.9688 13.8125H25.8613C25.9826 13.8127 26.1003 13.8545 26.1946 13.9308C26.2889 14.0072 26.3543 14.1135 26.3798 14.2322L26.6634 15.5423C27.0523 15.6602 27.4338 15.8196 27.8014 16.0183L28.9425 15.2883C29.0445 15.2231 29.1658 15.1947 29.2862 15.2079C29.4066 15.221 29.5189 15.2749 29.6044 15.3606L30.8593 16.6143C30.9448 16.7 30.9985 16.8124 31.0114 16.9327C31.0243 17.0531 30.9958 17.1743 30.9304 17.2762L30.2005 18.4174C30.3992 18.7861 30.5586 19.1675 30.6765 19.5574L31.9887 19.8486C32.1068 19.8747 32.2124 19.9403 32.2881 20.0346C32.3638 20.1288 32.4051 20.2461 32.4052 20.3671V22.1308C32.4051 22.2517 32.3638 22.369 32.2881 22.4633C32.2124 22.5576 32.1068 22.6232 31.9887 22.6493L30.6765 22.9404C30.5566 23.3352 30.3971 23.7168 30.2005 24.0794L30.9294 25.2099C30.9954 25.3115 31.0245 25.4326 31.0119 25.5531C30.9994 25.6736 30.9459 25.7861 30.8603 25.8719L29.6055 27.1363C29.52 27.2224 29.4076 27.2766 29.2869 27.2899C29.1663 27.3033 29.0448 27.2749 28.9425 27.2096L27.8014 26.4796C27.4389 26.6759 27.0577 26.8353 26.6634 26.9556L26.3798 28.2657C26.3547 28.3847 26.2895 28.4916 26.1952 28.5684C26.1008 28.6451 25.9829 28.6872 25.8613 28.6875Z" fill="#023BE2"/>
<path d="M26.0876 24.191C25.9667 24.1908 25.8496 24.1495 25.7554 24.0738C25.6612 23.9981 25.5957 23.8926 25.5696 23.7746C25.5434 23.6566 25.5583 23.5333 25.6117 23.4249C25.6651 23.3165 25.7539 23.2296 25.8634 23.1784C26.2302 23.0068 26.5407 22.7343 26.7585 22.3928C26.9764 22.0514 27.0926 21.655 27.0938 21.25C27.0932 20.8996 27.0062 20.5547 26.8403 20.2461C26.6744 19.9374 26.4348 19.6745 26.1429 19.4808C25.8509 19.287 25.5156 19.1684 25.1667 19.1354C24.8179 19.1024 24.4663 19.1562 24.1432 19.2918C24.0785 19.3222 24.0083 19.3393 23.9369 19.342C23.8654 19.3446 23.7942 19.3329 23.7274 19.3073C23.6606 19.2818 23.5997 19.2431 23.5482 19.1934C23.4967 19.1438 23.4558 19.0843 23.4279 19.0184C23.4 18.9526 23.3857 18.8818 23.3858 18.8103C23.3859 18.7388 23.4004 18.6681 23.4285 18.6023C23.4566 18.5366 23.4977 18.4772 23.5493 18.4277C23.6009 18.3782 23.662 18.3396 23.7288 18.3143C24.2134 18.1108 24.7408 18.0302 25.264 18.0795C25.7873 18.1288 26.2903 18.3066 26.7283 18.597C27.1664 18.8875 27.5259 19.2816 27.775 19.7444C28.0241 20.2072 28.1551 20.7244 28.1562 21.25C28.1549 21.8573 27.9807 22.4516 27.6541 22.9636C27.3275 23.4755 26.8619 23.8839 26.3117 24.1411C26.2416 24.1739 26.165 24.191 26.0876 24.191ZM27.625 10.625H21.25C20.0781 10.625 19.125 9.67194 19.125 8.5C19.125 7.32806 20.0781 6.375 21.25 6.375H27.625C28.7969 6.375 29.75 7.32806 29.75 8.5C29.75 9.67194 28.7969 10.625 27.625 10.625ZM21.25 7.4375C20.9764 7.44974 20.7181 7.56703 20.5289 7.76494C20.3396 7.96286 20.234 8.22615 20.234 8.5C20.234 8.77385 20.3396 9.03714 20.5289 9.23506C20.7181 9.43297 20.9764 9.55026 21.25 9.5625H27.625C27.8986 9.55026 28.1569 9.43297 28.3461 9.23506C28.5354 9.03714 28.641 8.77385 28.641 8.5C28.641 8.22615 28.5354 7.96286 28.3461 7.76494C28.1569 7.56703 27.8986 7.44974 27.625 7.4375H21.25Z" fill="#023BE2"/>
</svg>
