<svg width="50" height="50" viewBox="0 0 50 50" fill="none" xmlns="http://www.w3.org/2000/svg">
<path d="M25.7812 6.25H21.0938C20.8865 6.25 20.6878 6.16769 20.5413 6.02118C20.3948 5.87466 20.3125 5.67595 20.3125 5.46875C20.3125 5.26155 20.3948 5.06284 20.5413 4.91632C20.6878 4.76981 20.8865 4.6875 21.0938 4.6875H25.7812C25.9885 4.6875 26.1872 4.76981 26.3337 4.91632C26.4802 5.06284 26.5625 5.26155 26.5625 5.46875C26.5625 5.67595 26.4802 5.87466 26.3337 6.02118C26.1872 6.16769 25.9885 6.25 25.7812 6.25ZM32.0312 48.4375H14.8438C13.8081 48.4363 12.8153 48.0243 12.083 47.292C11.3507 46.5597 10.9387 45.5669 10.9375 44.5312V33.5938C10.9375 33.3865 11.0198 33.1878 11.1663 33.0413C11.3128 32.8948 11.5115 32.8125 11.7188 32.8125C11.926 32.8125 12.1247 32.8948 12.2712 33.0413C12.4177 33.1878 12.5 33.3865 12.5 33.5938V44.5312C12.5 45.8234 13.5516 46.875 14.8438 46.875H32.0312C33.3234 46.875 34.375 45.8234 34.375 44.5312V17.9688C34.375 17.7615 34.4573 17.5628 34.6038 17.4163C34.7503 17.2698 34.949 17.1875 35.1562 17.1875C35.3635 17.1875 35.5622 17.2698 35.7087 17.4163C35.8552 17.5628 35.9375 17.7615 35.9375 17.9688V44.5312C35.9375 46.6844 34.1859 48.4375 32.0312 48.4375Z" fill="white"/>
<path d="M35.1556 7.8125C34.9484 7.8125 34.7497 7.73019 34.6032 7.58368C34.4566 7.43716 34.3743 7.23845 34.3743 7.03125V5.46875C34.3743 4.17656 33.3228 3.125 32.0306 3.125H14.8431C13.5509 3.125 12.4993 4.17656 12.4993 5.46875V7.03125C12.4993 7.23845 12.417 7.43716 12.2705 7.58368C12.124 7.73019 11.9253 7.8125 11.7181 7.8125C11.5109 7.8125 11.3122 7.73019 11.1657 7.58368C11.0192 7.43716 10.9368 7.23845 10.9368 7.03125V5.46875C10.9368 3.31562 12.6884 1.5625 14.8431 1.5625H32.0306C34.1853 1.5625 35.9368 3.31562 35.9368 5.46875V7.03125C35.9368 7.23845 35.8545 7.43716 35.708 7.58368C35.5615 7.73019 35.3628 7.8125 35.1556 7.8125ZM22.6556 39.0625H16.4056C16.1984 39.0625 15.9997 38.9802 15.8532 38.8337C15.7067 38.6872 15.6243 38.4884 15.6243 38.2812C15.6243 38.0741 15.7067 37.8753 15.8532 37.7288C15.9997 37.5823 16.1984 37.5 16.4056 37.5H22.6556C22.8628 37.5 23.0615 37.5823 23.208 37.7288C23.3545 37.8753 23.4368 38.0741 23.4368 38.2812C23.4368 38.4884 23.3545 38.6872 23.208 38.8337C23.0615 38.9802 22.8628 39.0625 22.6556 39.0625ZM27.3431 42.1875H16.4056C16.1984 42.1875 15.9997 42.1052 15.8532 41.9587C15.7067 41.8122 15.6243 41.6134 15.6243 41.4062C15.6243 41.1991 15.7067 41.0003 15.8532 40.8538C15.9997 40.7073 16.1984 40.625 16.4056 40.625H27.3431C27.5503 40.625 27.749 40.7073 27.8955 40.8538C28.042 41.0003 28.1243 41.1991 28.1243 41.4062C28.1243 41.6134 28.042 41.8122 27.8955 41.9587C27.749 42.1052 27.5503 42.1875 27.3431 42.1875ZM30.4681 35.9375H16.4056C16.1984 35.9375 15.9997 35.8552 15.8532 35.7087C15.7067 35.5622 15.6243 35.3634 15.6243 35.1562C15.6243 34.9491 15.7067 34.7503 15.8532 34.6038C15.9997 34.4573 16.1984 34.375 16.4056 34.375H30.4681C30.6753 34.375 30.874 34.4573 31.0205 34.6038C31.167 34.7503 31.2493 34.9491 31.2493 35.1562C31.2493 35.3634 31.167 35.5622 31.0205 35.7087C30.874 35.8552 30.6753 35.9375 30.4681 35.9375ZM14.0618 21.875C11.9072 21.875 10.1556 20.1219 10.1556 17.9688C10.1556 15.8156 11.9072 14.0625 14.0618 14.0625C16.2165 14.0625 17.9681 15.8156 17.9681 17.9688C17.9681 20.1219 16.2165 21.875 14.0618 21.875ZM14.0618 15.625C12.7697 15.625 11.7181 16.6766 11.7181 17.9688C11.7181 19.2609 12.7697 20.3125 14.0618 20.3125C15.354 20.3125 16.4056 19.2609 16.4056 17.9688C16.4056 16.6766 15.354 15.625 14.0618 15.625ZM14.0618 31.25C11.3153 31.2472 8.671 30.2082 6.65715 28.3406C6.55456 28.2458 6.47928 28.1252 6.43916 27.9913C6.39903 27.8575 6.39554 27.7153 6.42903 27.5797C6.71847 26.3962 7.39733 25.3443 8.35657 24.5931C9.3158 23.8418 10.4997 23.4349 11.7181 23.4375H16.4056C17.6238 23.4352 18.8075 23.8422 19.7669 24.593C20.7262 25.3438 21.4057 26.395 21.6962 27.5781C21.7297 27.7138 21.7262 27.8559 21.6861 27.9898C21.646 28.1236 21.5707 28.2442 21.4681 28.3391C19.4541 30.2076 16.8091 31.2471 14.0618 31.25ZM8.08215 27.5109C11.4603 30.325 16.6634 30.325 20.0415 27.5109C19.7635 26.7718 19.2663 26.1352 18.6165 25.6864C17.9667 25.2377 17.1953 24.9982 16.4056 25H11.7181C10.9284 24.9982 10.157 25.2377 9.50715 25.6864C8.85734 26.1352 8.36014 26.7718 8.08215 27.5109Z" fill="white"/>
<path d="M14.0625 31.25C8.03281 31.25 3.125 26.3438 3.125 20.3125C3.125 14.2812 8.03281 9.375 14.0625 9.375C20.0922 9.375 25 14.2812 25 20.3125C25 26.3438 20.0922 31.25 14.0625 31.25ZM14.0625 10.9375C8.89219 10.9375 4.6875 15.1422 4.6875 20.3125C4.6875 25.4828 8.89219 29.6875 14.0625 29.6875C19.2328 29.6875 23.4375 25.4828 23.4375 20.3125C23.4375 15.1422 19.2328 10.9375 14.0625 10.9375ZM7.03125 35.8594C6.6 35.8594 6.25 35.5875 6.25 35.1562V35C6.25 34.7928 6.33231 34.5941 6.47882 34.4476C6.62534 34.3011 6.82405 34.2188 7.03125 34.2188C7.23845 34.2188 7.43716 34.3011 7.58368 34.4476C7.73019 34.5941 7.8125 34.7928 7.8125 35C7.8125 35.4312 7.4625 35.8594 7.03125 35.8594ZM7.03125 38.9844C6.6 38.9844 6.25 38.7125 6.25 38.2812V38.125C6.25 37.9178 6.33231 37.7191 6.47882 37.5726C6.62534 37.4261 6.82405 37.3438 7.03125 37.3438C7.23845 37.3438 7.43716 37.4261 7.58368 37.5726C7.73019 37.7191 7.8125 37.9178 7.8125 38.125C7.8125 38.5562 7.4625 38.9844 7.03125 38.9844ZM7.03125 42.1094C6.6 42.1094 6.25 41.8375 6.25 41.4062V41.25C6.25 41.0428 6.33231 40.8441 6.47882 40.6976C6.62534 40.5511 6.82405 40.4688 7.03125 40.4688C7.23845 40.4688 7.43716 40.5511 7.58368 40.6976C7.73019 40.8441 7.8125 41.0428 7.8125 41.25C7.8125 41.6812 7.4625 42.1094 7.03125 42.1094ZM38.0313 42.1875H36.7188C36.5116 42.1875 36.3128 42.1052 36.1663 41.9587C36.0198 41.8122 35.9375 41.6134 35.9375 41.4062C35.9375 41.199 36.0198 41.0003 36.1663 40.8538C36.3128 40.7073 36.5116 40.625 36.7188 40.625H37.4016L37.7844 38.8516C37.8151 38.708 37.8859 38.576 37.9885 38.471C38.091 38.3659 38.2213 38.292 38.3641 38.2578C39.118 38.073 39.8386 37.772 40.5 37.3656C40.6247 37.2895 40.7683 37.2499 40.9144 37.2513C41.0605 37.2526 41.2033 37.295 41.3266 37.3734L42.8734 38.3625L43.8313 37.3969L42.8422 35.8625C42.7628 35.7391 42.7197 35.5959 42.7178 35.4492C42.7158 35.3025 42.7551 35.1582 42.8313 35.0328C43.2378 34.3717 43.5383 33.651 43.7219 32.8969C43.7562 32.7545 43.8298 32.6246 43.9342 32.5219C44.0386 32.4192 44.1696 32.3477 44.3125 32.3156L46.0922 31.9203V30.5813L44.3125 30.1859C44.1696 30.1539 44.0386 30.0824 43.9342 29.9797C43.8298 29.8769 43.7562 29.7471 43.7219 29.6047C43.5376 28.8508 43.2371 28.1302 42.8313 27.4688C42.7545 27.3439 42.7147 27.1999 42.7163 27.0533C42.718 26.9068 42.7611 26.7637 42.8406 26.6406L43.8313 25.0922L42.875 24.1359L41.3266 25.1266C41.2034 25.2054 41.0606 25.2479 40.9144 25.2493C40.7682 25.2507 40.6246 25.2109 40.5 25.1344C39.8383 24.7286 39.1178 24.4276 38.3641 24.2422C38.2213 24.208 38.091 24.1341 37.9885 24.029C37.8859 23.924 37.8151 23.792 37.7844 23.6484L37.4016 21.875H36.7188C36.5116 21.875 36.3128 21.7927 36.1663 21.6462C36.0198 21.4997 35.9375 21.301 35.9375 21.0938C35.9375 20.8865 36.0198 20.6878 36.1663 20.5413C36.3128 20.3948 36.5116 20.3125 36.7188 20.3125H38.0313C38.2097 20.3128 38.3827 20.3742 38.5215 20.4865C38.6602 20.5988 38.7563 20.7552 38.7938 20.9297L39.2109 22.8563C39.7828 23.0297 40.3438 23.2641 40.8844 23.5563L42.5625 22.4828C42.7126 22.3869 42.8909 22.3452 43.0679 22.3645C43.245 22.3838 43.4101 22.4631 43.5359 22.5891L45.3813 24.4328C45.507 24.5589 45.586 24.7241 45.605 24.9011C45.624 25.0781 45.582 25.2564 45.4859 25.4062L44.4125 27.0844C44.7047 27.6266 44.9391 28.1875 45.1125 28.7609L47.0422 29.1891C47.2158 29.2275 47.3712 29.324 47.4825 29.4626C47.5939 29.6012 47.6546 29.7737 47.6547 29.9516V32.5453C47.6546 32.7231 47.5939 32.8956 47.4825 33.0343C47.3712 33.1729 47.2158 33.2694 47.0422 33.3078L45.1125 33.7359C44.9362 34.3164 44.7016 34.8776 44.4125 35.4109L45.4844 37.0734C45.5814 37.2228 45.6243 37.401 45.6058 37.5781C45.5873 37.7553 45.5086 37.9208 45.3828 38.0469L43.5375 39.9063C43.4117 40.0329 43.2464 40.1126 43.069 40.1323C42.8916 40.1519 42.7129 40.1102 42.5625 40.0141L40.8844 38.9406C40.3513 39.2292 39.7907 39.4637 39.2109 39.6406L38.7938 41.5672C38.7569 41.7423 38.6611 41.8994 38.5223 42.0123C38.3835 42.1252 38.2102 42.187 38.0313 42.1875Z" fill="white"/>
<path d="M38.3641 35.575C38.1864 35.5748 38.0141 35.514 37.8756 35.4027C37.7371 35.2913 37.6407 35.1361 37.6023 34.9626C37.5639 34.7891 37.5857 34.6077 37.6643 34.4484C37.7429 34.289 37.8734 34.1611 38.0344 34.0859C38.5738 33.8335 39.0304 33.4328 39.3508 32.9306C39.6711 32.4285 39.8421 31.8456 39.8438 31.25C39.843 30.7347 39.715 30.2275 39.471 29.7736C39.2271 29.3197 38.8747 28.9331 38.4454 28.6482C38.016 28.3632 37.5229 28.1888 37.0099 28.1403C36.4969 28.0918 35.9798 28.1708 35.5047 28.3703C35.4095 28.4151 35.3064 28.4402 35.2013 28.4441C35.0962 28.448 34.9914 28.4307 34.8932 28.3931C34.795 28.3556 34.7054 28.2986 34.6297 28.2256C34.554 28.1526 34.4939 28.0651 34.4529 27.9683C34.4118 27.8715 34.3907 27.7674 34.3909 27.6622C34.391 27.5571 34.4124 27.4531 34.4537 27.3564C34.495 27.2597 34.5554 27.1724 34.6313 27.0996C34.7072 27.0268 34.797 26.9701 34.8953 26.9328C35.608 26.6336 36.3835 26.5149 37.153 26.5875C37.9225 26.66 38.6622 26.9215 39.3064 27.3486C39.9506 27.7757 40.4793 28.3553 40.8456 29.0359C41.2119 29.7165 41.4045 30.4771 41.4062 31.25C41.4043 32.143 41.1481 33.0171 40.6678 33.7699C40.1875 34.5228 39.5028 35.1234 38.6938 35.5016C38.5906 35.5499 38.478 35.575 38.3641 35.575ZM40.625 15.625H31.25C29.5266 15.625 28.125 14.2234 28.125 12.5C28.125 10.7766 29.5266 9.375 31.25 9.375H40.625C42.3484 9.375 43.75 10.7766 43.75 12.5C43.75 14.2234 42.3484 15.625 40.625 15.625ZM31.25 10.9375C30.8477 10.9555 30.4678 11.128 30.1895 11.419C29.9112 11.7101 29.7558 12.0973 29.7558 12.5C29.7558 12.9027 29.9112 13.2899 30.1895 13.581C30.4678 13.872 30.8477 14.0445 31.25 14.0625H40.625C41.0273 14.0445 41.4072 13.872 41.6855 13.581C41.9638 13.2899 42.1192 12.9027 42.1192 12.5C42.1192 12.0973 41.9638 11.7101 41.6855 11.419C41.4072 11.128 41.0273 10.9555 40.625 10.9375H31.25Z" fill="white"/>
</svg>
