<svg width="19" height="20" viewBox="0 0 19 20" fill="none" xmlns="http://www.w3.org/2000/svg">
<path d="M16.9409 14.6733C16.9409 14.9509 16.8792 15.2362 16.7481 15.5138C16.617 15.7913 16.4474 16.0535 16.2238 16.3002C15.846 16.7166 15.4296 17.0173 14.9593 17.2101C14.4967 17.4028 13.9955 17.5031 13.4557 17.5031C12.6693 17.5031 11.8288 17.318 10.9421 16.9402C10.0554 16.5624 9.16868 16.0535 8.28968 15.4135C7.40297 14.7658 6.56252 14.0488 5.76063 13.2546C4.96644 12.4527 4.24936 11.6122 3.60939 10.7332C2.97713 9.85424 2.46823 8.97524 2.09813 8.10395C1.72802 7.22495 1.54297 6.38451 1.54297 5.58261C1.54297 5.05829 1.63549 4.55711 1.82055 4.09448C2.0056 3.62414 2.2986 3.19235 2.70726 2.80682C3.20073 2.32106 3.74047 2.08203 4.31105 2.08203C4.52694 2.08203 4.74284 2.12829 4.9356 2.22082C5.13607 2.31335 5.31342 2.45214 5.45221 2.65261L7.24105 5.17395C7.37984 5.36672 7.48007 5.54406 7.54947 5.71369C7.61886 5.87561 7.65742 6.03753 7.65742 6.18403C7.65742 6.36908 7.60344 6.55414 7.4955 6.73148C7.39526 6.90882 7.24876 7.09387 7.06371 7.27893L6.47771 7.88806C6.39289 7.97287 6.35434 8.07311 6.35434 8.19648C6.35434 8.25816 6.36205 8.31214 6.37747 8.37382C6.4006 8.43551 6.42373 8.48177 6.43915 8.52803C6.57794 8.78248 6.81697 9.11403 7.15623 9.51498C7.50321 9.91593 7.87331 10.3246 8.27426 10.7332C8.69063 11.1419 9.09157 11.5197 9.50023 11.8667C9.90118 12.206 10.2327 12.4373 10.4949 12.5761C10.5334 12.5915 10.5797 12.6146 10.6337 12.6377C10.6954 12.6609 10.757 12.6686 10.8264 12.6686C10.9575 12.6686 11.0578 12.6223 11.1426 12.5375L11.7286 11.9592C11.9213 11.7665 12.1064 11.62 12.2837 11.5274C12.4611 11.4195 12.6384 11.3655 12.8312 11.3655C12.9777 11.3655 13.1319 11.3963 13.3015 11.4657C13.4712 11.5351 13.6485 11.6354 13.8413 11.7665L16.3934 13.5784C16.5939 13.7172 16.7327 13.8791 16.8175 14.0719C16.8946 14.2647 16.9409 14.4574 16.9409 14.6733Z" stroke="white" stroke-width="1.15658" stroke-miterlimit="10"/>
</svg>
