<?xml version="1.0" encoding="UTF-8"?>
<svg xmlns="http://www.w3.org/2000/svg" width="196" height="196" viewBox="0 0 196 196" fill="none">
  <g clip-path="url(#clip0_3381_690)">
    <path d="M133.28 -0.00390625H0V133.903L62.0928 195.996H196V62.7161L133.28 -0.00390625Z" fill="white"></path>
    <path d="M131.634 4.07289L191.923 64.3625V191.919H63.7392L4.1552 132.335V4.07289H131.634ZM133.28 -0.00390625H0V133.903L62.0928 195.996H196V62.7161L133.28 -0.00390625Z" fill="#242E3D"></path>
    <path d="M31.8307 110.384V117.596H27.7539V97.9964H35.2803C37.0835 97.8396 38.7299 98.4668 40.2195 99.6428C42.6499 102.23 42.6499 106.15 40.2195 108.816C38.8867 109.992 37.0835 110.619 35.2803 110.462H31.8307V110.384ZM31.8307 107.326H34.8099C35.5939 107.326 36.4563 107.169 36.9267 106.542C37.8675 105.209 37.8675 103.249 36.9267 101.995C36.2995 101.524 35.5939 101.211 34.8099 101.211H31.8307V107.326ZM59.1139 117.596L57.7811 113.206H51.1171L49.7843 117.596H45.3939L52.2147 97.9964H56.9187L63.5827 117.596H59.1139ZM51.9795 110.07H56.9187L54.4099 101.916L51.9795 110.07ZM69.5411 117.596V97.9964H77.0675C78.8707 97.8396 80.5171 98.4668 82.0067 99.6428C83.1827 100.819 83.8099 102.387 83.8099 104.033C83.8099 105.209 83.4963 106.15 82.7907 107.169C82.1635 108.11 81.1443 108.816 80.2035 109.286L85.1427 117.753H80.7523L76.5187 110.07H73.6963V117.596H69.5411ZM73.6963 107.012H76.6755C78.1651 107.169 79.4195 106.228 79.5763 104.739C79.5763 104.425 79.5763 104.268 79.5763 103.955C79.7331 102.465 78.7923 101.211 77.4595 101.054C77.3027 101.054 76.9891 101.054 76.8323 101.054H73.8531V107.091H73.6963V107.012ZM95.0211 117.596V101.446H88.9843V97.9964H105.135V101.446H99.0979V117.596H95.0211ZM115.484 104.033V117.596H111.72V97.9964H116.268L124.264 111.716V97.9964H128.028V117.596H123.48L115.484 104.033ZM135.554 117.596V97.9964H148.49V101.289H139.866V105.836H146.922V109.129H139.866V114.382H148.49V117.675H135.554V117.596ZM156.016 117.596V97.9964H163.543C165.346 97.8396 166.992 98.4668 168.482 99.6428C169.658 100.819 170.285 102.387 170.285 104.033C170.285 105.209 169.972 106.15 169.344 107.169C168.717 108.11 167.698 108.816 166.757 109.286L171.696 117.753H167.306L163.072 110.07H160.328V117.596H156.016ZM160.093 107.012H163.072C164.562 107.169 165.816 106.228 165.973 104.739C165.973 104.425 165.973 104.268 165.973 103.955C166.13 102.465 165.189 101.211 163.856 101.054C163.7 101.054 163.386 101.054 163.229 101.054H160.093V107.012Z" fill="#242E3D"></path>
    <path d="M43.591 44.919C43.591 45.5462 43.591 46.2518 43.9046 46.879C44.0614 47.3494 44.375 48.0551 44.5318 48.5255C44.6886 48.6823 44.6886 48.839 44.6886 48.9958C44.6886 49.3094 44.5318 49.4662 44.2182 49.623L42.7286 50.5638C42.7286 50.5638 42.5718 50.5638 42.2582 50.5638C41.9446 50.5638 41.7878 50.407 41.631 50.2502C41.3174 49.9366 41.0038 49.623 40.847 49.231C40.6902 48.9174 40.3766 48.447 40.2198 47.8982C38.5734 49.8582 36.2998 51.0342 33.7126 51.0342C32.0662 51.191 30.4198 50.5638 29.3222 49.3878C28.1462 48.2118 27.6758 46.8006 27.6758 45.1542C27.6758 43.351 28.303 41.7046 29.6358 40.607C31.1254 39.431 33.0854 38.8038 35.0454 38.8038C35.8294 38.8038 36.6918 38.8039 37.319 38.9607C38.103 39.1175 38.9654 39.2742 39.7494 39.431V37.7847C39.9062 36.4518 39.5926 35.1974 38.7302 34.1782C37.7894 33.3942 36.4566 33.0023 35.1238 33.2375C34.3398 33.2375 33.4774 33.3942 32.6934 33.551C31.9094 33.7078 31.047 34.0214 30.263 34.335C29.9494 34.4918 29.7926 34.4918 29.479 34.6486C29.3222 34.6486 29.3222 34.6486 29.1654 34.6486C28.8518 34.6486 28.695 34.4919 28.695 34.0215V32.8455C28.695 32.5319 28.695 32.3751 28.8518 32.0615C29.0086 31.9047 29.1654 31.7478 29.479 31.591C30.263 31.1206 31.2822 30.807 32.223 30.6502C33.399 30.3366 34.4966 30.1798 35.6726 30.1798C37.7894 30.023 39.7494 30.6502 41.3958 31.983C42.7286 33.4726 43.3558 35.4326 43.199 37.3927L43.591 44.919ZM34.6534 48.2118C35.4374 48.2118 36.143 48.055 36.927 47.8982C37.711 47.5846 38.4166 47.1142 39.0438 46.4086C39.3574 46.095 39.671 45.6246 39.8278 44.919C39.9846 44.2918 39.9846 43.5862 39.9846 42.959V41.9398C39.3574 41.783 38.6518 41.6262 38.0246 41.6262C37.3974 41.4694 36.6918 41.4695 35.9078 41.4695C34.7318 41.3127 33.6342 41.6263 32.615 42.2535C31.2822 43.5863 31.1254 45.703 32.3014 47.1926C33.007 48.055 33.791 48.3686 34.6534 48.2118ZM52.4502 50.6422C52.1366 50.6422 51.823 50.6423 51.6662 50.4855C51.5094 50.3287 51.3526 50.0151 51.1958 49.7015L45.943 32.5318C45.7862 32.2182 45.7862 31.9046 45.7862 31.7478C45.7862 31.4342 45.943 31.2775 46.0998 31.2775H46.2566H48.3734C48.687 31.2775 49.0006 31.2774 49.1574 31.4342C49.3142 31.591 49.471 31.9046 49.6278 32.2182L53.391 46.7222L56.8406 32.1398C56.8406 31.8262 56.9974 31.5126 57.311 31.3558C57.6246 31.199 57.9382 31.199 58.095 31.199H59.8982C60.2118 31.199 60.5254 31.199 60.6822 31.3558C60.839 31.5126 60.9958 31.8262 61.1526 32.1398L64.6022 47.0358L68.3654 32.1398C68.3654 31.8262 68.5222 31.5126 68.8358 31.3558C69.1494 31.199 69.3062 31.199 69.6198 31.199H71.7366C72.0502 31.199 72.207 31.3558 72.207 31.5126V31.6695C72.207 31.8263 72.207 31.8262 72.207 31.983C72.207 32.1398 72.0502 32.2967 72.0502 32.4535L66.7974 49.4662C66.7974 49.7798 66.6406 50.0934 66.327 50.2502C66.1702 50.5638 65.8566 50.5638 65.543 50.5638H63.583C63.2694 50.5638 62.9558 50.5639 62.799 50.4071C62.6422 50.0935 62.4854 49.9366 62.3286 49.623L58.879 35.4326L55.4294 49.623C55.4294 49.9366 55.2726 50.2503 54.959 50.4071C54.8022 50.5639 54.4886 50.5638 54.3318 50.5638H52.4502V50.6422ZM80.831 51.2695C79.655 51.2695 78.5574 51.1126 77.3814 50.9558C76.5974 50.799 75.5782 50.4854 74.7942 50.1718C74.3238 50.015 74.0102 49.5446 74.0102 48.839V47.663C74.0102 47.1926 74.167 47.0358 74.4806 47.0358C74.6374 47.0358 74.7942 47.0358 74.7942 47.0358C74.951 47.0358 75.1078 47.1926 75.2646 47.1926C76.0486 47.5062 76.911 47.8198 77.695 47.9766C78.479 48.1334 79.4982 48.2902 80.2822 48.2902C81.4582 48.2902 82.5558 48.1334 83.575 47.5062C84.2022 47.0358 84.751 46.1735 84.751 45.3895C84.751 44.7623 84.5942 44.2134 84.1238 43.8998C83.4966 43.4294 82.6342 42.959 81.8502 42.7238L78.5574 41.783C77.2246 41.4694 75.9702 40.6071 74.951 39.5095C74.3238 38.5687 73.775 37.3927 73.775 36.2166C73.775 35.4326 73.9318 34.5702 74.4022 33.7862C74.7158 33.159 75.343 32.4534 76.0486 31.983C76.6758 31.5126 77.5382 31.0422 78.3222 30.807C79.263 30.4934 80.1254 30.4935 81.0662 30.4935C81.5366 30.4935 82.0854 30.4934 82.5558 30.6502C83.0262 30.6502 83.4966 30.807 84.0454 30.9638C84.5158 31.1206 84.8294 31.1207 85.3782 31.2775C85.6918 31.4343 86.0054 31.4342 86.319 31.591C86.6326 31.7478 86.7894 31.9047 86.9462 32.0615C87.103 32.2183 87.103 32.5319 87.103 32.8455V33.8646C87.103 34.335 86.9462 34.4918 86.6326 34.4918C86.319 34.4918 86.0054 34.335 85.8486 34.1782C84.5158 33.551 83.1046 33.3942 81.615 33.3942C80.6742 33.3942 79.655 33.5511 78.6358 34.0215C78.087 34.4919 77.6166 35.2758 77.7734 36.0598C77.7734 36.687 77.9302 37.2358 78.4006 37.7062C79.0278 38.3334 79.8902 38.647 80.831 38.8822L83.967 39.823C85.2998 40.1366 86.3974 40.999 87.4166 41.9398C88.0438 42.7238 88.3574 43.8998 88.3574 45.0758C88.3574 45.8598 88.2006 46.879 87.7302 47.663C87.4166 48.447 86.7894 49.1526 86.0838 49.623C85.4566 50.0934 84.4374 50.5638 83.6534 50.9558C82.9478 51.1126 81.8502 51.2695 80.831 51.2695Z" fill="#242E3D"></path>
    <path d="M84.907 61.9321C77.6158 67.2633 67.1102 70.0857 58.0158 70.0857C45.9422 70.0857 34.1822 65.6953 25.1662 57.5417C24.539 56.9145 25.1662 56.0521 25.9502 56.6009C35.907 62.4025 47.3534 65.3033 58.7998 65.3033C67.4238 65.3033 75.9694 63.5001 83.9662 60.2073C85.0638 59.7369 86.2398 61.0697 84.907 61.9321ZM86.083 66.7929C85.7694 67.4201 86.3966 67.7337 87.1022 67.2633C91.0222 63.9705 92.0414 57.1497 91.179 56.1305C90.395 55.1897 83.4958 54.3273 79.419 57.3065C78.7918 57.7769 78.9486 58.4825 79.5758 58.2473C81.8494 57.9337 87.1022 57.3065 88.043 58.5609C88.9838 59.9721 86.867 64.6761 86.083 66.7929Z" fill="#FF9900"></path>
    <path d="M97.1383 130.374C96.1975 129.982 95.5703 129.59 95.0999 129.119C94.7079 128.649 94.4727 128.022 94.4727 127.316C94.4727 126.297 94.8647 125.513 95.5703 124.886C96.2759 124.259 97.2167 124.023 98.4711 124.023C99.4903 124.023 100.509 124.18 101.529 124.572V126.14C100.431 125.827 99.4903 125.67 98.6279 125.67C97.2167 125.67 96.4327 126.14 96.4327 127.159C96.4327 127.551 96.5895 127.865 96.8247 128.1C97.0599 128.335 97.5303 128.571 98.2359 128.806L99.6471 129.276C100.588 129.59 101.215 130.06 101.607 130.531C101.999 131.001 102.234 131.628 102.234 132.334C102.234 133.431 101.842 134.294 101.058 134.921C100.274 135.548 99.2551 135.862 97.9223 135.862C97.3735 135.862 96.7463 135.783 96.1975 135.705C95.6487 135.548 95.0999 135.391 94.7079 135.235V133.667C95.2567 133.823 95.8055 133.98 96.3543 134.059C96.9815 134.137 97.4519 134.215 97.9223 134.215C98.7063 134.215 99.2551 134.059 99.6471 133.823C100.039 133.51 100.274 133.118 100.274 132.647C100.274 132.255 100.117 131.942 99.8823 131.707C99.6471 131.471 99.1767 131.236 98.5495 131.001L97.1383 130.374Z" fill="#242E3D"></path>
    <path d="M105.526 131.865C105.526 132.728 105.761 133.276 106.231 133.668C106.702 134.06 107.329 134.217 108.191 134.217C108.975 134.217 109.916 134.06 110.857 133.747V135.08C110.465 135.236 110.073 135.393 109.524 135.55C108.975 135.707 108.505 135.707 107.956 135.707C106.623 135.707 105.526 135.315 104.82 134.609C104.115 133.825 103.723 132.806 103.723 131.316C103.723 129.905 104.036 128.808 104.742 128.024C105.447 127.24 106.388 126.848 107.643 126.848C108.662 126.848 109.524 127.161 110.073 127.71C110.622 128.259 110.935 129.121 110.935 130.219C110.935 130.768 110.857 131.316 110.779 131.708H105.526V131.865ZM107.643 128.416C107.094 128.416 106.545 128.651 106.231 128.964C105.839 129.356 105.683 129.905 105.604 130.532H109.367V130.376C109.367 129.748 109.211 129.2 108.897 128.886C108.583 128.572 108.191 128.416 107.643 128.416Z" fill="#242E3D"></path>
    <path d="M116.109 135.472C115.717 135.629 115.325 135.707 114.855 135.707C114.227 135.707 113.679 135.55 113.365 135.158C113.051 134.766 112.895 134.217 112.895 133.512V123.477H114.855V133.355C114.855 133.59 114.933 133.825 115.011 133.904C115.09 133.982 115.247 134.061 115.56 134.061C115.717 134.061 115.952 134.061 116.187 133.982V135.472H116.109Z" fill="#242E3D"></path>
    <path d="M119.166 131.865C119.166 132.728 119.402 133.276 119.872 133.668C120.342 134.06 120.97 134.217 121.832 134.217C122.616 134.217 123.557 134.06 124.498 133.747V135.08C124.106 135.236 123.714 135.393 123.165 135.55C122.616 135.707 122.146 135.707 121.597 135.707C120.264 135.707 119.166 135.315 118.461 134.609C117.755 133.825 117.363 132.806 117.363 131.316C117.363 129.905 117.677 128.808 118.382 128.024C119.088 127.24 120.029 126.848 121.283 126.848C122.302 126.848 123.165 127.161 123.714 127.71C124.262 128.259 124.576 129.121 124.576 130.219C124.576 130.768 124.498 131.316 124.419 131.708H119.166V131.865ZM121.205 128.416C120.656 128.416 120.107 128.651 119.794 128.964C119.402 129.356 119.166 129.905 119.166 130.532H122.93V130.376C122.93 129.748 122.773 129.2 122.459 128.886C122.224 128.572 121.832 128.416 121.205 128.416Z" fill="#242E3D"></path>
    <path d="M132.338 135.235C131.711 135.549 130.927 135.784 130.065 135.784C128.81 135.784 127.791 135.392 127.086 134.687C126.38 133.903 126.066 132.883 126.066 131.551C126.066 130.139 126.458 129.042 127.164 128.336C127.87 127.552 128.889 127.16 130.143 127.16C130.927 127.16 131.633 127.317 132.338 127.631V129.042C131.633 128.807 131.006 128.728 130.457 128.728C129.673 128.728 129.046 128.963 128.654 129.355C128.262 129.826 128.105 130.531 128.105 131.394V131.629C128.105 132.57 128.34 133.197 128.654 133.667C129.046 134.059 129.673 134.295 130.457 134.295C131.006 134.295 131.711 134.216 132.338 133.981V135.235Z" fill="#242E3D"></path>
    <path d="M138.927 135.392C138.378 135.627 137.751 135.706 137.123 135.706C136.261 135.706 135.634 135.549 135.163 135.157C134.771 134.765 134.536 134.138 134.536 133.275V128.806H133.125V127.552L134.615 127.317L134.928 124.965H136.496V127.238H138.848V128.728H136.496V133.118C136.496 133.51 136.575 133.746 136.731 133.902C136.888 134.059 137.202 134.138 137.672 134.138C138.143 134.138 138.535 134.138 138.927 133.981V135.392Z" fill="#242E3D"></path>
    <path d="M147.313 135.552V125.83H143.785V124.184H152.88V125.83H149.352V135.552H147.313Z" fill="#242E3D"></path>
    <path d="M154.368 135.55V127.239H156.25V135.55H154.368ZM155.309 125.828C154.917 125.828 154.682 125.75 154.446 125.514C154.211 125.279 154.133 125.044 154.133 124.73C154.133 124.338 154.211 124.103 154.446 123.946C154.682 123.711 154.917 123.633 155.309 123.633C155.701 123.633 155.936 123.711 156.171 123.946C156.406 124.103 156.485 124.417 156.485 124.73C156.485 125.044 156.406 125.358 156.171 125.514C155.936 125.75 155.701 125.828 155.309 125.828Z" fill="#242E3D"></path>
    <path d="M160.014 131.865C160.014 132.728 160.249 133.276 160.72 133.668C161.19 134.06 161.817 134.217 162.68 134.217C163.464 134.217 164.405 134.06 165.345 133.747V135.08C164.953 135.236 164.561 135.393 164.013 135.55C163.464 135.707 162.993 135.707 162.445 135.707C161.112 135.707 160.014 135.315 159.309 134.609C158.603 133.825 158.211 132.806 158.211 131.316C158.211 129.905 158.525 128.808 159.23 128.024C159.936 127.24 160.877 126.848 162.131 126.848C163.15 126.848 164.013 127.161 164.561 127.71C165.11 128.259 165.424 129.121 165.424 130.219C165.424 130.768 165.345 131.316 165.267 131.708H160.014V131.865ZM162.131 128.416C161.582 128.416 161.033 128.651 160.72 128.964C160.328 129.356 160.171 129.905 160.093 130.532H163.856V130.376C163.856 129.748 163.699 129.2 163.385 128.886C163.072 128.572 162.68 128.416 162.131 128.416Z" fill="#242E3D"></path>
    <path d="M167.383 135.549V127.239H168.951L169.186 128.493C169.656 128.023 170.048 127.709 170.44 127.474C170.832 127.239 171.224 127.16 171.695 127.16C171.93 127.16 172.087 127.16 172.322 127.239V128.963C172.008 128.885 171.695 128.885 171.381 128.885C170.597 128.885 169.892 129.12 169.264 129.512V135.549H167.383Z" fill="#242E3D"></path>
    <path d="M115.56 146.682C114.619 146.29 113.992 145.898 113.522 145.428C113.13 144.958 112.895 144.33 112.895 143.625C112.895 142.606 113.287 141.822 113.992 141.194C114.698 140.567 115.639 140.332 116.893 140.332C117.912 140.332 118.931 140.489 119.951 140.881V142.449C118.853 142.135 117.912 141.978 117.05 141.978C115.639 141.978 114.855 142.449 114.855 143.468C114.855 143.86 115.011 144.174 115.247 144.409C115.482 144.644 115.952 144.879 116.658 145.114L118.069 145.585C118.931 145.898 119.637 146.369 120.029 146.839C120.421 147.31 120.656 147.937 120.656 148.642C120.656 149.74 120.264 150.602 119.48 151.23C118.696 151.857 117.677 152.17 116.344 152.17C115.795 152.17 115.168 152.092 114.619 152.014C114.071 151.857 113.522 151.7 113.13 151.543V149.975C113.679 150.132 114.227 150.289 114.776 150.367C115.403 150.446 115.874 150.524 116.344 150.524C117.128 150.524 117.677 150.367 118.069 150.132C118.461 149.818 118.696 149.426 118.696 148.956C118.696 148.564 118.539 148.25 118.304 148.015C118.069 147.78 117.599 147.545 116.971 147.31L115.56 146.682Z" fill="#242E3D"></path>
    <path d="M124.03 148.17C124.03 149.032 124.265 149.581 124.735 149.973C125.206 150.365 125.833 150.522 126.695 150.522C127.479 150.522 128.42 150.365 129.361 150.052V151.384C128.969 151.541 128.577 151.698 128.028 151.855C127.479 152.012 127.009 152.012 126.46 152.012C125.127 152.012 124.03 151.62 123.324 150.914C122.619 150.13 122.227 149.111 122.227 147.621C122.227 146.21 122.54 145.112 123.246 144.328C123.951 143.544 124.892 143.152 126.147 143.152C127.166 143.152 128.028 143.466 128.577 144.015C129.126 144.564 129.439 145.426 129.439 146.524C129.439 147.072 129.361 147.621 129.283 148.013H124.03V148.17ZM126.068 144.72C125.519 144.72 124.971 144.877 124.657 145.269C124.265 145.661 124.108 146.21 124.03 146.837H127.793V146.68C127.793 146.053 127.636 145.504 127.323 145.191C127.009 144.956 126.617 144.72 126.068 144.72Z" fill="#242E3D"></path>
    <path d="M131.32 151.858V143.547H132.967L133.202 144.802C133.672 144.331 134.064 144.018 134.456 143.782C134.848 143.547 135.24 143.469 135.711 143.469C135.946 143.469 136.103 143.469 136.338 143.547V145.272C136.024 145.194 135.711 145.194 135.397 145.194C134.613 145.194 133.908 145.429 133.28 145.821V151.858H131.32Z" fill="#242E3D"></path>
    <path d="M139.867 151.857L136.652 143.547H138.691L140.808 150.132L142.924 143.547H144.884L141.67 151.857H139.867Z" fill="#242E3D"></path>
    <path d="M146.216 151.858V143.548H148.097V151.858H146.216ZM147.156 142.215C146.764 142.215 146.529 142.136 146.294 141.901C146.059 141.666 145.98 141.431 145.98 141.117C145.98 140.725 146.059 140.49 146.294 140.333C146.529 140.098 146.764 140.02 147.156 140.02C147.548 140.02 147.784 140.098 148.019 140.333C148.254 140.49 148.332 140.804 148.332 141.117C148.332 141.431 148.254 141.744 148.019 141.901C147.862 142.136 147.548 142.215 147.156 142.215Z" fill="#242E3D"></path>
    <path d="M156.409 151.544C155.782 151.858 154.998 152.093 154.135 152.093C152.881 152.093 151.862 151.701 151.156 150.995C150.45 150.211 150.137 149.192 150.137 147.859C150.137 146.448 150.529 145.35 151.234 144.645C151.94 143.861 152.959 143.469 154.214 143.469C154.998 143.469 155.703 143.626 156.409 143.939V145.35C155.703 145.115 155.076 145.037 154.527 145.037C153.743 145.037 153.116 145.272 152.724 145.664C152.332 146.134 152.175 146.84 152.175 147.702V147.938C152.175 148.878 152.332 149.506 152.724 149.976C153.116 150.368 153.743 150.603 154.527 150.603C155.076 150.603 155.782 150.525 156.409 150.29V151.544Z" fill="#242E3D"></path>
    <path d="M159.467 148.17C159.467 149.032 159.702 149.581 160.173 149.973C160.643 150.365 161.27 150.522 162.133 150.522C162.917 150.522 163.858 150.365 164.798 150.052V151.384C164.406 151.541 164.014 151.698 163.466 151.855C162.995 152.012 162.446 152.012 161.898 152.012C160.565 152.012 159.467 151.62 158.762 150.914C158.056 150.13 157.664 149.111 157.664 147.621C157.664 146.21 157.978 145.112 158.683 144.328C159.389 143.544 160.33 143.152 161.584 143.152C162.603 143.152 163.466 143.466 164.014 144.015C164.563 144.564 164.877 145.426 164.877 146.524C164.877 147.072 164.798 147.621 164.72 148.013H159.467V148.17ZM161.584 144.72C161.035 144.72 160.486 144.877 160.173 145.269C159.781 145.661 159.624 146.21 159.546 146.837H163.309V146.68C163.309 146.053 163.152 145.504 162.838 145.191C162.525 144.956 162.133 144.72 161.584 144.72Z" fill="#242E3D"></path>
    <path d="M170.597 149.663C170.597 149.427 170.519 149.192 170.362 149.114C170.205 148.957 169.892 148.8 169.5 148.643L168.167 148.095C166.912 147.624 166.364 146.84 166.364 145.821C166.364 145.037 166.677 144.488 167.226 144.018C167.775 143.547 168.559 143.391 169.5 143.391C170.44 143.391 171.224 143.547 171.93 143.939V145.272C171.068 145.037 170.284 144.88 169.578 144.88C169.108 144.88 168.716 144.959 168.48 145.115C168.245 145.272 168.088 145.507 168.088 145.821C168.088 146.056 168.167 146.291 168.324 146.37C168.48 146.527 168.794 146.683 169.186 146.84L170.44 147.311C171.068 147.546 171.538 147.859 171.852 148.251C172.165 148.565 172.322 149.035 172.322 149.584C172.322 150.368 172.008 151.074 171.46 151.544C170.911 152.015 170.048 152.25 169.029 152.25C168.48 152.25 168.01 152.171 167.54 152.093C167.069 152.015 166.599 151.858 166.285 151.623V150.29C167.304 150.603 168.245 150.839 169.029 150.839C169.578 150.839 169.97 150.76 170.205 150.603C170.519 150.29 170.597 149.976 170.597 149.663Z" fill="#242E3D"></path>
  </g>
  <defs>
    <clipPath id="clip0_3381_690">
      <rect width="196" height="196" fill="white"></rect>
    </clipPath>
  </defs>
</svg>
