<svg width="30" height="30" viewBox="0 0 30 30" fill="none" xmlns="http://www.w3.org/2000/svg">
<path d="M12.295 24.2218L12.0424 23.7916C10.148 20.5639 5.10862 13.7071 5.05796 13.6383L4.91016 13.4374L6.80558 11.5646L12.2307 15.3528C15.6309 10.9584 18.7985 7.93415 20.8706 6.16173C23.1597 4.20371 24.6091 3.32748 24.6694 3.29113L24.7379 3.25H28.0783L27.5126 3.75388C20.3691 10.1165 12.6193 23.6523 12.5419 23.7883L12.295 24.2218Z" fill="#00A1C5"/>
<path d="M12.3422 6.98906C12.6218 6.98906 12.8484 6.76241 12.8484 6.48281C12.8484 6.20322 12.6218 5.97656 12.3422 5.97656C12.0626 5.97656 11.8359 6.20322 11.8359 6.48281C11.8359 6.76241 12.0626 6.98906 12.3422 6.98906Z" fill="#00A1C5"/>
<path d="M12.3422 26.8426C12.6218 26.8426 12.8484 26.6159 12.8484 26.3363C12.8484 26.0567 12.6218 25.8301 12.3422 25.8301C12.0626 25.8301 11.8359 26.0567 11.8359 26.3363C11.8359 26.6159 12.0626 26.8426 12.3422 26.8426Z" fill="#00A1C5"/>
<path d="M2.42813 16.9129C2.70772 16.9129 2.93438 16.6862 2.93438 16.4066C2.93438 16.127 2.70772 15.9004 2.42813 15.9004C2.14853 15.9004 1.92188 16.127 1.92188 16.4066C1.92188 16.6862 2.14853 16.9129 2.42813 16.9129Z" fill="#00A1C5"/>
<path d="M22.2602 16.9188C22.5398 16.9188 22.7664 16.6921 22.7664 16.4125C22.7664 16.1329 22.5398 15.9062 22.2602 15.9062C21.9806 15.9062 21.7539 16.1329 21.7539 16.4125C21.7539 16.6921 21.9806 16.9188 22.2602 16.9188Z" fill="#00A1C5"/>
<path d="M5.32656 23.9324C5.60616 23.9324 5.83281 23.7058 5.83281 23.4262C5.83281 23.1466 5.60616 22.9199 5.32656 22.9199C5.04697 22.9199 4.82031 23.1466 4.82031 23.4262C4.82031 23.7058 5.04697 23.9324 5.32656 23.9324Z" fill="#00A1C5"/>
<path d="M5.33047 9.90313C5.61006 9.90313 5.83672 9.67647 5.83672 9.39688C5.83672 9.11728 5.61006 8.89062 5.33047 8.89062C5.05087 8.89062 4.82422 9.11728 4.82422 9.39688C4.82422 9.67647 5.05087 9.90313 5.33047 9.90313Z" fill="#00A1C5"/>
<path d="M19.3539 23.9285C19.6335 23.9285 19.8602 23.7019 19.8602 23.4223C19.8602 23.1427 19.6335 22.916 19.3539 22.916C19.0743 22.916 18.8477 23.1427 18.8477 23.4223C18.8477 23.7019 19.0743 23.9285 19.3539 23.9285Z" fill="#00A1C5"/>
<path d="M3.74844 11.9539C4.02803 11.9539 4.25469 11.7273 4.25469 11.4477C4.25469 11.1681 4.02803 10.9414 3.74844 10.9414C3.46884 10.9414 3.24219 11.1681 3.24219 11.4477C3.24219 11.7273 3.46884 11.9539 3.74844 11.9539Z" fill="#00A1C5"/>
<path d="M20.9398 21.8777C21.2194 21.8777 21.4461 21.6511 21.4461 21.3715C21.4461 21.0919 21.2194 20.8652 20.9398 20.8652C20.6602 20.8652 20.4336 21.0919 20.4336 21.3715C20.4336 21.6511 20.6602 21.8777 20.9398 21.8777Z" fill="#00A1C5"/>
<path d="M7.38906 25.5047C7.66866 25.5047 7.89531 25.278 7.89531 24.9984C7.89531 24.7188 7.66866 24.4922 7.38906 24.4922C7.10947 24.4922 6.88281 24.7188 6.88281 24.9984C6.88281 25.278 7.10947 25.5047 7.38906 25.5047Z" fill="#00A1C5"/>
<path d="M9.77187 7.33086C10.0515 7.33086 10.2781 7.1042 10.2781 6.82461C10.2781 6.54502 10.0515 6.31836 9.77187 6.31836C9.49228 6.31836 9.26562 6.54502 9.26562 6.82461C9.26562 7.1042 9.49228 7.33086 9.77187 7.33086Z" fill="#00A1C5"/>
<path d="M14.9125 26.5066C15.1921 26.5066 15.4188 26.28 15.4188 26.0004C15.4188 25.7208 15.1921 25.4941 14.9125 25.4941C14.6329 25.4941 14.4062 25.7208 14.4062 26.0004C14.4062 26.28 14.6329 26.5066 14.9125 26.5066Z" fill="#00A1C5"/>
<path d="M2.76406 19.4793C3.04366 19.4793 3.27031 19.2526 3.27031 18.973C3.27031 18.6935 3.04366 18.4668 2.76406 18.4668C2.48447 18.4668 2.25781 18.6935 2.25781 18.973C2.25781 19.2526 2.48447 19.4793 2.76406 19.4793Z" fill="#00A1C5"/>
<path d="M21.9203 14.3504C22.1999 14.3504 22.4266 14.1237 22.4266 13.8441C22.4266 13.5645 22.1999 13.3379 21.9203 13.3379C21.6407 13.3379 21.4141 13.5645 21.4141 13.8441C21.4141 14.1237 21.6407 14.3504 21.9203 14.3504Z" fill="#00A1C5"/>
<path d="M3.74844 21.8777C4.02803 21.8777 4.25469 21.6511 4.25469 21.3715C4.25469 21.0919 4.02803 20.8652 3.74844 20.8652C3.46884 20.8652 3.24219 21.0919 3.24219 21.3715C3.24219 21.6511 3.46884 21.8777 3.74844 21.8777Z" fill="#00A1C5"/>
<path d="M17.2992 25.5047C17.5788 25.5047 17.8055 25.278 17.8055 24.9984C17.8055 24.7188 17.5788 24.4922 17.2992 24.4922C17.0196 24.4922 16.793 24.7188 16.793 24.9984C16.793 25.278 17.0196 25.5047 17.2992 25.5047Z" fill="#00A1C5"/>
<path d="M7.38906 8.33086C7.66866 8.33086 7.89531 8.1042 7.89531 7.82461C7.89531 7.54502 7.66866 7.31836 7.38906 7.31836C7.10947 7.31836 6.88281 7.54502 6.88281 7.82461C6.88281 8.1042 7.10947 8.33086 7.38906 8.33086Z" fill="#00A1C5"/>
<path d="M14.9125 7.33086C15.1921 7.33086 15.4188 7.1042 15.4188 6.82461C15.4188 6.54502 15.1921 6.31836 14.9125 6.31836C14.6329 6.31836 14.4062 6.54502 14.4062 6.82461C14.4062 7.1042 14.6329 7.33086 14.9125 7.33086Z" fill="#00A1C5"/>
<path d="M9.77188 26.5066C10.0515 26.5066 10.2781 26.28 10.2781 26.0004C10.2781 25.7208 10.0515 25.4941 9.77188 25.4941C9.49228 25.4941 9.26562 25.7208 9.26562 26.0004C9.26562 26.28 9.49228 26.5066 9.77188 26.5066Z" fill="#00A1C5"/>
<path d="M21.9203 19.4793C22.1999 19.4793 22.4266 19.2526 22.4266 18.973C22.4266 18.6935 22.1999 18.4668 21.9203 18.4668C21.6407 18.4668 21.4141 18.6935 21.4141 18.973C21.4141 19.2526 21.6407 19.4793 21.9203 19.4793Z" fill="#00A1C5"/>
<path d="M2.76406 14.3504C3.04366 14.3504 3.27031 14.1237 3.27031 13.8441C3.27031 13.5645 3.04366 13.3379 2.76406 13.3379C2.48447 13.3379 2.25781 13.5645 2.25781 13.8441C2.25781 14.1237 2.48447 14.3504 2.76406 14.3504Z" fill="#00A1C5"/>
</svg>
