<svg width="36" height="38" viewBox="0 0 36 38" fill="none" xmlns="http://www.w3.org/2000/svg">
<g clip-path="url(#clip0_2694_3744)">
<path d="M27.9055 26.684C25.8815 28.2207 23.0479 29.3732 20.2142 29.3732C13.7374 29.3732 9.28453 24.7631 9.28453 18.6163C9.28453 12.4695 13.7374 8.24352 20.2142 8.24352C23.0479 8.24352 25.8815 9.01184 27.9055 10.9327L29.1199 12.0853L35.5968 6.32261L33.9776 5.17008C30.3343 2.09666 25.4767 0.175781 20.2142 0.175781C8.8798 0.175781 0.378906 8.24352 0.378906 19.0005C0.378906 29.7574 8.8798 37.8251 20.2142 37.8251C25.4767 37.8251 30.3343 35.9043 33.9776 32.8308L35.5968 31.6783L29.1199 25.5314L27.9055 26.684Z" fill="#050729"/>
<path d="M19.8089 25.1472C23.386 25.1472 26.2857 22.3952 26.2857 19.0004C26.2857 15.6056 23.386 12.8535 19.8089 12.8535C16.2318 12.8535 13.332 15.6056 13.332 19.0004C13.332 22.3952 16.2318 25.1472 19.8089 25.1472Z" fill="#EF4335"/>
</g>
<defs>
<clipPath id="clip0_2694_3744">
<rect width="35.2178" height="38" fill="white" transform="translate(0.378906)"/>
</clipPath>
</defs>
</svg>
