<?xml version="1.0" encoding="UTF-8"?>
<svg xmlns="http://www.w3.org/2000/svg" width="44" height="38" viewBox="0 0 44 38" fill="none">
  <g clip-path="url(#clip0_1639_9563)">
    <path fill-rule="evenodd" clip-rule="evenodd" d="M41.0535 37.6723C41.0498 37.702 41.0423 37.7307 41.0311 37.7585C28.1805 37.7585 15.33 37.7585 2.4795 37.7585C2.47593 37.7276 2.46974 37.6973 2.46094 37.6673C2.55086 37.6611 2.64078 37.6495 2.73058 37.6495C15.3608 37.6492 27.9911 37.6495 40.6215 37.651C40.7656 37.651 40.9096 37.6649 41.0535 37.6723Z" fill="#7492A5"></path>
    <path fill-rule="evenodd" clip-rule="evenodd" d="M0.186548 35.397C0.154342 35.3992 0.123336 35.3939 0.09375 35.381C0.09375 33.3634 0.09375 31.3459 0.09375 29.3283C0.126066 29.3247 0.15838 29.3203 0.190476 29.3154C0.189167 31.3427 0.187859 33.3698 0.186548 35.397Z" fill="#7E9AAB"></path>
    <path fill-rule="evenodd" clip-rule="evenodd" d="M20.9219 0.778505C20.9327 0.748782 20.9391 0.718085 20.9412 0.686523C21.6652 0.686523 22.3892 0.686523 23.1131 0.686523C23.1105 0.719165 23.1149 0.750728 23.1265 0.781315C22.3916 0.780343 21.6568 0.779369 20.9219 0.778505Z" fill="#6C8CA0"></path>
    <path fill-rule="evenodd" clip-rule="evenodd" d="M23.1313 0.781223C23.1198 0.750665 23.1153 0.719134 23.1179 0.686523C23.2987 0.686523 23.4797 0.686523 23.6604 0.686523C23.6589 0.71719 23.6606 0.747639 23.6654 0.777981C23.4873 0.779061 23.3095 0.780143 23.1313 0.781223Z" fill="#CDD7DE"></path>
    <path fill-rule="evenodd" clip-rule="evenodd" d="M0.179688 35.3975C0.180991 33.3704 0.182292 31.3431 0.183595 29.3159C0.387212 28.0075 1.42485 27.0853 2.73854 27.0471C2.90122 27.0423 3.06421 27.0444 3.227 27.0444C15.6025 27.0443 27.978 27.0442 40.3534 27.0448C40.7679 27.0448 41.1806 27.033 41.5844 27.1758C42.6217 27.5428 43.3865 28.5153 43.4025 29.62C43.4291 31.4563 43.4438 33.2939 43.404 35.1298C43.3734 36.5499 42.1723 37.6044 41.0504 37.6732C40.9064 37.6658 40.7624 37.6519 40.6184 37.6519C27.9879 37.6505 15.3577 37.6501 2.72746 37.6505C2.63754 37.6505 2.54774 37.662 2.45782 37.6682C1.32321 37.5874 0.258854 36.4911 0.179688 35.3975ZM38.0889 33.0159C38.0213 32.9933 37.9544 32.9745 37.8841 33.0795C37.9329 33.3469 37.7559 33.6612 37.9762 33.9438C38.193 33.8569 37.9721 33.6075 38.1404 33.502C38.2592 33.6397 38.2321 33.8798 38.4459 33.9666C38.5805 33.813 38.5579 33.6007 38.7154 33.4897C38.8336 33.6182 38.6319 33.8861 38.9417 33.9698C38.94 33.6053 39.0779 33.258 38.8498 32.9357C38.5375 33.0405 38.6592 33.4103 38.4159 33.5306C38.2037 33.4226 38.288 33.1299 38.0889 33.0159ZM11.861 31.7946C12.2502 31.7946 12.5895 31.803 12.9281 31.7915C13.1429 31.7843 13.3586 31.7588 13.5704 31.7217C14.4677 31.5643 15.0417 30.8832 15.0709 29.9524C15.1004 29.0114 14.5296 28.2139 13.6492 28.0576C13.0691 27.9544 12.4738 27.9849 11.861 28.0379C11.861 29.2814 11.861 30.4943 11.861 31.7946ZM33.5697 36.6671C34.0804 36.6671 34.5326 36.6916 34.9812 36.6623C36.0095 36.5953 36.7009 35.9129 36.7824 34.9195C36.8596 33.9789 36.3025 33.1696 35.3809 32.9527C34.7855 32.8125 34.1768 32.8955 33.5697 32.8925C33.5697 34.1813 33.5697 35.3968 33.5697 36.6671ZM23.4322 31.7759C23.4322 30.7244 23.4322 29.6724 23.4322 28.6206C23.4646 28.6171 23.4971 28.6134 23.5294 28.6096C24.2675 29.6672 25.0054 30.7248 25.748 31.7891C25.889 31.7719 26.0133 31.8336 26.1466 31.7183C26.1466 30.5071 26.1466 29.2776 26.1466 28.0473C26.0321 28.0186 25.9493 27.991 25.813 28.1211C25.813 29.1009 25.813 30.1379 25.813 31.2772C25.0052 30.1208 24.2665 29.0636 23.5522 28.041C23.3683 28.007 23.2461 27.9832 23.0871 28.0899C23.0871 29.2456 23.0858 30.428 23.089 31.61C23.0892 31.7381 23.1646 31.8055 23.4322 31.7759ZM27.2925 32.9056C27.2925 34.1869 27.2925 35.4159 27.2925 36.6373C27.432 36.6691 27.5387 36.7044 27.6674 36.5213C27.6674 36.0245 27.6674 35.4585 27.6674 34.8595C27.9096 34.878 28.1024 34.8112 28.3029 34.9113C28.6478 35.4887 28.9967 36.0726 29.3296 36.6302C29.473 36.6828 29.5772 36.6859 29.7177 36.6186C29.3724 36.0413 29.0293 35.4675 28.6806 34.8843C28.8312 34.8261 28.9517 34.7882 29.0647 34.7344C29.4795 34.5365 29.6778 34.1678 29.6143 33.7252C29.5519 33.29 29.2398 32.9778 28.7307 32.9133C28.2667 32.8547 27.7965 32.874 27.2925 32.9056ZM15.5308 33.2691C15.1107 32.8454 14.5901 32.7515 14.0326 32.7909C13.0989 32.8568 12.4093 33.5535 12.2793 34.548C12.1635 35.433 12.6815 36.3456 13.4888 36.6287C14.2253 36.8873 14.9343 36.7845 15.6341 36.4117C15.6341 36.1076 15.6418 35.8214 15.632 35.5357C15.6218 35.2392 15.6771 34.9361 15.5923 34.6487C15.1826 34.6487 14.8094 34.6487 14.4443 34.6487C14.4038 34.7571 14.374 34.8397 14.512 34.9549C14.7235 34.9549 14.9872 34.9549 15.269 34.9549C15.269 35.4061 15.269 35.8124 15.269 36.209C14.1438 36.7289 13.3046 36.3071 12.948 35.8102C12.509 35.1984 12.5574 34.1544 13.0554 33.5986C13.6098 32.9797 14.3973 32.9538 15.3587 33.523C15.4345 33.4738 15.5077 33.4222 15.5308 33.2691ZM6.21165 32.904C6.21165 34.175 6.21165 35.4066 6.21165 36.6269C6.32904 36.671 6.41397 36.6931 6.50659 36.5901C6.58761 36.0474 6.46251 35.4699 6.57491 34.9001C6.80459 34.8414 7.01222 34.8292 7.2166 34.9057C7.57279 35.5002 7.9228 36.0846 8.25738 36.6431C8.40649 36.6766 8.51117 36.6902 8.62889 36.6112C8.28746 36.0419 7.94571 35.472 7.59495 34.8872C7.68758 34.8475 7.76859 34.8118 7.85036 34.7779C8.36522 34.5652 8.60229 34.2115 8.53615 33.7535C8.46784 33.28 8.15346 32.959 7.61797 32.9121C7.15719 32.8719 6.68991 32.904 6.21165 32.904ZM11.5682 34.8363C11.5464 34.7195 11.551 34.6316 11.525 34.6216C10.9587 34.4016 10.3538 34.6284 9.75331 34.4853C9.75331 34.0743 9.75331 33.6708 9.75331 33.211C10.3972 33.211 11.0214 33.211 11.6007 33.211C11.6904 33.0917 11.685 33.024 11.6498 32.9255C10.898 32.9255 10.1356 32.9255 9.36714 32.9255C9.36714 34.1827 9.36714 35.3999 9.36714 36.6449C10.1612 36.6449 10.9294 36.6449 11.7006 36.6449C11.7255 36.5395 11.7687 36.4574 11.619 36.3311C11.038 36.3311 10.3945 36.3311 9.76201 36.3311C9.76201 35.8169 9.76201 35.3576 9.76201 34.8363C10.3807 34.8363 10.9664 34.8363 11.5682 34.8363ZM26.3961 32.9267C25.614 32.9267 24.8674 32.9267 24.1225 32.9267C24.1225 34.185 24.1225 35.4024 24.1225 36.646C24.9169 36.646 25.6853 36.646 26.4598 36.646C26.4761 36.5383 26.525 36.4547 26.3841 36.3415C25.7892 36.3415 25.1444 36.3415 24.4713 36.3415C24.441 35.8262 24.4183 35.3541 24.4798 34.8819C25.1107 34.8154 25.6897 34.9094 26.2497 34.8245C26.2834 34.7058 26.2984 34.6193 26.1192 34.5131C25.6291 34.5131 25.0585 34.5131 24.446 34.5131C24.4663 34.0599 24.4032 33.6543 24.4939 33.1942C25.1306 33.1942 25.7546 33.1942 26.3763 33.1942C26.3844 33.0847 26.3882 33.0319 26.3961 32.9267ZM30.8425 36.3649C30.8425 35.8103 30.8425 35.3508 30.8425 34.8335C31.4623 34.8335 32.0484 34.8335 32.6239 34.8335C32.6384 34.7033 32.6537 34.6315 32.5485 34.5472C32.0062 34.486 31.4119 34.5925 30.8409 34.4912C30.8409 34.0518 30.8409 33.6475 30.8409 33.1931C31.4975 33.1931 32.1218 33.1931 32.7344 33.1931C32.7548 33.0724 32.7788 33.0025 32.711 32.923C31.9772 32.923 31.2295 32.923 30.4796 32.923C30.4796 34.1776 30.4796 35.3958 30.4796 36.6428C31.2699 36.6428 32.0378 36.6428 32.7847 36.6428C32.8685 36.5655 32.8475 36.4938 32.8339 36.3649C32.1844 36.3649 31.5252 36.3649 30.8425 36.3649ZM20.0286 28.03C19.9218 28.1911 19.969 28.3577 19.9673 28.5152C19.9607 29.1095 19.9644 29.7036 19.962 30.298C19.9612 30.4958 19.9511 30.6899 19.8779 30.8814C19.7012 31.3443 19.3608 31.5849 18.888 31.559C18.4475 31.5346 18.1293 31.2691 17.9979 30.8208C17.921 30.5585 17.907 30.2913 17.9089 30.0197C17.9137 29.3587 17.9104 28.6976 17.9104 28.0486C17.7623 28.0215 17.6744 27.9758 17.5783 28.1059C17.5783 28.9153 17.5512 29.7602 17.587 30.6024C17.6151 31.2665 17.9875 31.6905 18.5476 31.8225C19.5461 32.0575 20.2709 31.5184 20.3036 30.4865C20.3275 29.731 20.3098 28.974 20.311 28.2177C20.3111 28.1426 20.2925 28.0765 20.2165 28.019C20.1607 28.0223 20.0912 28.0265 20.0286 28.03ZM29.1083 31.1278C28.9452 31.1784 28.8519 31.2223 28.8166 31.3433C29.1026 31.7573 29.5431 31.8602 30 31.8784C30.5574 31.9007 31.0482 31.5325 31.1443 31.0711C31.2707 30.465 31.0311 30.0648 30.3917 29.8279C30.1727 29.7469 29.941 29.6972 29.7277 29.6043C29.3283 29.4302 29.1623 29.1426 29.2372 28.806C29.3166 28.4495 29.6154 28.2633 30.0467 28.2287C30.3862 28.2014 30.6037 28.4245 30.8546 28.5633C30.9406 28.485 31.0405 28.4604 31.0441 28.3166C30.7525 27.9135 30.311 27.8788 29.8519 27.9221C29.3366 27.9707 28.9434 28.3286 28.8742 28.7838C28.7986 29.2807 29.0195 29.6643 29.5344 29.8886C29.8142 30.0105 30.113 30.0899 30.3922 30.2134C30.7173 30.3571 30.8593 30.5952 30.8137 30.891C30.7657 31.2025 30.5861 31.4095 30.2765 31.4984C29.8108 31.632 29.4279 31.4903 29.1083 31.1278ZM17.8819 36.2241C18.3878 36.745 18.9859 36.8945 19.5717 36.6651C20.0071 36.4945 20.2131 36.155 20.2457 35.7089C20.2757 35.2979 20.0535 34.9662 19.6326 34.7831C19.4522 34.7046 19.2521 34.6722 19.0688 34.5992C18.7871 34.4873 18.4787 34.4053 18.34 34.0872C18.2784 33.751 18.2795 33.4298 18.6281 33.2383C19.1005 32.9788 19.5262 33.1038 19.9033 33.4533C20.0002 33.3829 20.0719 33.3307 20.144 33.2783C19.6936 32.7232 18.8492 32.6176 18.3158 33.0436C17.7613 33.4865 17.809 34.3157 18.4137 34.6898C18.6297 34.8234 18.8758 34.8855 19.1144 34.9669C19.3853 35.0596 19.6714 35.1399 19.8311 35.4343C19.9345 35.7874 19.8676 36.1075 19.5208 36.3081C18.9755 36.6239 18.5276 36.3611 18.1526 36.025C18.0052 36.0574 17.9436 36.12 17.8819 36.2241ZM22.252 36.6552C22.252 35.4897 22.252 34.3674 22.252 33.2372C22.701 33.1645 23.1181 33.2745 23.5098 33.1629C23.5244 33.0712 23.5485 33.0013 23.482 32.9249C22.5337 32.9249 21.5736 32.9249 20.6183 32.9249C20.6059 33.0329 20.5912 33.1036 20.671 33.1904C21.0426 33.262 21.4597 33.1555 21.908 33.2568C21.908 34.4028 21.908 35.5241 21.908 36.6551C22.0316 36.6552 22.101 36.6552 22.252 36.6552ZM17.002 36.6663C17.002 35.3799 17.002 34.1477 17.002 32.9207C16.888 32.8956 16.8012 32.8565 16.7219 32.9517C16.7219 34.177 16.7219 35.4083 16.7219 36.6525C16.8214 36.6574 16.8905 36.6609 17.002 36.6663ZM33.3335 28.947C33.3368 28.4206 32.9358 28.0153 32.4198 28.0239C31.9243 28.0323 31.4816 28.4838 31.496 28.9663C31.5101 29.4319 31.9448 29.8621 32.4083 29.8692C32.9219 29.8767 33.33 29.4701 33.3335 28.947ZM37.2096 33.1792C37.2649 33.4487 37.1721 33.7134 37.309 34.0207C37.5551 33.6755 37.2367 33.2419 37.7159 32.9963C37.3981 32.977 37.1791 32.9411 36.9595 33.0272C37.013 33.1357 37.1285 33.0946 37.2096 33.1792Z" fill="#2D5B78"></path>
    <path fill-rule="evenodd" clip-rule="evenodd" d="M23.1278 0.78058C23.3062 0.779499 23.4842 0.778415 23.6625 0.777334C27.5059 1.1338 30.928 2.51371 33.8924 4.98106C37.2531 7.77807 39.3491 11.3382 40.2428 15.5947C40.5612 17.1116 40.6543 18.656 40.5882 20.2079C40.524 21.7072 40.0859 23.8985 39.5452 25.3298C38.8068 25.3298 38.0562 25.3298 37.2744 25.3298C38.7401 21.5118 38.8609 17.6765 37.523 13.8354C36.4094 10.638 34.4372 8.04115 31.6844 6.05845C26.2711 2.15952 18.9159 2.0109 13.3833 5.66578C11.8036 6.70933 10.4396 7.98408 9.30325 9.49877C8.18265 10.9924 7.34462 12.6265 6.78904 14.4071C6.22684 16.2091 5.99346 18.0525 6.071 19.9343C6.14735 21.788 6.54665 23.5781 7.2383 25.3397C6.34205 25.3397 5.49783 25.3397 4.63493 25.3397C4.29698 24.4928 4.08576 23.6226 3.9195 22.7472C3.69796 21.5817 3.56569 20.4018 3.57905 19.2117C3.62379 15.2399 4.7533 11.6072 7.10028 8.38637C9.95677 4.46626 13.8036 2.03771 18.5602 1.04711C19.3346 0.885851 20.1234 0.760583 20.9233 0.777984C21.6581 0.778633 22.3929 0.779607 23.1278 0.78058Z" fill="#2D5B78"></path>
    <path fill-rule="evenodd" clip-rule="evenodd" d="M28.737 23.4029C28.344 23.8064 27.9919 24.1682 27.6177 24.5525C27.0255 23.9366 26.4425 23.3302 25.8267 22.6898C25.2139 23.2702 24.6208 23.8158 24.0463 24.3802C23.1932 25.2188 22.1603 25.6598 20.9777 25.6325C18.7613 25.5816 17.1211 24.0007 16.8043 22.0413C16.5612 20.5371 17.0404 19.2852 18.0823 18.2189C18.446 17.8468 18.84 17.5039 19.231 17.1373C19.6002 17.527 19.9449 17.8911 20.3045 18.2706C19.9987 18.6727 19.6053 18.9633 19.2597 19.3004C18.6654 19.8799 18.303 20.5671 18.3462 21.4096C18.4025 22.5055 18.915 23.3398 19.9341 23.7874C20.9682 24.2416 21.9524 24.0861 22.802 23.3369C23.4362 22.7775 24.0328 22.1762 24.7057 21.5369C22.2835 19.0198 19.888 16.5308 17.4721 14.0205C17.4721 13.29 17.4721 12.5409 17.4721 11.7051C21.263 15.6415 25.0004 19.5226 28.737 23.4029Z" fill="#2D5B78"></path>
    <path fill-rule="evenodd" clip-rule="evenodd" d="M22.8085 15.9574C22.3597 15.533 22.0158 15.1692 21.6832 14.7274C21.9686 14.4478 22.2433 14.1659 22.5318 13.8986C23.214 13.2666 23.171 11.9521 22.6689 11.3117C22.062 10.5377 20.9425 10.2848 20.0904 10.7409C19.7516 10.9224 19.5092 11.2226 19.2163 11.4609C19.0935 11.5609 19.0147 11.7145 18.92 11.8382C18.4849 11.4176 18.1138 11.0591 17.7188 10.6773C18.1397 10.3019 18.521 9.88541 18.9745 9.57252C20.1364 8.77105 21.4023 8.66838 22.6566 9.30541C23.947 9.96077 24.6282 11.051 24.647 12.5165C24.6595 13.5169 24.3124 14.3711 23.6022 15.0838C23.3353 15.3519 23.0923 15.6436 22.8085 15.9574Z" fill="#3C99B5"></path>
    <path fill-rule="evenodd" clip-rule="evenodd" d="M27.6333 20.8376C27.2541 20.4712 26.8932 20.1222 26.4999 19.7421C27.1827 19.0761 27.4819 18.2412 27.352 17.2793C27.2186 16.2922 26.6377 15.6201 25.7478 15.1765C25.6712 14.9128 25.7182 14.6428 25.7101 14.3774C25.7023 14.1124 25.7084 13.8468 25.7084 13.5186C27.3198 13.9942 28.3675 14.9526 28.8108 16.4767C29.2991 18.1558 28.834 19.6147 27.6333 20.8376Z" fill="#3C99B5"></path>
    <path fill-rule="evenodd" clip-rule="evenodd" d="M10.5839 15.0061C9.84178 15.2098 9.10195 15.4131 8.27553 15.64C8.93254 15.9819 9.58499 16.0624 10.1626 16.3124C10.2023 16.4612 10.1966 16.5787 9.99429 16.6851C9.22825 16.4385 8.41551 16.177 7.57812 15.9074C7.651 15.6917 7.7066 15.5271 7.76512 15.3538C8.50086 15.1487 9.22531 14.9465 9.94963 14.7445C9.95487 14.7107 9.95993 14.6767 9.96517 14.6429C9.37145 14.4439 8.77779 14.2448 8.18517 14.0462C8.17214 13.9134 8.29497 13.8279 8.24208 13.6426C9.14169 13.9267 9.97369 14.1896 10.8121 14.4544C10.7327 14.6337 10.7531 14.8283 10.5839 15.0061Z" fill="#315E7A"></path>
    <path fill-rule="evenodd" clip-rule="evenodd" d="M10.7422 9.9442C10.8366 9.38968 10.9475 9.25777 11.5105 9.02441C12.0657 9.19433 12.1146 9.27151 12.1422 10.0325C12.3274 10.1198 12.5191 10.087 12.737 10.0573C12.7878 9.87311 12.6232 9.71064 12.6514 9.64678C12.7293 9.40905 12.8408 9.34704 12.9539 9.22578C13.0288 9.51656 13.0931 9.76606 13.1615 10.0312C13.3898 10.153 13.6559 10.0351 13.9057 10.1275C13.8096 10.4367 13.5446 10.4605 13.2456 10.4591C13.2317 10.8885 13.0898 11.2376 12.7414 11.4822C12.5141 11.6416 12.2711 11.6367 12.0105 11.5872C11.8458 11.5133 11.7315 11.3774 11.6411 11.2512C11.5304 11.0076 11.61 10.7676 11.563 10.529C11.2327 10.4392 10.886 10.3682 10.7422 9.9442ZM12.7923 10.517C12.4906 10.5185 12.2296 10.4496 11.9795 10.5677C11.9777 11.0178 12.0655 11.1615 12.3368 11.1746C12.614 11.1878 12.7456 11.0152 12.7923 10.517ZM11.5027 9.45224C11.2916 9.52323 11.1752 9.63603 11.1711 9.85773C11.2741 10.0764 11.4495 10.1228 11.7065 10.0474C11.7368 9.81982 11.8175 9.5959 11.5027 9.45224Z" fill="#305D79"></path>
    <path fill-rule="evenodd" clip-rule="evenodd" d="M15.3359 6.072C15.6971 5.9155 15.9719 5.78353 16.256 5.67598C16.8582 5.44792 17.0783 5.55525 17.3266 6.19371C17.2765 6.32482 17.2201 6.47257 17.1588 6.63286C17.293 6.77628 17.517 6.66766 17.647 6.8086C18.0651 7.36156 17.9964 7.73456 17.3946 8.05774C17.0965 8.2177 16.778 8.34005 16.4126 8.50487C15.9854 7.72332 15.7206 6.89701 15.3359 6.072ZM17.4514 7.49786C17.4918 7.21792 17.3847 7.05968 17.1253 6.97332C16.8687 7.03266 16.6035 7.11103 16.3486 7.29336C16.4508 7.5226 16.5063 7.7445 16.6813 7.95916C16.9499 7.84946 17.2455 7.7845 17.4514 7.49786ZM16.9168 6.37097C16.8807 6.15188 16.7765 6.04552 16.5769 5.99375C16.3601 6.04499 16.1284 6.11318 15.9027 6.29963C16.03 6.48143 16.0266 6.71359 16.2301 6.85356C16.4853 6.73694 16.7828 6.68862 16.9168 6.37097Z" fill="#305D7A"></path>
    <path fill-rule="evenodd" clip-rule="evenodd" d="M10.6057 23.4576C9.77485 23.6862 8.9492 23.9135 8.06664 24.1564C7.90896 23.6767 7.72131 23.2158 7.71121 22.7175C7.69949 22.1417 8.06849 21.7243 8.69531 21.5336C9.24306 21.3671 9.7625 21.5524 10.1067 22.0267C10.2575 22.2342 10.3444 22.4647 10.4065 22.7092C10.4672 22.9495 10.5338 23.1887 10.6057 23.4576ZM10.1123 23.1431C10.0037 22.5843 9.8724 22.0946 9.30019 21.934C8.93031 21.8303 8.58247 21.9434 8.32836 22.2369C7.94816 22.6761 8.15156 23.1363 8.30187 23.6339C8.91456 23.5149 9.4911 23.3478 10.1123 23.1431Z" fill="#325F7B"></path>
    <path fill-rule="evenodd" clip-rule="evenodd" d="M25.5781 7.67133C25.9222 6.85572 26.2536 6.07017 26.5967 5.25684C26.9952 5.43182 27.3631 5.5679 27.7065 5.74991C28.3223 6.07633 28.5351 6.69857 28.2855 7.3541C28.0489 7.97601 27.4296 8.30914 26.7705 8.16376C26.6313 8.13307 26.4929 8.09177 26.3603 8.0399C26.1118 7.94306 25.8561 7.85939 25.5781 7.67133ZM26.8249 5.77932C26.5986 6.30039 26.3765 6.80633 26.1614 7.31519C26.1355 7.37659 26.1478 7.45397 26.1408 7.54325C26.6068 7.78071 27.077 7.98099 27.5623 7.64819C27.8803 7.43008 28.013 7.06649 27.9468 6.6989C27.8423 6.11827 27.3481 5.94933 26.8249 5.77932Z" fill="#325F7B"></path>
    <path fill-rule="evenodd" clip-rule="evenodd" d="M35.3639 13.8743C34.9359 14.4144 34.6548 14.4605 34.0545 14.084C33.7124 14.3183 33.6151 14.7598 33.2724 15.0559C33.1771 14.9337 33.0936 14.8184 33.1067 14.624C33.3338 14.3098 33.5744 13.9768 33.8239 13.6314C33.7864 13.5309 33.7509 13.436 33.7084 13.3218C33.3045 13.3634 33.0005 13.6108 32.6383 13.7104C32.5452 13.6279 32.5129 13.5104 32.4609 13.3663C33.2374 13.0018 34.0134 12.6377 34.8516 12.2441C35.0659 12.7884 35.4664 13.2507 35.3639 13.8743ZM34.4852 13.8535C34.7137 13.8981 34.844 13.8264 34.9479 13.6582C34.9995 13.3488 34.8465 13.0923 34.671 12.8239C34.47 12.9508 34.219 12.9671 34.0624 13.1878C34.1796 13.4208 34.2434 13.6855 34.4852 13.8535Z" fill="#305E7A"></path>
    <path fill-rule="evenodd" clip-rule="evenodd" d="M20.7968 5.70993C20.7094 5.91042 20.4979 5.98133 20.3827 6.17167C20.6247 6.47538 20.8696 6.78277 21.1314 7.11114C21.0163 7.21068 20.8821 7.22138 20.71 7.24548C20.4597 6.92339 20.1975 6.58574 19.9347 6.24721C19.8119 6.19847 19.6925 6.18852 19.5517 6.29596C19.4579 6.63243 19.7254 6.97106 19.6168 7.34254C19.538 7.42836 19.4314 7.46868 19.2582 7.40998C19.1332 6.57093 19.0057 5.7149 18.875 4.83725C19.2183 4.7844 19.516 4.72041 19.817 4.69545C20.6432 4.62746 20.8995 4.90362 20.7968 5.70993ZM19.4828 5.89226C19.8302 5.88092 20.1504 5.88351 20.3802 5.6307C20.4321 5.47084 20.4413 5.33401 20.3514 5.16011C20.0348 4.90394 19.6921 5.03018 19.2877 5.17156C19.4299 5.39637 19.3588 5.63848 19.4828 5.89226Z" fill="#315E7A"></path>
    <path fill-rule="evenodd" clip-rule="evenodd" d="M35.3701 20.7813C35.2719 20.7813 35.2024 20.7813 35.1154 20.7813C34.9852 20.3952 35.1359 19.997 35.0617 19.6127C34.834 19.4872 34.6063 19.503 34.3475 19.5339C34.2365 19.956 34.3438 20.3953 34.2494 20.7743C34.1455 20.9179 34.0332 20.874 33.9088 20.8795C33.8 20.282 33.9896 19.7075 33.9817 19.0801C34.8508 19.1243 35.6879 19.167 36.559 19.2113C36.6207 19.7836 36.5649 20.3274 36.5494 20.8416C36.3972 20.9304 36.2984 20.9382 36.1936 20.8602C36.0752 20.4731 36.2418 20.0844 36.2187 19.6825C36.0013 19.5399 35.7725 19.6189 35.5084 19.6082C35.4657 20.0012 35.5067 20.3824 35.3701 20.7813Z" fill="#315E7A"></path>
    <path fill-rule="evenodd" clip-rule="evenodd" d="M33.5859 16.1762C34.4695 15.9968 35.3085 15.8083 36.1915 15.6895C36.2965 16.254 36.3936 16.777 36.4824 17.2543C36.3986 17.3947 36.3155 17.4174 36.201 17.4162C35.9557 17.0534 36.0611 16.5841 35.8632 16.1737C35.6361 16.1727 35.4206 16.23 35.1883 16.3096C35.2579 16.7125 35.3239 17.0938 35.3851 17.447C35.2581 17.5735 35.157 17.5324 35.0334 17.513C34.9593 17.1401 34.8867 16.7747 34.8141 16.4084C34.5463 16.3064 34.3549 16.5498 34.0983 16.434C34.0157 16.9623 34.2429 17.3783 34.2572 17.8162C34.167 17.9003 34.0564 17.8762 33.929 17.8859C33.7697 17.3308 33.6889 16.7665 33.5859 16.1762Z" fill="#315E7A"></path>
    <path fill-rule="evenodd" clip-rule="evenodd" d="M22.4663 7.12207C22.305 7.17526 22.1831 7.1772 22 7.1051C22.4693 6.2828 22.9332 5.4699 23.3789 4.68877C23.5471 4.59387 23.657 4.66024 23.8093 4.72984C24.0644 5.58641 24.3269 6.4673 24.5872 7.34127C24.4208 7.44417 24.2875 7.3764 24.1509 7.36754C24.0853 7.16012 24.0266 6.97487 23.9626 6.77156C23.5684 6.67948 23.1699 6.58706 22.743 6.63872C22.6515 6.79858 22.564 6.95131 22.4663 7.12207ZM23.8419 6.30972C23.729 5.91866 23.7342 5.5448 23.4632 5.17948C23.3205 5.59019 23.0366 5.86041 23.0241 6.26259C23.2928 6.32906 23.5379 6.32895 23.8419 6.30972Z" fill="#315E7A"></path>
    <path fill-rule="evenodd" clip-rule="evenodd" d="M7.31448 20.025C7.21674 19.8741 7.24031 19.7688 7.25887 19.6539C7.30416 19.6378 7.35336 19.6051 7.40266 19.605C7.88982 19.6036 8.37709 19.6136 8.86414 19.6082C9.30081 19.6033 9.50944 19.437 9.54633 19.088C9.59229 18.6532 9.42397 18.404 8.94993 18.3653C8.41411 18.3216 7.87201 18.3551 7.42882 18.3551C7.18481 18.1997 7.29515 18.0676 7.24312 17.9056C7.94401 17.8673 8.60644 17.9178 9.25976 17.9997C9.69874 18.0548 9.99756 18.5748 9.9662 19.0732C9.93634 19.5469 9.59997 19.9879 9.15963 20.0151C8.53531 20.0536 7.90676 20.025 7.31448 20.025Z" fill="#325E7B"></path>
    <path fill-rule="evenodd" clip-rule="evenodd" d="M31.4519 8.21039C31.3379 8.32486 31.2361 8.34777 31.0954 8.33804C30.9726 8.16802 30.8839 7.93943 30.6092 7.81859C30.4112 7.77168 30.1862 7.76389 30.1007 8.10231C30.1303 8.35825 30.325 8.55778 30.4556 8.78929C30.6731 9.17516 30.649 9.43119 30.3758 9.71518C30.0999 10.0017 29.7585 10.0651 29.396 9.85791C29.0639 9.66828 28.7673 9.4336 28.75 9.01032C28.851 8.86106 28.9799 8.91813 29.0982 8.92602C29.4258 9.61072 29.7253 9.7174 30.1336 9.27716C30.128 9.00546 29.9558 8.79653 29.8165 8.5701C29.5601 8.15375 29.5797 7.8923 29.8717 7.60436C30.1389 7.34074 30.4946 7.30183 30.8613 7.5165C31.1309 7.67462 31.3418 7.89284 31.4519 8.21039Z" fill="#33607C"></path>
    <path fill-rule="evenodd" clip-rule="evenodd" d="M33.3672 22.9057C33.4382 22.7828 33.4097 22.6399 33.5184 22.5448C34.2165 22.7549 34.916 22.9657 35.6108 23.1748C35.8015 22.9583 35.7767 22.6826 35.9011 22.4798C36.0526 22.3923 36.1456 22.4595 36.2439 22.5935C36.0553 23.2049 35.8626 23.8297 35.6731 24.4445C35.5543 24.4534 35.4635 24.4694 35.3653 24.3788C35.2849 24.1421 35.507 23.9339 35.4968 23.6181C34.8492 23.3124 34.0981 23.2119 33.3672 22.9057Z" fill="#33607C"></path>
    <path fill-rule="evenodd" clip-rule="evenodd" d="M34.0099 10.8398C33.8792 10.9335 33.8071 10.9852 33.7331 11.0382C33.4976 10.8867 33.4366 10.5775 33.1521 10.4606C32.6026 10.9031 32.0453 11.352 31.4877 11.8011C31.3195 11.7782 31.2607 11.6521 31.1797 11.5158C31.7521 11.0515 32.3214 10.5901 32.8961 10.124C32.8007 9.86102 32.59 9.703 32.4743 9.48176C32.499 9.33736 32.6084 9.28982 32.745 9.25293C33.1556 9.76806 33.5672 10.2844 34.0099 10.8398Z" fill="#37637E"></path>
    <path fill-rule="evenodd" clip-rule="evenodd" d="M33.3378 28.9467C33.3344 29.4698 32.9263 29.8766 32.4126 29.8688C31.9491 29.8618 31.5143 29.4314 31.5003 28.9659C31.4858 28.4835 31.9285 28.0319 32.4241 28.0236C32.94 28.015 33.3411 28.4203 33.3378 28.9467ZM31.7162 28.6738C31.675 29.3336 31.8622 29.6295 32.3413 29.6705C32.7896 29.7087 33.1424 29.4448 33.1954 29.0314C33.2515 28.5929 32.9711 28.3012 32.3832 28.1743C32.0814 28.2207 31.8757 28.3805 31.7162 28.6738Z" fill="#C9D5DC"></path>
    <path fill-rule="evenodd" clip-rule="evenodd" d="M38.0988 33.0157C38.2979 33.1296 38.2138 33.4224 38.4258 33.5304C38.6691 33.4101 38.5473 33.0403 38.8596 32.9355C39.0879 33.2578 38.9499 33.6051 38.9517 33.9697C38.6419 33.8859 38.8435 33.618 38.7254 33.4895C38.5677 33.6005 38.5905 33.8128 38.4558 33.9665C38.242 33.8796 38.2691 33.6396 38.1503 33.5017C37.982 33.6074 38.203 33.8566 37.9861 33.9436C38.0146 33.6332 37.9157 33.3076 38.0988 33.0157Z" fill="#B0C1CC"></path>
    <path fill-rule="evenodd" clip-rule="evenodd" d="M37.211 33.1786C37.1299 33.094 37.0143 33.1351 36.9609 33.0267C37.1804 32.9405 37.3995 32.9765 37.7173 32.9958C37.2381 33.2413 37.5565 33.6749 37.3104 34.0202C37.1735 33.7128 37.2663 33.4481 37.211 33.1786Z" fill="#C4D1D8"></path>
    <path fill-rule="evenodd" clip-rule="evenodd" d="M12.25 31.4542C12.25 30.4044 12.25 29.4045 12.25 28.372C12.6899 28.3033 13.1211 28.299 13.5396 28.3838C14.2705 28.5318 14.7353 29.1533 14.7285 29.9118C14.7217 30.6786 14.2569 31.2241 13.4913 31.3917C13.099 31.4777 12.7088 31.4777 12.25 31.4542Z" fill="#2D5B78"></path>
    <path fill-rule="evenodd" clip-rule="evenodd" d="M33.9531 36.3331C33.9531 35.2811 33.9531 34.2793 33.9531 33.249C34.4698 33.1937 34.9676 33.1616 35.4546 33.3357C36.085 33.5608 36.4582 34.1228 36.4344 34.7979C36.4085 35.5315 36.0197 36.0459 35.3509 36.2411C34.9105 36.3698 34.4638 36.357 33.9531 36.3331Z" fill="#2D5B78"></path>
    <path fill-rule="evenodd" clip-rule="evenodd" d="M29.1134 34.2958C28.6931 34.6629 28.1864 34.5088 27.6719 34.5139C27.6719 34.0735 27.6719 33.6708 27.6719 33.2441C27.9536 33.1827 28.2231 33.2049 28.4877 33.2181C29.1532 33.2513 29.3775 33.6334 29.1134 34.2958Z" fill="#2E5C78"></path>
    <path fill-rule="evenodd" clip-rule="evenodd" d="M8.12685 33.5735C8.14118 33.7011 8.15943 33.7897 8.15878 33.8782C8.15824 33.9667 8.13879 34.0552 8.12718 34.1474C7.72429 34.7447 7.12342 34.4551 6.58968 34.5485C6.48564 34.0913 6.56068 33.6861 6.53125 33.239C7.10941 33.2382 7.67488 33.0332 8.12685 33.5735Z" fill="#2F5D79"></path>
    <path fill-rule="evenodd" clip-rule="evenodd" d="M31.7164 28.6734C31.876 28.38 32.0816 28.2204 32.3836 28.1738C32.9713 28.3007 33.2517 28.5926 33.1958 29.0311C33.1428 29.4444 32.79 29.7085 32.3416 29.6701C31.8624 29.6291 31.6753 29.3334 31.7164 28.6734ZM32.6874 28.9053C32.8862 28.7682 32.8147 28.6213 32.7262 28.4778C32.5484 28.426 32.3924 28.4457 32.2362 28.4633C31.9986 28.7566 32.1743 29.0868 32.1261 29.4084C32.3297 29.3255 32.1363 29.0798 32.3138 29.0193C32.4373 28.9982 32.4778 29.1026 32.5576 29.1339C32.5687 29.2851 32.631 29.393 32.8437 29.437C32.8049 29.2526 32.6418 29.1553 32.6411 28.9979C32.6747 28.9761 32.6902 28.9451 32.6874 28.9053Z" fill="#38637F"></path>
    <path fill-rule="evenodd" clip-rule="evenodd" d="M32.5551 29.135C32.5511 29.0703 32.5756 29.0231 32.6385 28.999C32.6392 29.1563 32.8022 29.2534 32.8409 29.4377C32.6284 29.3937 32.5662 29.2862 32.5551 29.135Z" fill="#C3D0D8"></path>
    <path fill-rule="evenodd" clip-rule="evenodd" d="M32.2366 28.5759C32.3604 28.5518 32.4838 28.537 32.6041 28.5877C32.7245 28.6685 32.6398 28.7854 32.659 28.8831C32.5383 28.8831 32.4176 28.8831 32.3137 28.8831C32.1954 28.7863 32.2477 28.6746 32.2366 28.5759Z" fill="#39647F"></path>
    <path d="M15.875 30.3828H16.6232" stroke="white" stroke-width="0.2" stroke-linecap="round"></path>
    <path d="M21.3984 30.3828H22.1466" stroke="white" stroke-width="0.2" stroke-linecap="round"></path>
    <path d="M27.125 30.3828H27.8732" stroke="white" stroke-width="0.2" stroke-linecap="round"></path>
  </g>
  <defs>
    <clipPath id="clip0_1639_9563">
      <rect width="44" height="38" fill="white"></rect>
    </clipPath>
  </defs>
</svg>
