<svg width="132" height="36" viewBox="0 0 132 36" fill="none" xmlns="http://www.w3.org/2000/svg">
<path d="M39.8922 8.74023C42.1991 8.74023 43.3538 9.81361 43.3538 11.9581V12.3609C43.3538 14.5054 42.1991 15.5787 39.8922 15.5787H33.8332V20.0027H31.2383V8.74023H39.8922ZM40.7564 11.9581C40.7564 11.4225 40.4683 11.1548 39.8922 11.1548H33.8332V13.1665H39.8922C40.4683 13.1665 40.7564 12.8987 40.7564 12.3609V11.9581Z" fill="#023BE2"/>
<path d="M53.9171 8.74023C56.224 8.74023 57.3787 9.81361 57.3787 11.9581V12.3609C57.3787 14.5054 56.224 15.5787 53.9171 15.5787H53.4838L58.2428 20.0027H54.5744L49.8154 15.5787H47.8606V20.0027H45.2656V8.74023H53.9171ZM54.7813 11.9581C54.7813 11.4225 54.4932 11.1548 53.9171 11.1548H47.8581V13.1665H53.9171C54.4932 13.1665 54.7813 12.8987 54.7813 12.3609V11.9581Z" fill="#023BE2"/>
<path d="M61.8801 20.0027H59.2852V8.74023H61.8801V20.0027Z" fill="#023BE2"/>
<path d="M66.384 12.8579V20.0008H63.7891V8.73828H65.6233L69.8456 12.6633L74.0679 8.73828H75.9021V20.0008H73.3072V12.8579L69.8456 16.0757L66.384 12.8579Z" fill="#023BE2"/>
<path d="M77.8125 15.9796V12.7617C77.8125 10.0794 79.2552 8.73828 82.1407 8.73828H85.6023C88.4877 8.73828 89.928 10.0794 89.928 12.7617V15.9796C89.928 18.6619 88.4853 20.003 85.6023 20.003H82.1407C79.2552 20.003 77.8125 18.6619 77.8125 15.9796ZM80.4099 12.7617V15.9796C80.4099 17.053 80.986 17.5885 82.1407 17.5885H85.6023C86.7569 17.5885 87.3331 17.053 87.3331 15.9796V12.7617C87.3331 11.6884 86.7569 11.1528 85.6023 11.1528H82.1407C80.986 11.1528 80.4099 11.6884 80.4099 12.7617Z" fill="#023BE2"/>
<path d="M99.6257 8.74057C102.511 8.74057 103.951 10.0817 103.951 12.764H101.356C101.356 11.6906 100.78 11.1551 99.6257 11.1551H96.1641C95.0095 11.1551 94.4333 11.6906 94.4333 12.764V15.9819C94.4333 17.0553 95.0095 17.5908 96.1641 17.5908H99.6257C100.78 17.5908 101.356 17.0553 101.356 15.9819H103.951C103.951 18.6642 102.509 20.0053 99.6257 20.0053H96.1641C93.2787 20.0053 91.8359 18.6642 91.8359 15.9819V12.7617C91.8359 10.0794 93.2787 8.73828 96.1641 8.73828H99.6257V8.74057Z" fill="#023BE2"/>
<path d="M110.619 14.8696L104.023 8.73828H107.692L111.914 12.6633L116.136 8.73828H119.805L113.212 14.8696V20.003H110.617V14.8696H110.619Z" fill="#023BE2"/>
<path d="M128.537 8.74023C130.844 8.74023 131.998 9.81361 131.998 11.9581H129.403C129.403 11.4225 129.115 11.1548 128.537 11.1548H123.344C122.768 11.1548 122.478 11.4225 122.478 11.9581V12.3609C122.478 12.8964 122.766 13.1665 123.344 13.1665H128.537C130.844 13.1665 131.998 14.2399 131.998 16.3843V16.7871C131.998 18.9316 130.844 20.005 128.537 20.005H123.344C121.037 20.005 119.883 18.9316 119.883 16.7871H122.478C122.478 17.3227 122.766 17.5927 123.344 17.5927H128.537C129.113 17.5927 129.403 17.325 129.403 16.7871V16.3843C129.403 15.8488 129.115 15.5787 128.537 15.5787H123.344C121.037 15.5787 119.883 14.5054 119.883 12.3609V11.9581C119.883 9.81361 121.037 8.74023 123.344 8.74023H128.537Z" fill="#023BE2"/>
<path d="M26.0701 6.99641L13.0338 0L0 6.99641V7.62351V20.9893V35.0347L13.637 27.6607L26.0701 20.9893V6.99641ZM2.33644 19.7351V8.24831L11.8693 3.13088V24.8502L2.33644 19.7351ZM2.33644 22.2411L10.7072 26.7338L2.33644 31.2607V22.2411ZM23.7361 19.7351L14.2033 24.8525V3.13317L23.7361 8.2506V19.7351Z" fill="#023BE2"/>
</svg>
