<svg width="158" height="176" viewBox="0 0 158 176" fill="none" xmlns="http://www.w3.org/2000/svg">
<path d="M41.9739 29.8358C42.984 29.7425 43.053 31.3294 42.0233 31.3942C41.7308 31.4126 41.1143 31.1482 40.8884 31.2911C40.4226 31.5923 40.2405 32.106 39.6555 32.2346C38.9222 32.3961 38.9262 32.6856 38.4728 33.2264C38.0335 33.7499 38.0132 33.7562 38.4453 34.3432C38.6814 34.6741 38.7864 35.3811 38.8051 35.7846C38.8326 36.4023 37.9416 36.4897 38.2813 37.2674C38.537 37.8551 38.3881 37.6144 37.8688 37.8853C37.3614 38.1506 37.3427 38.8548 37.0674 39.2888C36.5168 40.155 35.2619 40.5656 35.0006 41.6201C34.8987 42.0331 35.331 42.795 34.9215 43.1028C34.5215 43.4038 34.0793 43.698 33.5946 43.8436C33.1396 43.9805 32.539 43.9484 32.189 44.3197C31.6511 44.8924 31.7421 45.8246 31.4912 46.5226C31.2638 47.1666 30.9626 47.417 30.561 47.9461C30.1311 48.5123 29.8881 49.1977 29.4174 49.7346C29.1885 49.9954 28.7109 50.7659 28.4128 50.9028C27.9045 51.137 27.1555 50.4816 26.7461 51.1213C26.4072 51.6507 26.2473 51.9942 25.7704 52.442C25.2989 52.8838 25.3806 53.5603 25.0278 54.0638C24.6961 54.5367 24.1189 54.6376 23.6844 54.9737C23.1903 55.3543 23.3957 55.863 23.1518 56.3418C22.809 57.0156 20.9895 56.5112 20.3495 56.6257C19.8069 56.7229 18.9676 56.6815 18.4892 56.961C18.203 57.1289 17.4586 57.7829 17.2611 57.4073C16.9897 56.8841 17.0195 56.5328 17.1104 55.9748C17.1787 55.5512 17.3567 55.1595 16.7834 55.1927C15.1537 55.2877 14.1097 55.7972 13.109 57.0982C12.5506 57.8242 12.3782 58.4487 11.5372 58.9374C10.8597 59.3315 10.1029 59.6535 9.62202 60.3027C8.96322 61.1913 9.21975 63.9902 10.5805 64.1709C11.3027 64.2666 11.7552 64.8227 12.5458 64.7714C13.4281 64.7136 12.913 65.6127 12.6259 66.1183C12.2463 66.787 11.9201 67.3841 12.1906 68.1598C12.4541 68.9151 12.884 69.708 13.4461 70.2828C13.8384 70.6832 14.3175 70.6068 14.8345 70.5288C15.9056 70.3672 15.0775 71.1189 15.2673 71.8141C15.7176 73.4616 17.7237 76.0489 16.6853 77.7669C16.4688 78.1238 16.2618 77.9731 16.1684 78.4842C16.1033 78.8445 15.8102 78.4731 15.556 78.5465C15.6046 78.5327 15.5098 77.0951 14.9802 77.1231C14.2132 77.1618 13.5944 77.6963 12.8407 77.7894C12.5661 77.8231 12.1035 77.6283 11.9075 77.8901C11.723 78.1364 11.6917 78.5559 11.7389 78.8508C11.2572 78.7775 10.7231 78.7964 10.2651 78.6144C9.74525 78.4069 9.56236 77.7551 9.03617 77.5518C8.48339 77.3377 8.16805 77.8596 7.69419 78.0038C7.13903 78.1732 6.17579 77.667 5.62062 77.5368C5.20642 77.4398 4.69831 77.1268 4.26382 77.2901C3.84962 77.4458 3.64643 78.179 3.76643 78.5607C3.88882 78.9466 3.71632 79.5931 3.19712 79.3995C2.95473 79.3093 2.72343 79.4046 2.47559 79.3654C2.14304 79.3124 1.9869 78.9844 1.66543 78.9132C0.475835 78.65 0.695382 80.5178 0.52186 81.0338C0.383111 81.4468 -0.363655 81.6841 0.219978 82.1753C0.372874 82.3038 0.604356 82.6137 0.802082 82.6589C0.995717 82.7024 1.15032 82.4584 1.31344 82.6577C1.80827 83.2608 2.57616 83.6835 2.76758 84.4626C2.98167 85.3406 4.01768 86.1399 4.77842 86.5636C5.71165 87.0828 6.67471 87.6609 7.69112 87.9856C8.22601 88.1555 8.78594 88.0374 9.33105 88.0621C10.0926 88.0965 9.41184 87.066 10.2691 87.3849C10.7458 87.5622 11.4604 87.5785 11.8613 87.2119C12.149 86.9484 12.4556 86.7225 12.8705 87.0153C13.0369 87.1323 12.0455 87.962 11.9709 88.0248C11.4314 88.4828 10.8847 88.1964 10.3185 88.5274C9.87139 88.7889 9.24412 88.8322 8.85822 89.1286C8.34839 89.5212 7.94834 88.9161 7.46527 89.2019C7.2505 89.3294 6.57909 89.7803 6.40028 89.4435C6.14614 88.9638 6.15005 88.598 5.50779 88.5823C4.56109 88.5631 3.98938 89.3933 4.07325 90.2775C4.19018 91.4575 5.44028 92.4508 6.1884 93.2543C7.01493 94.1425 7.84401 94.9479 8.60628 95.8934C9.40946 96.8899 9.94349 98.0565 10.8847 98.9686C11.3364 99.4061 11.9835 99.505 12.2446 100.108C12.5371 100.783 13.2312 100.684 13.8186 100.932C14.3269 101.146 14.6993 101.816 15.3267 101.402C15.5119 101.28 15.7801 100.962 16.0343 100.995C16.4296 101.046 16.6334 101.121 17.039 100.978C17.515 100.81 18.3415 100.816 18.7172 100.488C19.2591 100.018 19.5807 99.8849 20.2583 99.7869C20.8245 99.7049 21.026 99.5846 21.3335 99.1712C21.6676 98.7217 22.5603 99.0147 22.892 98.4038C23.037 98.1379 23.0636 97.8379 23.2245 97.572C23.4489 97.203 23.8245 97.0196 24.0606 96.6819C24.4535 96.1206 24.0534 95.605 23.7916 95.1184C23.6888 94.9269 23.921 94.8519 24.0301 94.7681C24.3257 94.541 24.1257 94.2093 24.0199 93.9329C23.7736 93.2945 23.852 92.5269 24.5391 92.1624C24.3853 92.2443 24.445 93.1293 24.4498 93.28C24.4702 94.0992 24.8152 93.6748 25.3344 93.7878C25.4991 93.8234 24.5556 94.5386 24.5532 94.7093C24.5406 95.5537 25.1336 95.558 25.6903 95.643C25.4505 95.6038 25.3061 96.161 25.31 96.3429C25.3203 96.7322 25.3141 96.6719 25.0443 96.8703C24.6599 97.1537 24.6083 97.5248 24.6725 97.9711C24.7588 98.5574 25.1399 98.5557 25.3743 98.9871C25.5335 99.2793 25.1249 99.4627 25.4771 99.8389C25.9351 100.328 25.7264 100.697 25.9634 101.26C26.0951 101.577 26.208 101.804 26.1988 102.158C26.1838 102.724 25.3492 102.955 25.2679 103.552C25.1651 104.288 25.2168 105.139 24.7494 105.78C24.0514 106.74 25.4104 107.204 25.0661 108.031C24.8293 108.599 25.1767 108.676 25.303 109.161C25.4089 109.57 25.19 110.102 25.2026 110.531C25.2199 111.085 25.5156 111.558 25.5493 112.064C25.594 112.751 25.1212 112.812 25.6371 113.438C25.9076 113.765 25.4928 114.062 25.4198 114.369C25.3359 114.722 25.8347 115.136 26.1045 115.286C26.5116 115.513 25.9971 116.002 26.2174 116.379C26.4338 116.75 26.8119 116.733 26.8698 117.187C26.9639 117.935 27.4463 118.486 27.4831 119.325C27.4901 119.481 27.2194 120.243 27.3215 120.323C27.8728 120.76 27.607 120.763 27.7615 121.422C27.8486 121.488 27.9285 121.562 28.0008 121.643C28.0463 121.889 27.873 122.265 27.8847 122.53C27.9082 123.1 28.0274 123.66 28.0755 124.228C28.1876 125.556 28.2347 126.455 28.8462 127.648C29.0753 128.095 29.0926 128.616 29.3216 129.073C29.4205 129.269 29.7435 130.23 29.924 130.279C30.225 130.361 30.2653 130.937 30.3404 131.208C30.3946 131.405 30.3851 131.764 30.6125 131.87C30.771 131.946 31.1112 131.857 31.2314 131.99C31.1184 131.863 30.1059 132.401 31.0407 132.96C31.6627 133.332 31.5372 134.232 31.9756 134.767C32.1897 135.029 32.5072 134.845 32.5536 135.222C32.5701 135.358 32.4784 135.927 32.6313 135.995C32.8422 136.088 33.4666 136.057 33.4768 136.389C33.4862 136.714 33.2666 136.904 33.5121 137.221C33.9535 137.792 34.3488 138.246 34.4743 139.044C34.4052 139.17 34.3473 139.3 34.2987 139.435C34.2979 139.715 34.498 139.984 34.6422 140.205C34.9299 140.65 34.9669 141.068 35.1801 141.532C35.3761 141.962 35.6059 142.202 35.5887 142.703C35.57 143.252 35.602 143.757 35.6656 144.304C35.7331 144.889 35.6961 145.539 35.8224 146.11C35.8906 146.42 36.2828 146.508 36.391 146.796C36.5415 147.204 36.2264 147.641 36.6702 147.879C36.863 147.982 36.9886 148.487 37.042 148.666C37.2711 149.424 37.5015 150.207 37.8271 150.93C37.9737 151.255 38.137 151.568 38.3997 151.815C38.6656 152.066 39.166 151.973 39.3446 152.25C39.7588 152.881 40.2371 153.393 40.7407 153.938C40.983 154.2 40.9321 154.706 41.1054 155.021C41.3352 155.441 41.4214 155.683 41.7351 156.062C42.0441 156.434 41.8503 156.91 42.1602 157.257C42.4834 157.618 42.51 158.018 42.5539 158.482C42.5899 158.85 42.8897 158.998 42.9421 159.342C42.9945 159.681 42.8519 160.201 43.0385 160.506C43.2073 160.775 43.3413 161.339 43.6551 161.49C43.9765 161.645 43.7461 162.284 43.9406 162.357C44.0582 162.402 44.1412 162.168 44.2511 162.166C44.3914 162.164 44.5005 162.529 44.5719 162.616C44.5397 162.577 45.5609 163.767 45.2127 163.704C44.808 163.632 44.6967 162.966 44.2511 162.957C43.8417 162.948 44.2182 163.928 44.328 164.15C44.815 165.134 44.877 166.071 45.095 167.155C45.1924 167.632 45.5548 167.866 45.6567 168.272C45.7869 168.794 45.3947 169.283 45.9085 169.684C46.3201 170.005 46.3279 170.473 46.5076 170.919C46.75 171.523 47.492 171.696 47.892 172.188C48.1978 172.564 48.5467 173.228 49.1234 173.117C49.6794 173.01 49.452 173.502 49.6997 173.894C50.3484 174.92 51.2817 174.457 52.0016 175.268C53.0072 176.413 53.5396 175.454 54.3067 174.778C55.0134 174.155 55.9309 173.77 56.8345 173.544C57.4722 173.384 57.5216 171.822 57.4478 171.301C57.4025 170.976 57.3834 170.436 57.5027 170.128C57.6188 169.827 58.4392 169.177 58.7702 169.272C59.5309 169.49 59.7576 169.188 60.4203 169.011C60.8894 168.888 61.3647 168.966 61.8327 168.849C62.086 168.785 62.8798 168.807 62.9943 168.565C63.0649 168.419 63.4099 168.296 63.2217 168.11C62.9959 167.882 62.8641 167.657 62.5952 167.443C61.4886 166.563 62.4029 165.69 63.0665 164.891C63.4014 164.486 63.766 164.025 64.2037 163.729C64.3858 163.605 63.6625 163.182 64.0391 162.718C64.3529 162.33 64.687 162.058 65.1888 162.251C65.8459 162.503 66.188 162.525 66.8906 162.423C67.2388 162.372 68.1455 162.272 68.3321 161.914C68.4427 161.7 68.2129 161.633 68.0929 161.526C67.8882 161.344 67.9425 160.925 67.9377 160.685C67.929 160.258 68.0757 159.633 67.9165 159.246C67.7284 158.801 67.6075 158.207 67.7251 157.73C67.8662 157.162 67.8765 156.653 67.6003 156.119C67.3972 155.727 67.0051 155.166 67.4481 154.824C68.0795 154.343 67.2465 154.103 67.339 153.629C67.4379 153.157 67.6324 152.699 67.7783 152.241C67.9822 151.603 67.9963 151.469 68.5344 151.031C68.6788 150.914 69.6811 150.035 69.6795 149.825C69.6765 149.46 68.8983 149.15 68.904 148.834C68.907 148.659 69.9596 148.341 70.1486 148.157C70.4779 147.838 70.5971 147.187 70.8702 146.796C71.2576 146.251 71.0749 145.622 71.0309 144.974C70.9893 144.355 70.7532 143.863 70.1964 143.549C69.9916 143.434 69.3611 143.205 69.4663 142.873C69.725 142.063 71.1117 144.064 70.6348 142.575C70.4089 141.868 70.1541 141.146 69.8333 140.476C69.6388 140.071 69.1054 139.445 69.4929 138.986C69.8803 138.528 70.2488 138.48 70.1384 137.869C69.9572 136.873 69.4286 136.023 69.2207 135.017C68.9909 133.91 69.2527 133.232 69.9248 132.414C70.1515 132.142 70.4904 131.388 70.525 131.039C70.5468 130.816 71.135 130.534 71.292 130.436C71.6394 130.222 71.9491 130.181 72.3359 130.11C73.0982 129.973 73.0191 130.638 73.5169 130.947C74.1788 131.358 74.9576 129.804 75.2211 129.407C75.4228 129.102 75.5145 128.665 75.9074 128.552C76.0039 128.525 76.2689 127.145 76.3349 126.925C76.4869 126.415 77.3528 126.662 77.6242 126.921C78.1026 127.375 78.5354 127.403 79.2108 127.156C79.7487 126.959 80.2923 126.636 80.8429 126.414C81.5533 126.128 81.9205 125.911 82.5087 125.438C82.8334 125.176 82.6372 124.066 82.5834 123.696C82.5401 123.401 82.2375 123.208 82.192 122.897C82.1088 122.321 82.6162 122.457 82.9606 122.235C83.2539 122.045 83.5643 121.883 83.8578 121.69C84.1747 121.482 84.3605 121.103 84.6861 120.931C85.3135 120.606 86.0146 120.656 86.6436 120.269C87.2609 119.889 88.2772 119.231 88.3235 118.424C88.38 117.457 88.515 116.917 89.4144 116.43C90.2214 115.993 91.2103 115.811 91.9562 115.285C92.7664 114.715 93.1429 113.64 93.7608 112.894C94.0566 112.538 94.3013 112.138 94.6917 111.875C95.0125 111.659 95.3929 111.437 95.3489 110.987C95.2596 110.06 96.2288 110.072 96.4971 109.227C96.6775 108.657 97.4586 108.461 97.8931 108.058C98.0125 107.948 98.2807 107.911 98.3481 107.84C98.4045 107.781 98.7889 106.874 98.712 106.852C98.9668 106.928 99.1088 107.175 99.4115 107.169C99.6844 107.164 99.8954 106.938 100.154 106.876C100.608 106.766 100.891 106.318 101.325 106.135C102.39 105.689 103.826 105.434 104.6 104.507C105.364 103.591 106.782 102.879 106.445 101.456C106.374 101.156 106.994 100.791 107.166 100.589C107.557 100.128 107.63 99.4243 107.562 98.844C107.484 98.1804 106.885 98.0491 106.573 97.519C106.31 97.0697 106.961 96.4351 107.256 96.1418C107.715 95.6872 108.568 95.941 108.961 95.4715C109.272 95.101 110.128 95.2153 110.596 95.1291C110.983 95.0578 111.458 95.108 111.552 94.6546C111.663 94.1197 111.67 94.1197 112.214 93.9363C112.543 93.8244 112.239 92.7975 112.595 92.7975C112.923 92.7975 112.798 93.8381 112.92 94.0559C112.982 94.1657 114.027 93.828 114.201 93.828C114.822 93.828 115.004 93.5904 115.315 93.0695C115.596 92.6006 117.211 93.8362 117.615 92.8421C118.007 91.8774 117.928 91.0617 117.347 90.2081C117.194 89.9838 117.023 89.3269 117.005 89.0494C116.973 88.5775 116.904 88.4669 116.629 87.9687C116.379 87.5149 116.717 87.0228 116.643 86.5418C116.533 85.8065 116.367 85.7284 116.79 85.0729C117.104 84.5862 116.607 84.005 116.147 83.8654C115.61 83.7014 115.541 83.9293 115.594 83.1767C115.638 82.5278 115.456 82.1513 114.916 81.7855C114.336 81.3921 114.294 80.9474 114.748 80.4387C115.194 79.9388 115.13 79.6494 115.094 79.04C115.066 78.5815 115.275 77.9852 115.116 77.5354C114.802 76.6547 113.196 77.4878 112.623 77.0072C112.139 76.601 111.098 75.0563 112.234 74.9104C112.891 74.8257 113.043 74.2893 113.103 73.7077C113.172 73.0446 113.38 73.203 113.815 72.9132C114.386 72.5333 116.392 73.0344 116.113 71.7216C115.969 71.0255 116.035 70.8686 115.327 70.6741C114.769 70.5204 115.121 69.7961 114.599 69.5867C114.226 69.4368 113.538 70.0455 113.29 69.6368C113.015 69.189 112.592 69.0298 112.315 68.6251C112.148 68.3797 111.841 68.37 111.579 68.2748C111.069 68.0911 111.593 67.3329 111.609 67.0847C111.656 66.3586 112.31 66.3017 112.675 65.7782C112.953 65.3809 113.334 66.4781 113.469 66.668C113.726 67.0271 114.299 67.5156 114.725 67.1701C115.021 66.9301 114.746 66.2981 115.031 66.1531C115.508 65.9103 116.249 66.7578 116.527 67.0287C116.875 67.3698 117.142 67.3709 117.523 67.5937C118.089 67.9259 118.59 67.5913 119.069 67.2145C119.724 66.6953 119.49 67.7533 119.329 68.0285C119.002 68.5958 119.271 68.9504 119.718 69.255C119.795 69.3076 119.329 70.6075 119.287 70.8886C119.196 71.4937 119.655 71.6894 120.165 71.8489C120.584 71.9809 121.234 72.1678 121.661 72.1949C122.255 72.2326 122.615 72.2514 123.205 72.4571C124.124 72.7779 124.503 71.8133 125.324 72.0446C126.121 72.2693 126.351 72.0301 127.096 71.8902C127.704 71.7756 128.307 72.129 128.952 72.0385C129.679 71.9357 130.103 72.3016 130.831 71.9616C131.427 71.6827 132.191 71.5968 132.698 72.1326C132.551 72.2698 132.42 72.4208 132.305 72.5851C132.204 72.8791 132.494 73.0262 132.492 73.3C132.49 73.5415 132.351 73.6329 132.261 73.8391C132.151 74.0948 132.249 74.4275 132.168 74.7006C132.097 74.9403 131.767 75.0311 131.543 75.0618C130.941 75.1441 131.214 75.875 131.176 76.2879C130.116 75.8593 129.51 77.1037 128.68 77.4326C127.675 77.831 127.382 79.1247 127.293 80.1113C127.176 81.4211 128.445 82.3298 128.251 83.5308C128.219 83.7253 128.111 85.1876 128.616 84.9418C129.129 84.6972 129.174 85.0681 129.551 84.4959C129.149 85.1046 130.519 85.6413 130.962 85.3805C131.21 85.2341 131.711 84.9992 131.869 84.7688C132.035 84.5272 131.88 84.0319 131.882 83.7445C131.883 83.3128 131.794 82.7866 132.006 82.3897C132.161 82.1008 132.423 81.8874 132.462 81.5421C132.495 81.2549 132.431 81.0028 132.582 80.7382C133.032 79.9519 132.911 80.7638 133.223 80.9457C133.915 81.3464 133.654 81.5602 133.675 82.2856C133.69 82.8005 134.208 82.9724 134.434 83.3891C134.619 83.7304 134.312 84.5075 134.162 84.8286C133.882 85.4329 134.413 85.6725 134.754 86.083C135.285 86.7213 135.025 86.9516 135.047 87.6465C135.057 87.9351 135.318 88.0587 135.318 88.3536C135.318 88.6391 135.198 88.9162 135.222 89.2014C135.259 89.6383 135.656 90.0971 135.701 90.6111C135.757 91.248 135.521 91.5653 136.026 92.0326C136.595 92.5597 136.708 91.8818 136.899 91.5405C136.904 91.5334 137.897 92.0478 138.054 92.0749C138.691 92.1835 138.629 91.269 138.757 90.9218C138.901 90.5311 139.263 90.1965 139.437 89.8123C139.746 89.1308 139.221 88.8343 139.283 88.2791C139.406 87.2051 139.018 86.3177 138.838 85.2796C138.759 84.824 138.644 84.2457 139.315 84.1792C140.082 84.1035 140.098 83.7259 140.289 83.0208C140.465 82.3749 139.879 82.1126 139.922 81.5421C139.968 80.9416 140.471 80.7679 140.328 80.0491C140.214 79.4753 139.881 78.7767 140.182 78.2017C140.574 77.4548 141.128 78.4468 141.574 78.4182C141.8 78.404 141.838 78.1547 142.035 78.1197C142.297 78.0739 142.562 78.2484 142.819 78.2711C143.269 78.3111 143.886 78.2048 144.102 77.7464C144.288 77.352 143.985 77.0068 144.053 76.6076C144.119 76.2089 144.239 75.3137 144.432 74.9689C144.574 74.7132 144.904 74.6987 145.065 74.4611C145.244 74.1957 145.134 73.8713 145.203 73.5812C145.343 73.0008 145.885 72.6676 145.978 72.0499C146.063 71.484 146.053 70.9056 146.125 70.3385C146.167 70.0123 145.276 69.8226 145.227 69.3939C145.179 68.9712 146.088 68.2931 146.366 68.0355C146.782 67.6496 146.854 67.0542 147.167 66.5925C147.511 66.0847 147.379 65.3553 147.564 64.7874C147.811 64.0266 147.593 63.4134 147.359 62.6569C147.218 62.1996 146.79 61.4482 147.353 61.0788C147.732 60.8301 148.221 60.9953 148.609 60.6803C149.012 60.3537 149.257 59.8626 149.479 59.4063C149.778 58.7965 150.056 58.4723 150.567 58.0327C151.009 57.6534 151.112 57.037 151.548 56.6554C151.926 56.3276 152.315 56.3779 152.695 56.0578C153.021 55.7828 153.289 56.066 153.676 55.8664C154.374 55.5052 154.542 55.3465 155 55.968C155.357 56.4522 155.71 56.6511 156.314 56.7004C156.986 56.7549 157.007 56.7321 157.031 56.0684C157.063 55.2163 155.702 54.9081 155.473 53.9719C155.282 53.1896 155.689 53.2535 156.192 52.9277C156.604 52.6613 156.904 52.0992 157.258 51.7497C157.707 51.3062 157.852 51.1143 157.5 50.5772C157.399 50.4223 157.125 50.3396 157.076 50.1581C157.005 49.8973 157.445 49.5911 157.315 49.3554C157.252 49.2345 156.511 49.1703 156.325 49.0891C155.899 48.9025 155.489 48.8103 155.076 49.0798C154.599 49.3903 154.102 48.6264 153.672 48.4931C153.23 48.3564 152.543 48.8675 152.126 48.9915C151.468 49.1863 151.908 48.5098 152.105 48.3079C152.456 47.9488 152.847 47.5747 153.1 47.1357C153.277 46.8272 153.423 46.3605 152.91 46.293C152.42 46.2291 152.512 45.5981 152.464 45.1992C152.42 44.8328 151.509 44.8629 151.493 45.2925C151.486 45.5541 151.618 45.6126 151.351 45.76C151.197 45.8471 150.811 45.8659 150.842 45.5746C150.914 44.9839 151.036 44.9727 151.516 44.4978C151.948 44.0708 151.796 43.4882 151.222 43.4221C150.679 43.3602 150.886 43.4159 150.581 43.0295C150.011 42.3065 149.688 42.5194 149.126 42.977C148.643 43.3711 148.159 43.779 147.732 44.235C147.468 44.5181 147.403 45.4005 146.987 45.4546C146.272 45.5502 146.091 45.3342 145.492 45.0496C145.06 44.8443 144.703 45.1189 144.227 44.8469C143.915 44.6684 143.229 44.5355 143.199 44.1307C143.143 43.3877 142.539 44.4601 142.426 44.6081C142.091 45.0387 141.601 45.1754 141.189 45.5021C140.89 45.739 140.987 46.3462 140.74 46.6612C140.349 47.16 139.988 47.5254 139.72 48.0944C139.562 48.4273 138.688 48.3961 138.389 48.4576C138.114 48.5144 138.071 48.8665 137.84 48.834C137.41 48.7719 136.943 48.5454 136.532 48.8345C136.256 49.0295 136.092 49.692 135.913 49.9885C135.763 50.2358 136.179 50.7434 135.885 50.9527C135.573 51.1695 135.02 51.0915 134.663 51.2672C134.395 51.3993 134.02 51.7779 133.855 52.0197C133.654 52.3174 133.171 52.4012 133.124 52.7558C133.081 53.0871 133.588 53.5208 133.321 53.787C133.056 54.0517 132.721 54.3065 132.396 54.4929C132.148 54.6372 131.885 54.2713 131.602 54.2992C130.961 54.3619 129.877 54.6831 129.377 55.145C128.962 55.5249 128.219 53.9363 127.697 54.5992C127.489 54.8603 127.812 55.4624 127.714 55.8396C127.624 56.2005 127.984 56.5235 127.965 56.9003C127.95 57.187 129.768 57.3116 130.096 57.3965C130.454 57.4889 130.942 57.785 130.703 58.2302C130.41 58.7784 130.549 59.0847 130.515 59.6751C130.462 60.6288 129.276 59.6572 128.832 60.4759C128.682 60.7548 127.972 60.5073 127.71 60.6864C127.176 61.0519 126.81 60.9072 126.196 60.9217C125.049 60.9484 124.247 61.9377 123.101 61.1102C122.298 60.5306 121.863 60.6181 121.03 61.2106C120.848 61.3405 120.621 61.5992 120.379 61.5573C120.16 61.5188 119.692 61.356 119.532 61.6043C119.349 61.8909 119.677 62.3968 119.051 62.1402C118.781 62.0305 118.619 61.7081 118.623 61.7105C118.393 61.5396 117.991 61.7262 117.755 61.5353C117.638 61.4393 117.741 61.3025 117.546 61.162C117.024 60.7882 116.405 61.7929 116.295 61.7458C115.951 61.6011 115.524 61.0173 115.158 60.8051C114.772 60.5811 114.556 60.1887 114.33 59.8153C114.136 59.4933 114.875 59.0446 114.684 58.5926C114.588 58.3662 114.381 58.2773 114.183 58.169C113.98 58.0575 114.1 57.7812 113.915 57.6432C113.783 57.5448 114.427 56.5746 114.408 56.3073C114.362 55.6558 114.402 55.5219 114.043 54.9544C113.457 54.0297 112.791 53.9921 112.116 54.7763C111.705 55.2505 111.672 55.136 111.078 55.1694C110.911 55.1788 110.195 55.2234 110.106 55.3732C109.87 55.7752 109.923 56.0764 110.182 56.3839C110.684 56.9709 110.229 57.0795 109.955 57.5784C109.676 58.0817 109.644 58.5109 109.57 59.0772C109.509 59.5521 109.21 59.8971 109.162 60.3777C109.109 60.9315 109.708 61.5789 109.987 62.0103C110.298 62.4946 110.366 63.4531 110.248 64.0091C110.235 64.0672 110.234 65.0318 109.933 64.7419C109.65 64.4693 109.228 64.5615 108.908 64.6694C108.133 64.9302 107.293 65.0086 106.48 64.9803C105.789 64.956 105.369 64.2811 104.694 64.1823C104.251 64.1175 104.003 64.5516 103.631 64.7047C103.153 64.8995 102.469 64.7671 102.04 64.509C101.69 64.3 101.539 63.6793 101.049 63.744C100.782 63.7795 100.696 64.0416 100.412 64.0048C100.113 63.9661 99.919 63.6946 99.6389 63.6053C99.1565 63.4515 98.8978 63.9912 98.4601 63.5209C98.1386 63.1759 98.1329 62.7014 97.5926 62.5856C97.075 62.4752 96.9415 63.0351 96.5039 63.074C95.9181 63.1311 95.7966 62.9417 95.3542 62.5524C94.9589 62.2045 93.116 62.0596 93.0446 61.5912C92.9442 60.9339 92.996 60.5642 92.6053 59.9678C92.2109 59.3666 91.8195 59.7205 91.1701 59.6555C90.7757 59.616 90.7811 59.1282 90.5113 58.943C90.2957 58.7948 89.5598 58.7175 89.2919 58.7845C88.7318 58.9234 88.2409 59.2304 87.7593 59.5449C87.855 59.4796 86.9045 59.1732 86.819 59.1779C86.5515 59.1921 86.1837 59.2594 86.0355 59.5192C85.9783 59.6187 85.9713 59.9012 85.8709 59.9685C85.9225 59.9335 85.0505 59.5645 84.9015 59.5521C84.5289 59.52 83.7932 59.6007 83.4678 59.4749C83.1557 59.3545 83.4411 58.7632 83.3502 58.5294C83.1383 57.9895 82.3347 58.0342 81.8765 58.1639C81.5683 58.2508 81.1722 58.7325 80.8938 58.267C80.6663 57.8874 80.0209 57.5545 79.6139 57.4056C79.1361 57.2303 78.8389 57.0323 78.3292 57.3036C77.5308 57.7287 77.6595 56.9424 77.0932 56.7217C76.6039 56.5315 76.0659 56.5876 75.9418 55.9555C75.8995 55.7418 75.8978 55.459 75.7175 55.301C75.4226 55.0434 75.3207 55.3732 75.3912 55.6037C74.4007 55.2476 74.3513 54.0132 73.2047 53.8983C72.2109 53.7981 71.6063 53.7389 71.0974 52.834C70.5257 51.82 70.5616 52.7834 70.0997 52.9543C69.804 53.0638 68.4473 52.0869 68.2339 51.8849C67.8889 51.5575 67.9414 51.208 68.375 51.0787C68.8934 50.9246 68.6982 50.6019 68.746 50.1996C68.7923 49.8129 69.1719 49.6666 69.2157 49.2424C69.2675 48.7537 68.9256 48.3589 69.197 47.8782C69.4472 47.4368 69.6927 47.3802 69.7474 46.8221C69.7709 46.5857 69.829 46.3348 70.022 46.1834C70.3349 45.9371 70.5059 45.6992 70.7058 45.3697C70.9513 44.9671 71.5167 45.0814 71.7427 44.6219C71.9858 44.1257 73.0337 43.2157 72.3089 42.8526C71.8257 42.6102 71.8226 42.1558 71.5214 41.7729C71.1049 41.2498 70.9143 41.6197 70.3576 41.5648C69.8541 41.5157 69.9944 40.9703 69.4832 41.2355C69.084 41.4421 69.0368 40.817 68.9883 40.5487C68.8786 39.9457 68.2424 38.9429 67.4809 39.0798C67.0557 39.1563 66.91 38.6637 66.5232 38.563C66.2118 38.4815 65.8825 38.4755 65.5626 38.4489C64.9563 38.3988 64.1899 38.281 64.1163 37.5391C64.0416 36.7988 63.7933 35.8771 62.9391 35.6605C62.2583 35.4878 61.7744 36.8596 61.8482 36.8838C61.5204 36.7759 61.4294 36.4855 61.3791 36.1822C61.3376 35.9317 61.0544 35.8415 61.034 35.6063C60.9908 35.1055 62.1022 34.8652 61.4623 34.2679C60.8451 33.6911 61.3822 33.0343 61.2914 32.3755C61.2585 32.1301 60.835 31.9155 60.7064 31.6925C60.4601 31.2671 60.6201 31.3325 60.7645 31.0489C60.8414 30.9002 59.9456 30.8034 59.93 30.6686C59.8814 30.2462 59.9518 29.7873 59.9315 29.3553C59.9134 28.9497 60.0327 28.22 60.5935 28.5211C61.2443 28.8729 61.0217 29.1216 61.2852 29.8073C61.439 30.2077 61.9887 30.8038 62.4719 30.6163C63.2202 30.3316 62.8241 30.2861 62.8994 29.7035C62.9464 29.3392 63.6249 29.5071 63.7401 29.1396C63.842 28.8195 64.6812 28.9925 64.9511 28.8454C65.701 28.4365 65.9817 27.9741 65.5361 27.1487C65.0993 26.3386 63.8013 26.0977 64.4742 24.9816C65.0625 24.0061 63.5432 23.6311 62.7653 23.6645C62.0492 23.6979 61.9834 23.5452 62.0635 22.7517C62.0916 22.4701 62.0964 22.1539 62.2225 21.8928C62.3833 21.5621 62.7881 21.4568 62.9449 21.1563C62.9935 21.0646 62.6956 20.5735 62.6697 20.4751C62.556 20.0497 62.2382 20.4866 61.9732 20.2215C61.7183 19.967 61.7199 19.8012 61.9616 19.4937C62.4383 18.8898 62.9512 19.367 63.5913 19.62C63.8195 19.7098 64.6837 20.1054 64.7081 19.5612C64.727 19.1209 65.1912 19.066 65.3395 18.6523C65.5065 18.1856 65.5535 17.7032 65.6618 17.2284C65.7199 16.9699 66.4978 16.8545 66.6767 16.8075C67.3274 16.6374 66.6061 16.0389 67.024 15.735C67.3808 15.4751 67.8192 15.7437 68.1337 15.4778C68.6215 15.0656 68.4601 14.8524 68.4316 14.3076C68.4066 13.8273 68.7531 13.3367 68.8176 12.8525C68.8803 12.3866 69.4167 12.1618 69.5878 11.7592C69.7274 11.4263 69.7085 10.565 69.5926 10.218C69.4319 9.73642 68.6467 9.47836 68.3016 9.1816C67.6672 8.63836 67.7016 8.3612 66.7769 8.31927C66.3219 8.29882 65.5972 8.05183 65.2742 7.71979C65.0531 7.49189 64.9629 6.95616 64.5496 7.16002C64.0084 7.42678 63.5904 7.85922 62.9841 8.01211C62.6908 8.08626 61.5418 7.65024 61.4829 7.86399C61.2116 8.85245 59.5867 8.12512 58.8477 8.55876C58.4211 8.81103 58.4664 9.42807 58.0195 9.67403C57.6116 9.89801 56.6673 10.1697 56.2243 10.1721C56.0023 10.1736 55.8534 10.2933 55.7186 10.4445C55.6001 10.578 55.259 10.4683 55.1177 10.4626C54.5876 10.4394 54.7113 9.90807 54.5671 9.50188C54.1821 8.41302 53.4549 8.32575 52.4135 8.45666C51.176 8.61194 51.0723 7.76343 50.7838 6.70934C50.652 6.22764 50.4983 6.12401 50.027 5.93054C49.4975 5.71338 49.4583 4.95776 48.9219 4.85924C48.3461 4.75373 47.9077 4.67464 47.3752 4.40822C46.8074 4.12442 47.0004 3.63096 46.5909 3.29738C45.9038 2.74102 45.5024 2.4221 45.0804 1.63546C44.8278 1.157 44.8152 1.32592 44.387 1.09461C44.0473 0.911885 44.3759 0.349049 43.9956 0.224789C43.3597 0.0178585 43.5202 0.312741 42.969 0.506717C42.6489 0.618875 42.2285 0.115355 42.1062 0.526318C41.9689 0.992166 41.3204 0.646999 41.1823 0.418421C40.983 0.0899579 40.7134 -0.186177 40.3933 0.159672C40.1988 0.370694 39.9869 0.755751 39.6426 0.695751C39.0929 0.599616 39.1682 0.117059 38.5784 0.532966C38.2962 0.732566 37.5934 0.893475 37.446 1.15018C37.1746 1.62046 36.5792 1.06035 36.2257 1.02626C35.5645 0.961999 36.1872 1.88909 35.5151 2.08477C35.1072 2.20392 34.8508 1.94773 34.4956 1.81529C33.8618 1.57887 33.3067 2.16795 32.6862 1.9721C31.8069 1.69529 32.3417 3.36539 31.5498 3.30812C31.2353 3.28545 30.9145 3.59686 31.0023 3.92652C31.1953 4.66424 30.5208 4.25004 30.1224 4.64873C29.7091 5.06293 29.5993 4.9593 29.1021 5.15907C28.7545 5.29782 28.9899 6.29787 29.1452 6.52218C29.553 7.12542 28.8802 8.20285 30.1379 8.0578C30.6486 7.99899 31.3412 7.93115 31.8478 8.05183C32.0109 8.0912 32.1858 8.28433 32.2736 8.40995C32.5473 8.79978 32.9346 9.01847 33.1966 9.37932C33.3534 9.59512 33.4805 9.89886 33.6507 10.0903C34.1831 10.6898 34.3354 9.9483 34.7306 9.82063C34.8075 9.79574 34.9848 11.3135 35.1777 11.437C35.4506 11.6107 35.6789 11.9382 35.9119 12.171C36.1534 12.4122 36.6562 12.246 36.9331 12.4178C37.1857 12.5746 37.0711 12.9969 36.8579 13.1059C36.4674 13.3071 36.4986 13.455 36.2729 13.7762C35.8839 14.3295 34.9285 13.9197 34.6086 14.6259C34.4768 14.9168 33.0651 15.7325 33.0691 15.7635C33.1091 16.0444 33.3396 16.2031 33.2918 16.5736C33.2502 16.903 33.0933 17.3018 33.313 17.6034C33.6055 18.0044 33.8698 17.8391 33.6909 18.4355C33.5545 18.8932 33.09 18.7626 33.2235 19.3273C33.3474 19.8547 33.8007 19.8375 33.8353 20.3175C33.8768 20.89 33.8134 21.4708 34.229 21.9327C33.9183 21.5868 33.8148 23.1421 33.8102 23.2856C33.7836 24.0102 33.1725 24.6562 33.8462 25.3114C34.7715 26.2114 35.9559 25.9106 36.9135 26.5948C37.2375 26.8261 37.5285 27.5832 37.9652 27.543C38.1378 27.5268 39.1652 27.417 39.2921 27.5923C39.3596 27.6852 39.0702 28.3891 39.1636 28.6319C39.2819 28.9392 39.6861 29.2687 39.9973 29.3345C40.3941 29.4205 40.8954 29.4746 41.3016 29.4741C41.6568 29.4751 41.5597 29.8629 41.9739 29.8358Z" fill="white" fill-opacity="0.27"/>
</svg>
