<svg width="165" height="56" viewBox="0 0 165 56" fill="none" xmlns="http://www.w3.org/2000/svg">
<g clip-path="url(#clip0_2694_3678)">
<path d="M0.00415587 8.56299C0.0566418 8.3946 0.113536 8.22761 0.160347 8.05781C0.207159 7.888 0.233876 7.72952 0.273595 7.5498C0.483538 7.57811 0.547378 7.73234 0.598445 7.89083C0.719021 8.26866 0.836726 8.6479 0.954465 9.02289C1.27647 10.0545 1.57857 11.0946 1.93179 12.1162C2.11808 12.6291 2.34577 13.126 2.61266 13.6021C3.05666 14.4228 3.54626 15.2181 3.9931 16.0416C4.5021 16.9875 5.09287 17.8871 5.759 18.7303C6.16186 19.2354 6.52784 19.7718 6.95624 20.2543C7.41975 20.7867 7.91687 21.2891 8.44438 21.7585C9.76079 22.9104 11.0843 24.058 12.4475 25.1547C13.972 26.3059 15.6105 27.2988 17.3373 28.1178C20.0735 29.4821 23.004 30.4181 26.0258 30.8928C26.5847 30.9876 27.1605 31.0103 27.7152 31.098C28.501 31.2225 29.2756 31.381 30.0643 31.5225C30.1409 31.5367 30.2487 31.5395 30.226 31.647C30.2126 31.6815 30.1913 31.7123 30.1637 31.7369C30.136 31.7615 30.1028 31.7792 30.067 31.7885C29.6003 31.8834 29.1323 31.9824 28.6599 32.0461C26.7498 32.2665 24.8223 32.295 22.9065 32.131C22.4 32.0956 21.8879 32.0956 21.3885 32.0178C20.7715 31.9201 20.1587 31.7815 19.553 31.623C18.6296 31.3824 17.7088 31.1192 16.7966 30.8475C15.8517 30.5647 14.9387 30.1853 14.0718 29.7155C12.6711 28.9572 11.3228 28.1063 10.0361 27.1683C9.26097 26.5768 8.53235 25.9268 7.85702 25.224C6.55517 23.9089 5.36871 22.4848 4.31068 20.9675C3.95071 20.4086 3.63355 19.8235 3.36175 19.2171C2.91775 18.3298 2.49943 17.4284 2.05542 16.5397C1.72771 15.8269 1.47398 15.0824 1.29802 14.3181C0.910756 12.8492 0.534661 11.379 0.153075 9.91014C0.103426 9.72194 0.0496488 9.53373 0 9.34411L0.00415587 8.56299Z" fill="#030405"/>
<mask id="mask0_2694_3678" style="mask-type:luminance" maskUnits="userSpaceOnUse" x="0" y="36" width="45" height="17">
<path d="M44.4272 36.0508H0V52.1033H44.4272V36.0508Z" fill="white"/>
</mask>
<g mask="url(#mask0_2694_3678)">
<path d="M0.00390625 40.5705C0.13583 40.521 0.12741 40.4021 0.133085 40.296C0.219322 39.1211 0.610469 37.9888 1.26798 37.0102C1.4226 36.7682 1.58863 36.5305 1.75318 36.2942C1.81418 36.2078 1.89496 36.1314 1.96305 36.0508L2.02124 36.0748C1.98435 36.2418 1.95158 36.4074 1.90903 36.5744C1.69908 37.4616 1.47209 38.346 1.27491 39.2375C1.196 39.5959 1.14875 39.9605 1.13326 40.3271C1.11562 40.9244 1.21605 41.5192 1.42902 42.0777C1.642 42.6362 1.96336 43.1472 2.37448 43.5818C3.26297 44.5798 4.32844 45.4054 5.51771 46.0171C7.0279 46.7985 8.62694 47.3962 10.28 47.7973C11.6574 48.1496 13.0391 48.4935 14.4307 48.7723C15.7343 49.034 17.0547 49.2265 18.3725 49.4147C19.2577 49.5421 20.1501 49.6128 21.0409 49.6977C21.4268 49.7345 21.8156 49.7543 22.2028 49.767C23.054 49.7954 23.8935 49.8095 24.739 49.8364C25.9334 49.8732 27.1266 49.9213 28.3196 49.9539C29.1707 49.9765 30.0315 50.0076 30.8869 49.9878C31.8416 49.9666 32.7935 49.8902 33.7468 49.8378C34.0745 49.8194 34.402 49.7982 34.7297 49.777C35.7127 49.7147 36.6945 49.6553 37.6776 49.5859C38.8124 49.5067 39.9385 49.419 41.0691 49.3383C42.1997 49.2577 43.3104 49.1784 44.4367 49.1289C43.9218 49.2562 43.4085 49.3878 42.8935 49.5109C41.2168 49.91 39.5528 50.3359 37.8719 50.6953C36.659 50.9557 35.4279 51.1397 34.2008 51.3335C33.249 51.4849 32.2943 51.6165 31.3367 51.7312C30.6374 51.8161 29.9323 51.8727 29.2287 51.9279C28.2868 51.9972 27.3422 52.0694 26.3989 52.092C25.5946 52.1161 24.7871 52.0835 23.9871 52.0736C23.8878 52.0736 23.7886 52.0637 23.6893 52.0623C22.4651 52.0538 21.2437 51.976 20.0238 51.8812C17.4246 51.6886 14.8478 51.2652 12.324 50.6161C10.056 50.0391 7.8569 49.2202 5.76464 48.1737C4.44825 47.5245 3.24967 46.6608 2.21829 45.6181C1.23666 44.6322 0.555397 43.3888 0.253605 42.0323C0.1997 41.7818 0.184133 41.5229 0.148669 41.2653C0.133065 41.138 0.148711 41.0021 0.0139496 40.9229L0.00390625 40.5705Z" fill="#BA9132"/>
</g>
<path d="M67.6784 17.5357H67.9905C69.5267 17.5357 71.0576 17.5357 72.5924 17.5357C72.6897 17.5283 72.787 17.5485 72.8733 17.5938C72.9596 17.6391 73.0314 17.7077 73.0804 17.7918C75.49 21.2257 77.9013 24.6563 80.3147 28.0836L85.9237 36.0589C86.3493 36.6603 86.7621 37.266 87.1806 37.8702C87.2345 37.948 87.2956 38.0216 87.3537 38.0966L87.4133 38.0796V17.5611H93.4151C93.4746 17.7705 93.4931 48.7493 93.4306 49.1497C93.3484 49.1497 93.2619 49.1639 93.1754 49.1639C91.6022 49.1639 90.0317 49.1639 88.4557 49.1639C88.3721 49.1732 88.2877 49.1585 88.2122 49.1214C88.1368 49.0842 88.0739 49.0263 88.0304 48.9545C87.0176 47.5026 85.9947 46.0592 84.979 44.6116C83.1292 41.9758 81.2805 39.339 79.4326 36.7014C77.6169 34.1137 75.8024 31.526 73.9895 28.9383C73.9208 28.8358 73.8414 28.7409 73.7526 28.6553C73.7015 29.6218 73.7187 30.5854 73.7159 31.5505C73.713 32.5156 73.7159 33.5175 73.7159 34.5009V49.1455H67.6857C67.6247 48.9148 67.6162 17.8724 67.6857 17.5371" fill="#030405"/>
<path d="M55.7667 16.4274C55.7495 16.5225 55.7113 16.6126 55.6548 16.6912C55.5984 16.7698 55.5252 16.8348 55.4405 16.8816C54.7681 17.2665 54.0955 17.6486 53.4245 18.0392C53.2697 18.1291 53.1233 18.2323 52.9864 18.3476C52.5169 18.7453 52.0529 19.1528 51.5862 19.5547C51.0126 20.0683 50.574 20.7145 50.3094 21.4367C50.0233 22.2313 49.8224 23.0538 49.7095 23.8905C49.4457 25.447 49.2031 27.0036 48.9137 28.5602C48.5765 30.1872 47.9847 31.7511 47.1602 33.1945C46.5999 34.2261 45.932 35.1912 45.2738 36.1662C44.7763 36.9103 44.2006 37.5995 43.5571 38.2223C42.9248 38.7986 42.2507 39.3274 41.5401 39.8043C41.2394 40.0138 40.9172 40.1977 40.6151 40.4072C39.6532 41.0674 38.5923 41.5709 37.4719 41.8986C36.5583 42.1732 35.642 42.4435 34.7228 42.701C33.9366 42.9186 33.1265 43.0402 32.311 43.0632C30.739 43.1323 29.1641 43.0949 27.5972 42.9515C25.2555 42.7124 22.9743 42.0644 20.8577 41.0369C18.3727 39.8327 16.0557 38.3105 13.9652 36.5086C13.3099 35.9426 12.7083 35.3186 12.0927 34.7143C11.906 34.5345 11.7346 34.3395 11.5805 34.1313C10.5564 32.7989 9.64098 31.3869 8.84277 29.9088C8.47253 29.1729 8.15751 28.4102 7.81281 27.6616C7.74159 27.4597 7.75131 27.2382 7.83982 27.0432C7.94182 27.0677 8.03804 27.112 8.12277 27.1737C8.20749 27.2354 8.27926 27.3132 8.33368 27.4027C8.67271 27.9163 9.01598 28.4272 9.3536 28.9437C9.97708 29.903 10.7084 30.788 11.5337 31.5814C12.2075 32.2295 12.8546 32.9059 13.5327 33.5469C14.1696 34.1336 14.8541 34.6666 15.5794 35.1403C16.1979 35.5648 16.798 36.002 17.4236 36.394C17.9116 36.6968 18.4363 36.9487 18.9512 37.2063C20.2039 37.8609 21.5257 38.3749 22.892 38.7388C24.3941 39.1419 25.9477 39.3202 27.5023 39.268C27.9278 39.2468 28.3534 39.2482 28.7861 39.268C30.122 39.3066 31.4555 39.1328 32.7366 38.753C33.4544 38.5548 34.1665 38.3284 34.8786 38.1048C35.9913 37.695 37.0436 37.1372 38.0066 36.4464C38.1276 36.3614 38.2414 36.2668 38.347 36.1634C39.7737 34.9479 40.999 33.5152 41.9772 31.9182C42.452 31.0789 42.8614 30.2047 43.2025 29.3031C43.7841 27.7616 44.3548 26.2159 44.9147 24.6659C45.5849 22.6704 46.4397 20.7413 47.4681 18.9038C47.4856 18.8654 47.4999 18.8256 47.5107 18.7849C47.4202 18.7901 47.3317 18.8133 47.2503 18.8532C47.1689 18.893 47.0964 18.9487 47.037 19.017C46.1441 19.8422 45.3685 20.7853 44.7318 21.8202C44.1502 22.7457 43.5898 23.6853 43.065 24.6433C42.583 25.5333 42.033 26.3849 41.4196 27.1904C40.663 28.1744 39.8978 29.1526 39.1242 30.1253C38.9364 30.3573 38.7198 30.5642 38.479 30.7408C38.2284 30.9313 37.939 31.0646 37.6312 31.1314C37.3233 31.1981 37.0044 31.1967 36.6971 31.1271C33.8146 30.5571 31.0116 29.642 28.349 28.4017C26.2976 27.4308 24.3308 26.291 22.4692 24.9942C20.469 23.6006 18.5927 22.0383 16.8605 20.3245C15.3727 18.8871 13.9622 17.3722 12.6347 15.7863C12.4063 15.5033 12.1978 15.2203 11.9808 14.9373C11.9279 14.8649 11.8905 14.7825 11.871 14.6951C11.8515 14.6077 11.8502 14.5172 11.8672 14.4293C11.8871 14.2878 11.9706 14.2057 12.111 14.2326C12.2752 14.2674 12.4365 14.3147 12.5934 14.3741C12.6562 14.4043 12.7139 14.4445 12.7638 14.493C14.1214 15.608 15.6518 16.4741 17.0846 17.4731C17.4898 17.7427 17.9093 17.9902 18.3414 18.2146C19.2393 18.7099 20.1456 19.1853 21.0364 19.6834C22.411 20.4504 23.8411 21.0985 25.2668 21.7636C27.3307 22.7244 29.3874 23.715 31.484 24.5937C33.0706 25.2607 34.6976 25.8278 36.3553 26.2918C36.5085 26.3357 36.6661 26.3612 36.8236 26.3895C36.9008 26.4082 36.9822 26.4 37.0542 26.3663C37.1262 26.3326 37.1845 26.2753 37.2194 26.2041C37.7031 25.464 38.1967 24.7324 38.6861 23.9924C39.4705 22.7966 40.2718 21.6108 40.9555 20.3542C41.4917 19.3792 42.0223 18.4028 42.6238 17.4646C43.2234 16.5183 44.0619 15.7456 45.055 15.2241C46.048 14.7026 47.1609 14.4504 48.2823 14.493C48.928 14.4828 49.5691 14.6039 50.1663 14.8489C50.7636 15.0939 51.3045 15.4576 51.7563 15.918C51.9084 16.0699 52.0906 16.1889 52.291 16.2673C52.4914 16.3457 52.7058 16.3819 52.921 16.3736C53.5494 16.3609 54.1721 16.3184 54.7991 16.283C55.3665 16.2533 55.4347 16.2293 55.7397 16.4373" fill="#030405"/>
<path d="M116.671 41.7012C118.103 42.703 119.545 43.6695 120.968 44.6969C120.532 45.3061 120.041 45.8745 119.501 46.395C117.61 48.2343 115.162 49.3976 112.538 49.7034C109.879 50.0748 107.168 49.6785 104.727 48.5614C102.849 47.7232 101.275 46.3284 100.219 44.5667C99.1674 42.8711 98.5257 40.9545 98.3453 38.9687C98.0697 36.2362 98.5491 33.4805 99.7313 31.0004C100.166 30.1054 100.72 29.2733 101.378 28.5268C102.823 26.9031 104.73 25.7581 106.845 25.2453C109.762 24.4423 112.87 24.6847 115.626 25.9302C116.836 26.4561 117.926 27.221 118.831 28.1787C120.251 29.6824 121.261 31.5246 121.764 33.5291C122.178 35.2416 122.31 37.0101 122.154 38.7649C122.149 38.8271 122.14 38.8891 122.127 38.9503H120.767H104.327C104.371 39.2418 104.404 39.5021 104.451 39.7611C104.624 40.7732 105.038 41.7291 105.658 42.5488C106.094 43.1327 106.654 43.6134 107.298 43.9568C108.191 44.4483 109.194 44.705 110.214 44.7025C110.833 44.7145 111.451 44.6599 112.058 44.5398C113.062 44.3189 114.011 43.8988 114.849 43.3044C115.425 42.879 115.968 42.4086 116.47 41.8978C116.533 41.8342 116.595 41.7747 116.676 41.7012M104.568 34.2961H115.938C115.921 34.2183 115.913 34.1546 115.897 34.105C115.734 33.5731 115.512 33.0613 115.233 32.5796C114.592 31.4517 113.539 30.6139 112.294 30.2405C111.31 29.9376 110.27 29.8607 109.252 30.0155C108.452 30.1012 107.681 30.3697 107.001 30.8001C106.321 31.2305 105.749 31.8113 105.33 32.4975C104.983 33.0535 104.726 33.6604 104.568 34.2961Z" fill="#030405"/>
<path d="M145.725 31.7002L140.211 33.087C140.163 32.995 140.126 32.9257 140.092 32.8577C139.982 32.6483 139.882 32.4332 139.765 32.221C139.362 31.5047 138.743 30.9333 137.996 30.588C137.204 30.2106 136.345 29.9941 135.468 29.9511C134.592 29.9081 133.715 30.0395 132.89 30.3375C132.53 30.4608 132.206 30.6691 131.945 30.9446C131.797 31.083 131.684 31.2555 131.617 31.4471C131.551 31.6388 131.532 31.8437 131.563 32.0442C131.593 32.2446 131.673 32.4346 131.794 32.5976C131.915 32.7606 132.074 32.8916 132.257 32.9794C132.496 33.102 132.742 33.2102 132.993 33.3035C134.654 33.919 136.35 34.4359 138.072 34.8516C139.043 35.0655 139.992 35.3667 140.909 35.7516C142.072 36.2747 143.138 36.9926 144.059 37.8742C144.911 38.6525 145.52 39.6585 145.815 40.7724C146.109 41.8863 146.076 43.0612 145.72 44.1571C145.266 45.8583 144.165 47.3163 142.652 48.2226C141.242 49.1162 139.629 49.6431 137.962 49.7551C136.374 49.8906 134.774 49.8264 133.202 49.5641C131.931 49.348 130.717 48.8766 129.635 48.1785C128.552 47.4804 127.623 46.5701 126.904 45.5028C126.63 45.1231 126.412 44.7067 126.255 44.266C125.942 43.366 125.631 42.4661 125.305 41.5236L130.849 40.1722C130.873 40.2382 130.892 40.3058 130.907 40.3746C131.017 41.1317 131.261 41.8632 131.627 42.5354C131.867 42.9735 132.213 43.3451 132.633 43.6165C132.853 43.7703 133.084 43.9071 133.325 44.0255C134.569 44.6045 135.952 44.8195 137.313 44.6453C137.866 44.5793 138.41 44.4512 138.934 44.2632C139.372 44.1206 139.77 43.8784 140.098 43.5557C140.254 43.416 140.382 43.247 140.473 43.0581C140.565 42.8693 140.618 42.6643 140.629 42.455C140.641 42.2456 140.612 42.036 140.542 41.8381C140.473 41.6402 140.365 41.4578 140.225 41.3015L140.163 41.235C139.969 41.0354 139.749 40.8635 139.509 40.7241C138.943 40.4098 138.336 40.1751 137.706 40.0265C135.845 39.5157 133.982 39.0105 132.129 38.4699C131.112 38.1817 130.138 37.7601 129.233 37.2162C128.226 36.6328 127.407 35.7766 126.869 34.7469C126.402 33.8411 126.165 32.8343 126.18 31.8155C126.195 30.7968 126.461 29.7973 126.955 28.9054C127.391 28.0581 127.995 27.3077 128.73 26.6997C129.465 26.0916 130.316 25.6385 131.232 25.3678C132.187 25.0525 133.181 24.8674 134.186 24.8173C135.011 24.7536 135.839 24.7536 136.663 24.8173C139.277 24.9906 141.728 26.1449 143.523 28.0479C144.451 29.0425 145.183 30.2023 145.681 31.4667C145.699 31.5134 145.718 31.5587 145.732 31.6082C145.736 31.6374 145.736 31.6668 145.732 31.696" fill="#030405"/>
<path d="M152.206 30.0642H148.224C148.155 29.8194 148.148 25.7765 148.213 25.4454H152.195V18.9177C152.441 18.8356 157.827 18.8215 158.173 18.8979V25.4298H164.931C165.002 25.6661 165.026 29.5335 164.965 30.067H158.196C158.186 30.1703 158.176 30.2382 158.176 30.3033C158.176 33.4717 158.175 36.64 158.185 39.807C158.191 40.4024 158.246 40.9963 158.349 41.5828C158.437 42.2083 158.725 42.7888 159.169 43.2388C159.614 43.6888 160.191 43.9843 160.817 44.0819C161.407 44.1742 162.005 44.2097 162.602 44.188C163.336 44.1738 164.068 44.0932 164.804 44.0465C164.852 44.0465 164.902 44.0465 164.972 44.0465V49.203C164.536 49.2837 164.102 49.3827 163.663 49.4436C162.351 49.6273 161.023 49.6686 159.702 49.5667C158.176 49.4526 156.702 48.9588 155.417 48.1304C154.092 47.2686 153.139 45.9419 152.748 44.413C152.351 42.8829 152.169 41.305 152.209 39.7249C152.199 36.6372 152.209 33.5481 152.209 30.4576L152.206 30.0642Z" fill="#030405"/>
<path d="M4.70447 0C4.78423 0.057218 4.84768 0.134117 4.88871 0.223167C4.92974 0.312217 4.947 0.410367 4.93858 0.508012C4.98823 1.07404 5.02632 1.64006 5.08023 2.20609C5.17527 3.22494 5.26344 4.24239 5.38118 5.25841C5.43247 5.62201 5.51526 5.98044 5.62915 6.32961C5.94265 7.37535 6.28165 8.41259 6.59089 9.45974C6.90995 10.4521 7.29386 11.4225 7.73999 12.3649C8.44869 13.9222 9.3397 15.3904 10.3942 16.7389C11.1035 17.6629 11.7998 18.5926 12.5134 19.511C13.7417 21.0259 15.138 22.3973 16.6755 23.5991C18.9998 25.4938 21.5933 27.0336 24.3711 28.1684C25.2435 28.5278 26.1341 28.8405 27.0121 29.1858C27.5228 29.3854 28.0223 29.6103 28.5259 29.8212C28.545 29.8272 28.5632 29.8357 28.5799 29.8467C28.6424 29.9004 28.7542 29.957 28.7528 30.0108C28.7528 30.1523 28.6108 30.124 28.52 30.1254C28.2363 30.1254 27.9614 30.1254 27.6819 30.1155C25.2528 29.8893 22.8559 29.3962 20.5352 28.6453C19.9019 28.4396 19.2896 28.1742 18.7066 27.8528C17.8101 27.3972 16.9237 26.9231 16.0413 26.4463C14.97 25.8712 13.9752 25.1648 13.0796 24.3435C12.2285 23.5623 11.4028 22.7586 10.5843 21.9463C9.56191 20.845 8.67111 19.6288 7.93012 18.3223C7.10397 16.9406 6.37733 15.5021 5.75556 14.0177C5.54738 13.4922 5.38372 12.9502 5.2662 12.3974C4.9981 11.3291 4.75554 10.2536 4.49737 9.1838C4.36447 8.61197 4.28779 8.02855 4.2688 7.44186C4.19692 5.78528 4.13044 4.12824 4.06897 2.47072C4.03964 1.60522 4.26271 0.74985 4.7114 0.00849655" fill="#030405"/>
<mask id="mask1_2694_3678" style="mask-type:luminance" maskUnits="userSpaceOnUse" x="12" y="31" width="45" height="17">
<path d="M56.5494 31.6992H12.4414V47.6287H56.5494V31.6992Z" fill="white"/>
</mask>
<g mask="url(#mask1_2694_3678)">
<path d="M12.4497 44.7578C12.8526 44.7847 13.2569 44.8102 13.6598 44.8399C14.3539 44.8937 15.0476 44.9498 15.7408 45.0083L17.5566 45.1597C17.8531 45.1838 18.1508 45.2106 18.4487 45.229C19.158 45.2757 19.8573 45.3168 20.5623 45.3706C21.2957 45.4201 22.0291 45.4781 22.7625 45.529C23.1597 45.5559 23.557 45.58 23.9542 45.5955C24.6635 45.6238 25.3726 45.655 26.0734 45.6649C27.5557 45.6889 29.0398 45.7272 30.5222 45.7088C31.6741 45.6946 32.827 45.6111 33.9789 45.5488C34.6654 45.5135 35.3506 45.4739 36.0329 45.4073C36.8642 45.3295 37.6942 45.2389 38.5212 45.1243C39.5256 44.9828 40.5326 44.8569 41.5242 44.663C42.7115 44.4309 43.8946 44.1564 45.0705 43.8607C46.6957 43.4666 48.2874 42.9462 49.8311 42.3041C51.0761 41.7943 52.2461 41.1179 53.3082 40.2933C54.1191 39.6761 54.7698 38.874 55.206 37.9542C55.6084 37.051 55.7518 36.0541 55.6202 35.0745C55.4678 33.9829 55.1372 32.9236 54.6415 31.9387C54.5998 31.8648 54.5822 31.7796 54.5916 31.6953C54.7732 31.909 54.9648 32.1198 55.1336 32.342C55.8927 33.3359 56.3641 34.5183 56.4968 35.7608C56.6185 36.6802 56.5395 37.615 56.2647 38.501C55.99 39.3869 55.5263 40.2031 54.9054 40.8933C53.8398 42.0794 52.5676 43.0631 51.1506 43.797C48.8123 44.9972 46.3346 45.9059 43.7739 46.5026C42.5667 46.7994 41.3448 47.0323 40.1129 47.2002C39.4746 47.2894 38.836 47.3573 38.1863 47.3955C36.8586 47.4748 35.5252 47.5625 34.1932 47.5823C31.5945 47.6205 28.997 47.629 26.3982 47.6205C25.7429 47.6024 25.0896 47.5419 24.4422 47.4394C23.4492 47.3049 22.4561 47.1663 21.4631 46.9809C19.9268 46.6979 18.402 46.3781 16.8771 46.0484C15.5268 45.7526 14.1931 45.3866 12.8812 44.9517C12.7394 44.9022 12.5875 44.8484 12.4414 44.796L12.4497 44.7578Z" fill="#BA9132"/>
</g>
<mask id="mask2_2694_3678" style="mask-type:luminance" maskUnits="userSpaceOnUse" x="2" y="47" width="53" height="9">
<path d="M54.2684 47.8799H2.97266V55.9996H54.2684V47.8799Z" fill="white"/>
</mask>
<g mask="url(#mask2_2694_3678)">
<path d="M54.2658 47.904L52.4756 48.9639C51.1124 49.7662 49.745 50.5601 48.3208 51.2507C47.5165 51.6427 46.6924 51.995 45.881 52.3728C44.23 53.1165 42.5254 53.7352 40.7814 54.2237C39.19 54.6995 37.5693 55.0719 35.9297 55.3388C34.9878 55.4874 34.0431 55.6218 33.0927 55.7364C32.4898 55.8058 31.8826 55.8298 31.2755 55.878C29.1193 56.0435 26.9576 56.0081 24.7986 55.9841C23.834 55.9742 22.8707 55.9034 21.9061 55.8794C18.8491 55.8016 15.8193 55.2855 12.9097 54.3468C11.4383 53.8834 10.0033 53.3125 8.61597 52.6389C7.32574 51.9939 6.07031 51.2816 4.85525 50.5049C4.30911 50.1568 3.75611 49.8243 3.20571 49.4847C3.12835 49.4402 3.05591 49.3876 2.98996 49.3276C2.97794 49.3083 2.9709 49.2864 2.96918 49.2637C2.96745 49.2411 2.97097 49.2183 2.97991 49.1974C2.99472 49.1799 3.01373 49.1663 3.03498 49.1577C3.05623 49.149 3.07933 49.1457 3.10216 49.1479C3.17512 49.1766 3.24494 49.2127 3.31065 49.2554C5.33695 50.3831 7.47105 51.3061 9.68125 52.0106C10.1834 52.1705 10.6925 52.3077 11.1961 52.4648C12.9813 52.989 14.803 53.3806 16.6461 53.6365C17.4888 53.7695 18.3399 53.8572 19.1882 53.9591C20.4932 54.1162 21.8012 54.1997 23.1134 54.2634C24.9149 54.3497 26.718 54.3327 28.5181 54.2874C29.7097 54.2591 30.901 54.1685 32.0897 54.0596C34.9832 53.8056 37.8531 53.3325 40.6747 52.6445C43.7879 51.8893 46.8415 50.9069 49.8103 49.7054C50.9977 49.2172 52.1779 48.7149 53.3567 48.2238C53.6475 48.1021 53.9468 47.996 54.2419 47.8828L54.2658 47.904Z" fill="#BA9132"/>
</g>
<mask id="mask3_2694_3678" style="mask-type:luminance" maskUnits="userSpaceOnUse" x="43" y="8" width="5" height="5">
<path d="M47.9827 8.33301H43.5938V12.5372H47.9827V8.33301Z" fill="white"/>
</mask>
<g mask="url(#mask3_2694_3678)">
<path d="M45.3678 12.0584C45.7963 12.3255 46.2828 12.4861 46.7864 12.5268C47.6659 12.6102 47.904 12.1178 47.904 12.1178C47.9755 11.8995 48.0027 11.6692 47.984 11.4403C47.9652 11.2115 47.901 10.9886 47.7949 10.7848C47.613 10.1719 47.2605 9.62297 46.7784 9.20189C46.2963 8.78082 45.7045 8.50485 45.0714 8.40607C43.3493 8.09334 43.603 8.88578 43.603 8.88578C43.827 9.46852 43.9766 10.0771 44.0484 10.6971C44.0767 11.4046 45.3633 12.057 45.3633 12.057" fill="#4BAD5C"/>
</g>
<mask id="mask4_2694_3678" style="mask-type:luminance" maskUnits="userSpaceOnUse" x="40" y="11" width="4" height="3">
<path d="M43.5181 11.7334H40.8711V13.4258H43.5181V11.7334Z" fill="white"/>
</mask>
<g mask="url(#mask4_2694_3678)">
<path d="M42.3406 13.4059C42.59 13.446 42.8456 13.4256 43.0855 13.3465C43.5111 13.2149 43.5208 12.9417 43.5208 12.9417C43.5208 12.9417 43.5463 12.7097 43.2116 12.3502C43.0088 12.1039 42.7402 11.92 42.4368 11.8198C42.1335 11.7196 41.808 11.7073 41.498 11.7842C40.6468 11.9738 40.9151 12.2894 40.9151 12.2894C41.1327 12.5139 41.321 12.7649 41.4755 13.0366C41.6173 13.3578 42.3406 13.4059 42.3406 13.4059Z" fill="#4BAD5C"/>
</g>
</g>
<defs>
<clipPath id="clip0_2694_3678">
<rect width="165" height="56" fill="white"/>
</clipPath>
</defs>
</svg>
