<svg width="30" height="30" viewBox="0 0 30 30" fill="none" xmlns="http://www.w3.org/2000/svg">
<path d="M17.75 2.5H14.75C14.3355 2.5 14 2.83551 14 3.25C14 3.66449 14.3355 4 14.75 4H17.75C18.1645 4 18.5 3.66449 18.5 3.25C18.5 2.83551 18.1645 2.5 17.75 2.5Z" fill="#023BE2"/>
<path d="M21 0H9C7.34602 0 6 1.34602 6 3V27C6 28.654 7.34602 30 9 30H21C22.654 30 24 28.654 24 27V3C24 1.34602 22.654 0 21 0ZM22.5 27C22.5 27.8285 21.8285 28.5 21 28.5H9C8.17148 28.5 7.5 27.8285 7.5 27V3C7.5 2.17148 8.17148 1.5 9 1.5H21C21.8285 1.5 22.5 2.17148 22.5 3V27Z" fill="#023BE2"/>
<path d="M15 27.5C15.8284 27.5 16.5 26.8284 16.5 26C16.5 25.1716 15.8284 24.5 15 24.5C14.1716 24.5 13.5 25.1716 13.5 26C13.5 26.8284 14.1716 27.5 15 27.5Z" fill="#023BE2"/>
<path d="M12.25 4C12.6642 4 13 3.66421 13 3.25C13 2.83579 12.6642 2.5 12.25 2.5C11.8358 2.5 11.5 2.83579 11.5 3.25C11.5 3.66421 11.8358 4 12.25 4Z" fill="#023BE2"/>
</svg>
