<?xml version="1.0" encoding="UTF-8"?>
<svg xmlns="http://www.w3.org/2000/svg" width="28" height="28" viewBox="0 0 28 28" fill="none">
  <g clip-path="url(#clip0_12139_14457)">
    <path fill-rule="evenodd" clip-rule="evenodd" d="M25.9492 20.5038H2.03352C1.83668 20.5038 1.65625 20.3234 1.65625 20.1266V6.05276C1.65625 4.05159 3.26375 2.44409 5.24852 2.44409H22.7014C24.7025 2.44409 26.3264 4.0844 26.3264 6.10197V20.1266C26.3264 20.3234 26.1624 20.5038 25.9492 20.5038ZM2.41079 19.7493H25.5883V6.10197C25.5883 4.49447 24.2925 3.18223 22.7014 3.18223H5.24852C3.69023 3.18223 2.41079 4.47807 2.41079 6.05276V19.7493Z" fill="#08CF65" stroke="#08CF65" stroke-width="0.2"></path>
    <path fill-rule="evenodd" clip-rule="evenodd" d="M22.5542 25.5559H5.42941C2.44405 25.5559 0 23.1119 0 20.1265C0 19.9133 0.16403 19.7493 0.37727 19.7493H27.6227C27.8196 19.7493 28 19.9133 28 20.1265C28 23.1119 25.5559 25.5559 22.5542 25.5559ZM0.770943 20.5038C0.951377 22.8987 2.98535 24.8014 5.42941 24.8014H22.5542C25.0146 24.8014 27.0322 22.8987 27.2291 20.5038H0.770943Z" fill="#08CF65" stroke="#08CF65" stroke-width="0.2"></path>
    <path fill-rule="evenodd" clip-rule="evenodd" d="M14.9917 23.0299H12.9906C12.7937 23.0299 12.6133 22.8659 12.6133 22.6527C12.6133 22.4394 12.7937 22.2754 12.9906 22.2754H14.9917C15.205 22.2754 15.369 22.4394 15.369 22.6527C15.369 22.8659 15.205 23.0299 14.9917 23.0299Z" fill="#08CF65" stroke="#08CF65" stroke-width="0.2"></path>
    <path fill-rule="evenodd" clip-rule="evenodd" d="M12.828 12.8267C12.7296 12.8267 12.6476 12.7775 12.5656 12.7119L11.729 11.8753C11.5978 11.7441 11.5814 11.5637 11.6634 11.4161L12.3031 10.3007C12.418 10.1202 12.6476 10.0546 12.828 10.1694C13.0085 10.2678 13.0577 10.4975 12.9593 10.6779L12.4672 11.5473L13.0905 12.1706C13.2381 12.3182 13.2381 12.5643 13.0905 12.7119C13.0249 12.7775 12.9264 12.8267 12.828 12.8267Z" fill="#08CF65" stroke="#08CF65" stroke-width="0.2"></path>
    <path fill-rule="evenodd" clip-rule="evenodd" d="M15.1583 12.8272C15.0763 12.8272 14.9779 12.778 14.8959 12.7124C14.7482 12.5648 14.7482 12.3187 14.8959 12.1711L15.5356 11.5478L15.0435 10.6784C14.9287 10.498 14.9943 10.2683 15.1747 10.1699C15.3552 10.0551 15.5848 10.1207 15.6832 10.3011L16.3393 11.4165C16.4214 11.5642 16.3886 11.7446 16.2737 11.8758L15.4372 12.7124C15.3552 12.778 15.2567 12.8272 15.1583 12.8272Z" fill="#08CF65" stroke="#08CF65" stroke-width="0.2"></path>
    <path fill-rule="evenodd" clip-rule="evenodd" d="M13.8136 12.8272C13.7808 12.8272 13.748 12.8108 13.7152 12.8108C13.5184 12.7616 13.4036 12.5483 13.4528 12.3515L13.9777 10.3995C14.0269 10.1863 14.2401 10.0715 14.437 10.1207C14.6338 10.1863 14.765 10.3831 14.6994 10.58L14.1745 12.5483C14.1417 12.7124 13.9777 12.8272 13.8136 12.8272Z" fill="#08CF65" stroke="#08CF65" stroke-width="0.2"></path>
    <path fill-rule="evenodd" clip-rule="evenodd" d="M15.1235 19.2408H12.8763C12.6959 19.2408 12.5319 19.1095 12.4991 18.9291L12.1054 16.4686C11.5641 16.2554 11.072 15.9766 10.6127 15.5993L8.28347 16.5015C8.10304 16.5671 7.9062 16.485 7.82418 16.3374L6.69237 14.3855C6.61036 14.2214 6.64317 14.0246 6.79079 13.9098L8.72635 12.3187C8.67714 12.0398 8.66074 11.761 8.66074 11.4657C8.66074 11.1869 8.67714 10.8916 8.72635 10.6128L6.79079 9.03807C6.64317 8.90684 6.61036 8.71001 6.69237 8.54597L7.82418 6.61042C7.9062 6.44639 8.10304 6.38077 8.28347 6.44639L10.6127 7.33215C11.072 6.95488 11.5641 6.67603 12.1054 6.46279L12.4991 4.00233C12.5319 3.8219 12.6959 3.69067 12.8763 3.69067H15.1235C15.304 3.69067 15.468 3.8219 15.5008 4.00233L15.8945 6.46279C16.4358 6.67603 16.9279 6.95488 17.3708 7.33215L19.7164 6.44639C19.8804 6.38077 20.0773 6.44639 20.1757 6.61042L21.2911 8.54597C21.3895 8.71001 21.3567 8.90684 21.2091 9.03807L19.2735 10.6128C19.3227 10.8916 19.3391 11.1869 19.3391 11.4657C19.3391 11.761 19.3227 12.0398 19.2735 12.3187L21.2091 13.9098C21.3567 14.0246 21.3895 14.2214 21.2911 14.3855L20.1757 16.3374C20.0773 16.485 19.8804 16.5671 19.7164 16.5015L17.3708 15.5993C16.9279 15.9766 16.4358 16.2554 15.8945 16.4686L15.5008 18.9291C15.468 19.1095 15.304 19.2408 15.1235 19.2408ZM13.188 18.5026H14.7955L15.1892 16.1242C15.2056 15.993 15.304 15.8781 15.4352 15.8289C16.0421 15.6321 16.5834 15.3204 17.0591 14.894C17.1575 14.7955 17.3051 14.7791 17.4364 14.8283L19.6836 15.6813L20.4873 14.287L18.6338 12.7616C18.519 12.6795 18.4698 12.5319 18.5026 12.4007C18.5518 12.089 18.5846 11.7774 18.5846 11.4657C18.5846 11.1541 18.5518 10.8424 18.5026 10.5307C18.4698 10.3995 18.519 10.2519 18.6338 10.1699L20.4873 8.64439L19.6836 7.25013L17.4364 8.10309C17.3051 8.1523 17.1575 8.1359 17.0591 8.03748C16.5834 7.611 16.0421 7.29934 15.4352 7.10251C15.304 7.0697 15.2056 6.95488 15.1892 6.80725L14.7955 4.44521H13.188L12.8107 6.80725C12.7943 6.95488 12.6959 7.0697 12.5647 7.10251C11.9578 7.29934 11.4165 7.611 10.9408 8.03748C10.8423 8.1359 10.6947 8.1523 10.5635 8.10309L8.31628 7.25013L7.51253 8.64439L9.36607 10.1699C9.48089 10.2519 9.5301 10.3995 9.4973 10.5307C9.43168 10.8424 9.39888 11.1541 9.39888 11.4657C9.39888 11.7774 9.43168 12.089 9.4973 12.4007C9.5301 12.5319 9.48089 12.6795 9.36607 12.7616L7.51253 14.287L8.31628 15.6813L10.5635 14.8283C10.6947 14.7791 10.8423 14.7955 10.9408 14.894C11.4165 15.3204 11.9578 15.6321 12.5483 15.8289C12.6959 15.8781 12.7943 15.993 12.8107 16.1242L13.188 18.5026Z" fill="#08CF65" stroke="#08CF65" stroke-width="0.2"></path>
    <path fill-rule="evenodd" clip-rule="evenodd" d="M13.9922 15.2714C11.909 15.2714 10.2031 13.5655 10.2031 11.4659C10.2031 9.36627 11.909 7.67676 13.9922 7.67676C16.0918 7.67676 17.7977 9.36627 17.7977 11.4659C17.7977 13.5655 16.0918 15.2714 13.9922 15.2714ZM13.9922 8.41489C12.3191 8.41489 10.9577 9.79275 10.9577 11.4659C10.9577 13.139 12.3191 14.5168 13.9922 14.5168C15.6817 14.5168 17.0432 13.139 17.0432 11.4659C17.0432 9.79275 15.6817 8.41489 13.9922 8.41489Z" fill="#08CF65" stroke="#08CF65" stroke-width="0.2"></path>
  </g>
  <defs>
    <clipPath id="clip0_12139_14457">
      <rect width="28" height="28" fill="white"></rect>
    </clipPath>
  </defs>
</svg>
