<svg width="60" height="61" viewBox="0 0 60 61" fill="none" xmlns="http://www.w3.org/2000/svg">
<path d="M24.9453 14.4412L26.4509 18.6225C27.2771 20.9147 28.5987 22.9964 30.3216 24.7193C32.0445 26.4422 34.1262 27.7638 36.4184 28.59L40.5997 30.0956C40.6822 30.1259 40.7535 30.1808 40.8039 30.2529C40.8542 30.325 40.8812 30.4108 40.8812 30.4987C40.8812 30.5867 40.8542 30.6725 40.8039 30.7446C40.7535 30.8167 40.6822 30.8716 40.5997 30.9018L36.4184 32.4075C34.1262 33.2336 32.0445 34.5552 30.3216 36.2781C28.5987 38.001 27.2771 40.0828 26.4509 42.375L24.9453 46.5562C24.915 46.6388 24.8601 46.7101 24.788 46.7604C24.7159 46.8108 24.6301 46.8378 24.5422 46.8378C24.4542 46.8378 24.3684 46.8108 24.2963 46.7604C24.2242 46.7101 24.1693 46.6388 24.139 46.5562L22.6334 42.375C21.8073 40.0828 20.4857 38.001 18.7628 36.2781C17.0399 34.5552 14.9581 33.2336 12.6659 32.4075L8.48467 30.9018C8.40211 30.8716 8.33083 30.8167 8.28048 30.7446C8.23013 30.6725 8.20312 30.5867 8.20312 30.4987C8.20312 30.4108 8.23013 30.325 8.28048 30.2529C8.33083 30.1808 8.40211 30.1259 8.48467 30.0956L12.6659 28.59C14.9581 27.7638 17.0399 26.4422 18.7628 24.7193C20.4857 22.9964 21.8073 20.9147 22.6334 18.6225L24.139 14.4412C24.1685 14.3578 24.2231 14.2856 24.2953 14.2345C24.3675 14.1834 24.4537 14.156 24.5422 14.156C24.6306 14.156 24.7169 14.1834 24.7891 14.2345C24.8613 14.2856 24.9159 14.3578 24.9453 14.4412ZM43.7665 4.39309L44.5297 6.50996C44.9484 7.67053 45.6178 8.72454 46.4902 9.59696C47.3626 10.4694 48.4166 11.1388 49.5772 11.5575L51.694 12.3206C51.736 12.3359 51.7722 12.3637 51.7978 12.4002C51.8234 12.4368 51.8371 12.4803 51.8371 12.525C51.8371 12.5696 51.8234 12.6131 51.7978 12.6497C51.7722 12.6863 51.736 12.7141 51.694 12.7293L49.5772 13.4925C48.4166 13.9112 47.3626 14.5805 46.4902 15.453C45.6178 16.3254 44.9484 17.3794 44.5297 18.54L43.7665 20.6568C43.7513 20.6988 43.7235 20.735 43.6869 20.7606C43.6504 20.7862 43.6068 20.7999 43.5622 20.7999C43.5175 20.7999 43.474 20.7862 43.4374 20.7606C43.4009 20.735 43.3731 20.6988 43.3578 20.6568L42.5947 18.54C42.176 17.3794 41.5066 16.3254 40.6342 15.453C39.7617 14.5805 38.7077 13.9112 37.5472 13.4925L35.4303 12.7293C35.3884 12.7141 35.3521 12.6863 35.3265 12.6497C35.3009 12.6131 35.2872 12.5696 35.2872 12.525C35.2872 12.4803 35.3009 12.4368 35.3265 12.4002C35.3521 12.3637 35.3884 12.3359 35.4303 12.3206L37.5472 11.5575C38.7077 11.1388 39.7617 10.4694 40.6342 9.59696C41.5066 8.72454 42.176 7.67053 42.5947 6.50996L43.3578 4.39309C43.3731 4.35115 43.4009 4.31493 43.4374 4.28933C43.474 4.26373 43.5175 4.25 43.5622 4.25C43.6068 4.25 43.6504 4.26373 43.6869 4.28933C43.7235 4.31493 43.7513 4.35115 43.7665 4.39309ZM43.7665 40.3425L44.5297 42.4593C44.9484 43.6199 45.6178 44.6739 46.4902 45.5463C47.3626 46.4188 48.4166 47.0881 49.5772 47.5068L51.694 48.27C51.736 48.2852 51.7722 48.313 51.7978 48.3496C51.8234 48.3862 51.8371 48.4297 51.8371 48.4743C51.8371 48.519 51.8234 48.5625 51.7978 48.5991C51.7722 48.6356 51.736 48.6634 51.694 48.6787L49.5772 49.4418C48.4166 49.8605 47.3626 50.5299 46.4902 51.4023C45.6178 52.2748 44.9484 53.3288 44.5297 54.4893L43.7665 56.6062C43.7513 56.6482 43.7235 56.6844 43.6869 56.71C43.6504 56.7356 43.6068 56.7493 43.5622 56.7493C43.5175 56.7493 43.474 56.7356 43.4374 56.71C43.4009 56.6844 43.3731 56.6482 43.3578 56.6062L42.5947 54.4893C42.176 53.3288 41.5066 52.2748 40.6342 51.4023C39.7617 50.5299 38.7077 49.8605 37.5472 49.4418L35.4303 48.6787C35.3884 48.6634 35.3521 48.6356 35.3265 48.5991C35.3009 48.5625 35.2872 48.519 35.2872 48.4743C35.2872 48.4297 35.3009 48.3862 35.3265 48.3496C35.3521 48.313 35.3884 48.2852 35.4303 48.27L37.5472 47.5068C38.7077 47.0881 39.7617 46.4188 40.6342 45.5463C41.5066 44.6739 42.176 43.6199 42.5947 42.4593L43.3578 40.3425C43.4272 40.1512 43.699 40.1512 43.7665 40.3425Z" fill="#00A1C5"/>
</svg>
