<svg width="20" height="21" viewBox="0 0 20 21" fill="none" xmlns="http://www.w3.org/2000/svg">
<path d="M11.1832 3.88462L12.5897 6.80884C12.7815 7.2159 13.2929 7.60635 13.7244 7.68112L16.2736 8.12141C17.9037 8.40386 18.2873 9.63336 17.1126 10.8462L15.1308 12.9065C14.7952 13.2554 14.6114 13.9283 14.7153 14.4101L15.2827 16.9605C15.7302 18.9792 14.6993 19.7601 12.9812 18.7051L10.5919 17.2347C10.1604 16.9688 9.44917 16.9688 9.00966 17.2347L6.62033 18.7051C4.91024 19.7601 3.87139 18.9709 4.31889 16.9605L4.88626 14.4101C4.99015 13.9283 4.80635 13.2554 4.47073 12.9065L2.48894 10.8462C1.32224 9.63336 1.69782 8.40386 3.328 8.12141L5.87716 7.68112C6.30068 7.60635 6.81211 7.2159 7.0039 6.80884L8.41033 3.88462C9.17748 2.2979 10.4241 2.2979 11.1832 3.88462Z" fill="#023BE2"/>
</svg>
