<svg width="21" height="20" viewBox="0 0 21 20" fill="none" xmlns="http://www.w3.org/2000/svg">
<path d="M11.5127 2.92495L12.9885 5.85828C13.1897 6.26662 13.7264 6.65828 14.1792 6.73328L16.854 7.17495C18.5646 7.45828 18.9671 8.69162 17.7345 9.90828L15.655 11.975C15.3028 12.325 15.1099 13 15.2189 13.4833L15.8143 16.0416C16.2839 18.0666 15.2022 18.85 13.3993 17.7916L10.8922 16.3166C10.4394 16.05 9.69309 16.05 9.2319 16.3166L6.72473 17.7916C4.9303 18.85 3.84022 18.0583 4.30979 16.0416L4.90514 13.4833C5.01415 13 4.82129 12.325 4.46911 11.975L2.38958 9.90828C1.16534 8.69162 1.55945 7.45828 3.27003 7.17495L5.94491 6.73328C6.38932 6.65828 6.92597 6.26662 7.12722 5.85828L8.60301 2.92495C9.40799 1.33328 10.7161 1.33328 11.5127 2.92495Z" fill="#FFD900"/>
</svg>
