<svg width="30" height="30" viewBox="0 0 30 30" fill="none" xmlns="http://www.w3.org/2000/svg">
<path d="M25.2047 10.7648C26.9438 10.7648 28.3586 9.34606 28.3586 7.60276C28.1855 3.40786 22.2236 3.40906 22.0508 7.60276C22.0508 9.34606 23.4659 10.7648 25.2047 10.7648Z" fill="#464EB8"/>
<path d="M27.2858 11.6135H15.4814V10.5095C15.7166 10.5512 15.9629 10.5791 16.2215 10.5899C16.2494 10.5902 16.2773 10.5881 16.3052 10.5878C16.4117 10.5862 16.518 10.5808 16.6241 10.5719C16.6601 10.5686 16.6958 10.5656 16.7312 10.5614C16.8521 10.5479 16.9715 10.5302 17.0891 10.5071C17.0963 10.5056 17.1041 10.5047 17.1113 10.5035C17.6657 10.3903 18.1924 10.1691 18.6614 9.8525C19.0927 9.56024 19.4679 9.19291 19.7693 8.768C19.8473 8.6657 19.9184 8.5589 19.9847 8.4497C19.991 8.4389 19.9979 8.4287 20.0042 8.4176C20.0552 8.3315 20.1002 8.2424 20.144 8.1524C20.1632 8.1134 20.183 8.0744 20.201 8.0348C20.2472 7.9313 20.2898 7.826 20.3273 7.7189L20.3369 7.6925C20.765 6.4301 20.5691 4.9457 19.8341 3.8357C19.6387 3.55224 19.4103 3.29302 19.1537 3.0635C19.1009 3.0176 19.0505 2.9693 18.995 2.9264C18.6716 2.65976 18.3111 2.44158 17.9249 2.2787C17.7932 2.2217 17.6583 2.17232 17.5208 2.1308C17.4416 2.1065 17.3594 2.0885 17.2784 2.0687C17.2067 2.0513 17.1359 2.0324 17.0633 2.0189C17.0033 2.0075 16.9418 2.0003 16.8812 1.9913C16.7756 1.9763 16.67 1.9625 16.5632 1.955C16.5266 1.9523 16.4897 1.9514 16.4528 1.9496C16.3441 1.9447 16.2352 1.944 16.1264 1.9475C15.5024 1.9838 14.9486 2.1149 14.4635 2.3195C14.3645 2.3642 14.2643 2.4077 14.171 2.4605C13.1984 2.9903 12.4544 3.8921 12.1109 4.9484C11.8722 5.7413 11.8528 6.58406 12.0548 7.3871L12.0608 7.4099L12.0899 7.5134C12.1016 7.5545 12.1154 7.5953 12.1283 7.6361C12.14 7.6691 12.1523 7.7018 12.1646 7.7348H2.63063C2.22006 7.73528 1.82645 7.89859 1.53613 8.1889C1.24582 8.47922 1.08251 8.87283 1.08203 9.2834V20.585C1.08251 20.9956 1.24582 21.3892 1.53613 21.6795C1.82645 21.9698 2.22006 22.1331 2.63063 22.1336H8.66723C8.67503 22.169 8.68493 22.2032 8.69333 22.2383C9.52433 25.508 12.4322 27.8204 15.8684 27.9038C18.7193 27.8345 21.1682 26.1875 22.3943 23.8262C22.4126 23.8328 22.4315 23.8376 22.4498 23.8439C25.5044 24.9992 28.9754 22.5752 28.9136 19.3046V13.2371C28.9139 12.3419 28.1834 11.6135 27.2858 11.6135Z" fill="#464EB8"/>
<path d="M23.2312 13.2698C23.2519 12.3785 22.5451 11.6354 21.6559 11.6135H15.2263C15.1699 11.6136 15.114 11.6247 15.062 11.6464C15.0099 11.668 14.9626 11.6997 14.9228 11.7396C14.883 11.7795 14.8514 11.8269 14.8299 11.8791C14.8084 11.9312 14.7974 11.987 14.7976 12.0434V20.7719C14.7976 20.9653 14.7209 21.1507 14.5843 21.2875C14.4477 21.4244 14.2625 21.5014 14.0692 21.5018H9.05765C8.99392 21.5018 8.93098 21.516 8.87343 21.5434C8.81588 21.5708 8.76515 21.6107 8.72495 21.6601C8.68475 21.7096 8.65608 21.7674 8.64103 21.8293C8.62598 21.8912 8.62493 21.9557 8.63795 22.0181C9.34805 25.4864 12.3124 27.9692 15.868 28.0559C20.0248 27.9539 23.3278 24.4817 23.2312 20.3258V13.2698ZM16.2211 10.5896C16.249 10.5899 16.2769 10.5878 16.3048 10.5875C16.4122 10.586 16.5187 10.5806 16.624 10.5716C16.66 10.5683 16.6957 10.5653 16.7311 10.5611C16.8517 10.5476 16.9714 10.5299 17.089 10.5068L17.1112 10.5029C17.6656 10.3897 18.1923 10.1685 18.6613 9.85194C19.0926 9.55968 19.4679 9.19235 19.7695 8.76744C19.8475 8.66514 19.9186 8.55834 19.9849 8.44914C19.9912 8.43834 19.9981 8.42814 20.0044 8.41704C20.0554 8.33094 20.1004 8.24154 20.1442 8.15184C20.1634 8.11284 20.1832 8.07414 20.2012 8.03424C20.2474 7.93074 20.2903 7.82544 20.3275 7.71834L20.3371 7.69194C20.7652 6.42954 20.5693 4.94484 19.8343 3.83514C19.6389 3.55168 19.4105 3.29246 19.1539 3.06294C19.1011 3.01704 19.0507 2.96874 18.9952 2.92584C18.6717 2.6592 18.3113 2.44102 17.9251 2.27814C17.7933 2.22114 17.6584 2.17175 17.521 2.13024C17.4418 2.10594 17.3596 2.08824 17.2786 2.06814C17.2069 2.05074 17.1361 2.03184 17.0635 2.01834C17.0035 2.00694 16.9423 1.99974 16.8814 1.99074C16.7758 1.97574 16.6702 1.96194 16.5634 1.95444C16.5268 1.95174 16.4899 1.95084 16.4533 1.94904C16.3445 1.94464 16.2356 1.94414 16.1269 1.94754C15.5029 1.98384 14.9491 2.11464 14.464 2.31954C14.365 2.36424 14.2648 2.40774 14.1715 2.46054C13.1989 2.99064 12.4546 3.89244 12.1114 4.94874C11.8726 5.74164 11.8533 6.5844 12.0553 7.38744L12.0613 7.41024L12.0904 7.51374C12.1021 7.55484 12.1159 7.59564 12.1288 7.63644C12.1468 7.68774 12.1657 7.73844 12.1849 7.78944H12.1768C12.7093 9.28254 14.0572 10.4981 16.2211 10.5896Z" fill="#7B83EB"/>
<path d="M13.9328 7.73633H2.63063C2.22006 7.7368 1.82645 7.90011 1.53613 8.19043C1.24582 8.48074 1.08251 8.87436 1.08203 9.28493V20.5865C1.08251 20.9971 1.24582 21.3907 1.53613 21.681C1.82645 21.9713 2.22006 22.1347 2.63063 22.1351H13.9328C14.3434 22.1347 14.737 21.9713 15.0272 21.681C15.3175 21.3907 15.4807 20.9971 15.4811 20.5865V9.28493C15.4808 8.87436 15.3176 8.4807 15.0273 8.19036C14.737 7.90002 14.3434 7.73673 13.9328 7.73633Z" fill="#464EB8"/>
<path d="M11.1322 10.8809H5.34819C5.11689 10.8809 4.92969 11.0684 4.92969 11.2997V12.3539C4.92969 12.5852 5.11689 12.7727 5.34819 12.7727H7.21419V18.6452C7.21419 18.8765 7.40139 19.064 7.63269 19.064H8.87289C9.10419 19.064 9.29139 18.8765 9.29139 18.6452V12.7727H11.1322C11.3635 12.7727 11.5507 12.5852 11.5507 12.3539V11.2997C11.5507 11.0684 11.3635 10.8809 11.1322 10.8809Z" fill="white"/>
</svg>
