<svg width="70" height="70" viewBox="0 0 70 70" fill="none" xmlns="http://www.w3.org/2000/svg">
<path fill-rule="evenodd" clip-rule="evenodd" d="M40.687 19.032H32.5468C32.356 19.032 32.173 18.9562 32.0381 18.8213C31.9032 18.6863 31.8274 18.5034 31.8274 18.3126C31.8274 18.1218 31.9032 17.9388 32.0381 17.8039C32.173 17.669 32.356 17.5932 32.5468 17.5932H40.687C40.8778 17.5932 41.0608 17.669 41.1957 17.8039C41.3306 17.9388 41.4064 18.1218 41.4064 18.3126C41.4064 18.5034 41.3306 18.6863 41.1957 18.8213C41.0608 18.9562 40.8778 19.032 40.687 19.032ZM61.7854 54.0362H5.46434C4.96639 54.0357 4.48898 53.8376 4.13684 53.4856C3.7847 53.1335 3.58658 52.6561 3.58594 52.1582V19.4708C3.58658 18.9728 3.7847 18.4955 4.13684 18.1434C4.48898 17.7913 4.96639 17.5933 5.46434 17.5928H12.9634C13.1542 17.5929 13.3372 17.6688 13.472 17.8038C13.6068 17.9388 13.6825 18.1218 13.6824 18.3126C13.6823 18.5034 13.6064 18.6863 13.4714 18.8211C13.3364 18.956 13.1534 19.0317 12.9626 19.0316H5.46434C5.22616 19.0316 5.02431 19.233 5.02431 19.4712L5.02472 52.1578C5.02472 52.396 5.22576 52.597 5.46434 52.597H61.7854C62.024 52.597 62.2247 52.396 62.2247 52.1578L62.2255 25.8145C62.2255 25.6238 62.3012 25.4409 62.4361 25.3061C62.5709 25.1712 62.7538 25.0955 62.9445 25.0955C63.1351 25.0955 63.318 25.1712 63.4529 25.3061C63.5877 25.4409 63.6634 25.6238 63.6634 25.8145L63.6642 52.1578C63.6635 52.6558 63.4653 53.1331 63.1131 53.4852C62.7609 53.8372 62.2834 54.0353 61.7854 54.0358V54.0362Z" fill="#023BE2"/>
<path fill-rule="evenodd" clip-rule="evenodd" d="M30.8337 59.1129H36.4128V54.036H30.8337V59.1129ZM37.1322 60.5517H30.1139C29.9232 60.5516 29.7402 60.4758 29.6054 60.3409C29.4705 60.206 29.3946 60.0231 29.3945 59.8323V53.3166C29.3945 52.9194 29.7171 52.5977 30.1139 52.5977H37.1322C37.5294 52.5977 37.8512 52.9194 37.8512 53.3166V59.8323C37.8512 60.2296 37.529 60.5517 37.1322 60.5517Z" fill="#023BE2"/>
<path fill-rule="evenodd" clip-rule="evenodd" d="M33.6249 65.0224C30.3695 65.0224 27.3002 64.6602 24.9818 64.0034C22.3133 63.2477 20.9609 62.2086 20.9609 60.9171C20.9609 57.9835 27.9199 57.149 30.0526 56.9641C30.1468 56.9557 30.2418 56.966 30.332 56.9944C30.4223 57.0228 30.506 57.0687 30.5785 57.1295C30.6509 57.1904 30.7106 57.2649 30.7541 57.3489C30.7977 57.4329 30.8242 57.5247 30.8322 57.6189C30.8673 58.0146 30.5738 58.3629 30.1782 58.3969C24.6818 58.8752 22.3993 60.2753 22.3993 60.9171C22.3997 61.8226 26.3612 63.5836 33.6249 63.5836C40.8875 63.5836 44.8502 61.8226 44.8502 60.9171C44.8502 60.2753 42.5685 58.8752 37.0709 58.3969C36.9768 58.3888 36.8852 58.3623 36.8014 58.3189C36.7175 58.2754 36.6431 58.2159 36.5823 58.1436C36.5214 58.0714 36.4755 57.9878 36.447 57.8978C36.4184 57.8078 36.408 57.713 36.4161 57.6189C36.4331 57.429 36.5246 57.2535 36.6706 57.1309C36.8166 57.0082 37.0052 56.9482 37.1952 56.9641C39.3292 57.149 46.2893 57.9835 46.2893 60.9171C46.2893 62.2086 44.9353 63.2477 42.2677 64.0034C39.9485 64.6602 36.8791 65.0224 33.6249 65.0224ZM59.7563 39.0852C59.5655 39.0851 59.3826 39.0092 59.2477 38.8743C59.1128 38.7395 59.037 38.5565 59.0369 38.3658C59.0369 30.0783 60.9852 27.3299 62.7049 24.9045C63.9741 23.1149 64.9769 21.7011 64.9769 18.2019C64.9769 11.7031 59.6889 6.41632 53.1906 6.41632C46.6926 6.41632 41.4058 11.7031 41.4058 18.2019C41.4058 21.7011 42.407 23.1149 43.6762 24.9045C45.396 27.3299 47.3458 30.0787 47.3458 38.3658C47.3458 38.5566 47.27 38.7397 47.1351 38.8746C47.0001 39.0096 46.8171 39.0854 46.6262 39.0854C46.4354 39.0854 46.2524 39.0096 46.1174 38.8746C45.9825 38.7397 45.9066 38.5566 45.9066 38.3658C45.9066 30.5369 44.0981 27.9867 42.5035 25.7369C41.1983 23.8972 39.967 22.1593 39.967 18.2019C39.967 10.9099 45.8994 4.97754 53.1906 4.97754C60.4838 4.97754 66.4157 10.9099 66.4157 18.2019C66.4157 22.1593 65.1828 23.8972 63.8789 25.7369C62.283 27.9867 60.4757 30.5369 60.4757 38.3658C60.4757 38.7634 60.1535 39.0852 59.7563 39.0852Z" fill="#023BE2"/>
<path fill-rule="evenodd" clip-rule="evenodd" d="M47.3895 39.0852C47.7367 42.0568 50.2065 44.368 53.1927 44.368C56.1796 44.368 58.6494 42.0568 58.9966 39.0852H47.3895ZM53.1931 45.8067C49.1767 45.8067 45.9087 42.4686 45.9087 38.3658C45.9087 37.9686 46.2313 37.6464 46.6285 37.6464H59.7584C60.156 37.6464 60.4778 37.9686 60.4778 38.3658C60.4778 42.4686 57.2094 45.8067 53.1931 45.8067ZM59.8452 36.428H46.5514C46.3606 36.428 46.1776 36.3522 46.0427 36.2173C45.9078 36.0824 45.832 35.8994 45.832 35.7086C45.832 35.5179 45.9078 35.3349 46.0427 35.2C46.1776 35.0651 46.3606 34.9893 46.5514 34.9893H59.8452C59.9397 34.9892 60.0332 35.0078 60.1205 35.0439C60.2078 35.0801 60.2871 35.1331 60.3539 35.1999C60.4206 35.2667 60.4736 35.346 60.5097 35.4333C60.5458 35.5206 60.5643 35.6142 60.5642 35.7086C60.5646 36.1059 60.2432 36.428 59.8452 36.428Z" fill="#023BE2"/>
<path fill-rule="evenodd" clip-rule="evenodd" d="M51.126 36.4284C51.0315 36.4285 50.9379 36.4099 50.8506 36.3738C50.7633 36.3377 50.6839 36.2847 50.6171 36.2179C50.5503 36.1511 50.4972 36.0718 50.461 35.9844C50.4249 35.8971 50.4062 35.8036 50.4063 35.7091L50.4067 21.9086C50.4067 21.7179 50.4824 21.535 50.6173 21.4001C50.7522 21.2652 50.9351 21.1895 51.1258 21.1895C51.3166 21.1895 51.4995 21.2652 51.6344 21.4001C51.7693 21.535 51.845 21.7179 51.845 21.9086L51.8454 35.7091C51.8454 36.1063 51.5225 36.4284 51.126 36.4284ZM55.2688 36.4284C55.1743 36.4286 55.0806 36.4101 54.9932 36.374C54.9059 36.3379 54.8265 36.2849 54.7596 36.2181C54.6927 36.1513 54.6397 36.0719 54.6036 35.9846C54.5674 35.8972 54.5489 35.8036 54.549 35.7091L54.5494 21.9086C54.5539 21.7209 54.6316 21.5422 54.766 21.411C54.9004 21.2798 55.0807 21.2063 55.2686 21.2063C55.4564 21.2063 55.6368 21.2798 55.7712 21.411C55.9056 21.5422 55.9833 21.7209 55.9878 21.9086L55.9882 35.7091C55.9882 36.1063 55.6652 36.4284 55.2688 36.4284Z" fill="#023BE2"/>
<path fill-rule="evenodd" clip-rule="evenodd" d="M50.5414 18.9993C49.3989 18.9993 48.6028 19.5883 48.6028 20.1168C48.6037 20.6456 49.3985 21.2342 50.5414 21.2342C51.6835 21.2342 52.4783 20.6452 52.4783 20.1168C52.4783 19.5879 51.6831 18.9993 50.5414 18.9993ZM50.5414 22.673C48.6485 22.673 47.1641 21.5503 47.1641 20.1168C47.1649 18.6836 48.6481 17.5605 50.5414 17.5605C52.4347 17.5605 53.9171 18.6836 53.9171 20.1168C53.9171 21.5499 52.4347 22.673 50.5414 22.673Z" fill="#023BE2"/>
<path fill-rule="evenodd" clip-rule="evenodd" d="M55.8533 18.999C54.712 18.999 53.9147 19.588 53.9147 20.1164C53.9147 20.6453 54.7116 21.2339 55.8533 21.2339C56.9949 21.2339 57.7914 20.6449 57.7914 20.1164C57.7914 19.5876 56.9945 18.999 55.8533 18.999ZM55.8533 22.6726C53.9599 22.6726 52.4759 21.5499 52.4759 20.1164C52.4759 18.6833 53.9599 17.5602 55.8533 17.5602C57.7466 17.5602 59.2302 18.6833 59.2302 20.1164C59.2302 21.5495 57.7466 22.6726 55.8533 22.6726ZM30.0739 28.8343H20.4522C20.2666 28.8267 20.091 28.7476 19.9623 28.6136C19.8337 28.4796 19.7618 28.3011 19.7617 28.1153C19.7617 27.9295 19.8335 27.7509 19.9621 27.6168C20.0907 27.4827 20.2662 27.4036 20.4518 27.3959H30.0739C30.5384 27.3953 30.9837 27.2105 31.3121 26.882C31.6405 26.5536 31.8253 26.1083 31.826 25.6438V14.2353C31.826 13.2693 31.0388 12.4833 30.0739 12.4833H15.4334C14.9688 12.4837 14.5234 12.6684 14.1949 12.9969C13.8663 13.3254 13.6815 13.7708 13.681 14.2353V25.643C13.6815 26.1075 13.8663 26.5529 14.1947 26.8813C14.5232 27.2098 14.9685 27.3946 15.433 27.3951H16.6441C16.835 27.3952 17.0179 27.4711 17.1528 27.6061C17.2877 27.7412 17.3634 27.9242 17.3633 28.1151C17.3632 28.3059 17.2873 28.4889 17.1522 28.6238C17.0172 28.7587 16.8341 28.8344 16.6433 28.8343H15.4334C13.6733 28.8343 12.2422 27.4028 12.2422 25.643V14.2357C12.2422 12.4764 13.6733 11.0449 15.4334 11.0449H30.0735C31.832 11.0449 33.2644 12.4764 33.2644 14.2362V25.6434C33.2644 27.4028 31.832 28.8343 30.0739 28.8343Z" fill="#023BE2"/>
<path fill-rule="evenodd" clip-rule="evenodd" d="M16.7305 33.2418C16.542 33.2421 16.3609 33.1682 16.2262 33.0362C16.0916 32.9043 16.0142 32.7247 16.0107 32.5362L15.9259 28.1294C15.924 28.0349 15.9407 27.941 15.9751 27.853C16.0096 27.765 16.061 27.6846 16.1265 27.6166C16.192 27.5485 16.2703 27.494 16.3569 27.4562C16.4435 27.4184 16.5367 27.398 16.6312 27.3963C17.0236 27.385 17.3566 27.7047 17.3643 28.1015L17.4119 30.5996L19.9036 27.651C19.964 27.5773 20.0386 27.5163 20.1228 27.4716C20.2071 27.4269 20.2994 27.3994 20.3943 27.3907C20.4893 27.382 20.5851 27.3923 20.676 27.4209C20.767 27.4496 20.8514 27.496 20.9242 27.5576C20.9971 27.6191 21.0569 27.6946 21.1004 27.7795C21.1438 27.8644 21.1699 27.9571 21.1772 28.0522C21.1845 28.1473 21.1728 28.2429 21.1428 28.3334C21.1128 28.4239 21.0651 28.5076 21.0024 28.5795L17.2803 32.9867C17.2127 33.0665 17.1284 33.1307 17.0335 33.1748C16.9386 33.2188 16.8352 33.2417 16.7305 33.2418ZM19.5386 47.8319H40.5313C41.0628 47.8313 41.5724 47.6199 41.9482 47.2441C42.324 46.8682 42.5353 46.3586 42.5357 45.8271C42.5351 45.2956 42.3238 44.786 41.9479 44.4101C41.5721 44.0343 41.0624 43.8229 40.5309 43.8223H19.5386V47.8319ZM40.5313 49.2706H18.8192C18.6285 49.2705 18.4456 49.1947 18.3107 49.0598C18.1758 48.9249 18.1 48.742 18.0998 48.5513V43.1029C18.0998 42.7057 18.4224 42.3836 18.8192 42.3836H40.5313C42.4311 42.3836 43.9745 43.9285 43.9745 45.8271C43.9745 47.7261 42.4311 49.2706 40.5313 49.2706Z" fill="#023BE2"/>
<path fill-rule="evenodd" clip-rule="evenodd" d="M18.8209 49.2712C18.7288 49.2712 18.6336 49.2531 18.5423 49.2147L12.0682 46.4906C11.9382 46.4352 11.8272 46.3429 11.7493 46.225C11.6713 46.1071 11.6297 45.9688 11.6297 45.8275C11.6297 45.6861 11.6713 45.5479 11.7493 45.43C11.8272 45.3121 11.9382 45.2198 12.0682 45.1644L18.5427 42.4403C18.6297 42.4036 18.7231 42.3845 18.8175 42.3839C18.912 42.3834 19.0056 42.4015 19.093 42.4371C19.1804 42.4728 19.26 42.5253 19.3271 42.5917C19.3942 42.6581 19.4476 42.7371 19.4841 42.8242C19.5209 42.9112 19.5402 43.0047 19.5408 43.0991C19.5415 43.1936 19.5234 43.2873 19.4878 43.3748C19.4522 43.4624 19.3997 43.542 19.3332 43.6092C19.2668 43.6764 19.1877 43.7298 19.1006 43.7664L14.203 45.8273L19.101 47.8886C19.1882 47.9252 19.2672 47.9786 19.3336 48.0458C19.4001 48.113 19.4526 48.1926 19.4882 48.2801C19.5238 48.3677 19.5419 48.4613 19.5412 48.5558C19.5406 48.6503 19.5213 48.7438 19.4845 48.8308C19.4297 48.9615 19.3375 49.0731 19.2194 49.1515C19.1013 49.2298 18.9626 49.2715 18.8209 49.2712ZM36.8189 49.2708C36.7244 49.2709 36.6308 49.2523 36.5435 49.2162C36.4561 49.1801 36.3767 49.1271 36.3098 49.0603C36.243 48.9935 36.1899 48.9142 36.1537 48.8269C36.1175 48.7396 36.0988 48.646 36.0987 48.5514L36.0991 43.1031C36.0991 42.9124 36.1749 42.7295 36.3098 42.5946C36.4447 42.4597 36.6276 42.3839 36.8183 42.3839C37.0091 42.3839 37.192 42.4597 37.3269 42.5946C37.4617 42.7295 37.5375 42.9124 37.5375 43.1031L37.5379 48.5514C37.5379 48.9487 37.2158 49.2708 36.8189 49.2708ZM9.86927 41.1613H12.8215V34.0833H9.86927V41.1613ZM13.5409 42.6001H9.14988C9.05536 42.6002 8.96175 42.5816 8.8744 42.5455C8.78705 42.5094 8.70767 42.4564 8.6408 42.3896C8.57392 42.3228 8.52085 42.2435 8.48463 42.1562C8.44841 42.0688 8.42974 41.9753 8.42969 41.8807L8.43049 33.3639C8.43049 32.9667 8.75224 32.6445 9.14908 32.6445H13.5409C13.9381 32.6445 14.2595 32.9667 14.2595 33.3639L14.2603 41.8807C14.2603 42.278 13.9377 42.6001 13.5409 42.6001ZM28.4458 36.5451H16.0701C15.9755 36.5452 15.8819 36.5267 15.7945 36.4906C15.7071 36.4545 15.6278 36.4016 15.5609 36.3347C15.494 36.2679 15.441 36.1885 15.4049 36.1012C15.3687 36.0138 15.3502 35.9202 15.3503 35.8257C15.3502 35.7312 15.3687 35.6376 15.4048 35.5502C15.4409 35.4629 15.4939 35.3836 15.5607 35.3167C15.6276 35.2499 15.7069 35.1969 15.7942 35.1608C15.8816 35.1247 15.9752 35.1062 16.0697 35.1063H28.4454C28.6362 35.1063 28.8192 35.1821 28.9541 35.317C29.089 35.4519 29.1648 35.6349 29.1648 35.8257C29.1648 36.0165 29.089 36.1994 28.9541 36.3344C28.8192 36.4693 28.6366 36.5451 28.4458 36.5451ZM28.4458 40.138H16.0701C15.8793 40.138 15.6963 40.0622 15.5614 39.9273C15.4265 39.7924 15.3507 39.6094 15.3507 39.4186C15.3507 39.2278 15.4265 39.0448 15.5614 38.9099C15.6963 38.775 15.8793 38.6992 16.0701 38.6992H28.4454C28.6362 38.6992 28.8192 38.775 28.9541 38.9099C29.089 39.0448 29.1648 39.2278 29.1648 39.4186C29.1648 39.6094 29.089 39.7924 28.9541 39.9273C28.8192 40.0622 28.6366 40.138 28.4458 40.138Z" fill="#023BE2"/>
</svg>
